{
.appVersion = "3326";
DisplayStrings = (
"/brevecomb-cy/brevecomb-cy.001 \012",
"/A-cy/Be-cy/Ve-cy/Ge-cy/De-cy/Ie-cy/Zhe-cy/Ze-cy/Ii-cy/Iishort-cy/Ka-cy/El-cy/Em-cy/En-cy/O-cy/Pe-cy/Er-cy/Es-cy/Te-cy/U-cy/Ef-cy/Ha-cy/Che-cy/Tse-cy/Sha-cy/Shcha-cy/Hardsign-cy/Softsign-cy/Yu-cy/Ya-cy/a-cy/be-cy/ve-cy/ge-cy/de-cy/ie-cy/zhe-cy/ze-cy/ii-cy/iishort-cy/ka-cy/el-cy/em-cy/en-cy/o-cy/pe-cy/er-cy/es-cy/te-cy/u-cy/ef-cy/ha-cy/che-cy/tse-cy/sha-cy/shcha-cy/hardsign-cy/softsign-cy/yu-cy/ya-cy/brevecomb-cy",
"/de-cy/space",

glyphs = (
{
color = 10;
glyphname = A;
lastChange = "2024-11-18 10:37:41 +0000";
layers = (
{
anchors = (
{
name = bottom;
position = "{298, 0}";
},
{
name = ogonek;
position = "{554, 0}";
},
{
name = top;
position = "{298, 633}";
}
);
background = {
paths = (
{
closed = 0;
nodes = (
"32 3 LINE",
"299 609 LINE",
"565 3 LINE"
);
},
{
closed = 0;
nodes = (
"121 205 LINE",
"475 205 LINE"
);
}
);
};
layerId = "C9A88445-F9B1-43BF-9834-532EB19954E9";
paths = (
{
closed = 1;
nodes = (
"46 -3 OFFCURVE",
"56 1 OFFCURVE",
"61 13 CURVE SMOOTH",
"133 179 LINE",
"466 179 LINE",
"536 13 LINE SMOOTH",
"541 1 OFFCURVE",
"551 -3 OFFCURVE",
"563 2 CURVE SMOOTH",
"576 8 OFFCURVE",
"580 17 OFFCURVE",
"574 30 CURVE SMOOTH",
"324 617 LINE SMOOTH",
"319 628 OFFCURVE",
"312 633 OFFCURVE",
"300 633 CURVE SMOOTH",
"297 633 LINE SMOOTH",
"285 633 OFFCURVE",
"277 628 OFFCURVE",
"273 617 CURVE SMOOTH",
"22 30 LINE SMOOTH",
"17 17 OFFCURVE",
"21 8 OFFCURVE",
"33 2 CURVE SMOOTH"
);
},
{
closed = 1;
nodes = (
"300 567 LINE",
"448 221 LINE",
"151 221 LINE"
);
}
);
width = 597;
},
{
anchors = (
{
name = bottom;
position = "{333, 0}";
},
{
name = ogonek;
position = "{562, 0}";
},
{
name = top;
position = "{334, 678}";
}
);
background = {
paths = (
{
closed = 0;
nodes = (
"587 5 LINE",
"328 629 LINE",
"318 629 LINE",
"61 3 LINE"
);
},
{
closed = 0;
nodes = (
"144 200 LINE",
"501 200 LINE"
);
}
);
};
layerId = "9D2B49D7-8C02-48EB-8D57-D561CCF616AE";
paths = (
{
closed = 1;
nodes = (
"96 -6 OFFCURVE",
"116 2 OFFCURVE",
"126 27 CURVE SMOOTH",
"178 158 LINE",
"489 158 LINE",
"543 27 LINE SMOOTH",
"553 2 OFFCURVE",
"572 -6 OFFCURVE",
"598 4 CURVE SMOOTH",
"623 14 OFFCURVE",
"631 34 OFFCURVE",
"621 59 CURVE SMOOTH",
"379 645 LINE SMOOTH",
"371 667 OFFCURVE",
"356 677 OFFCURVE",
"335 678 CURVE SMOOTH",
"333 678 LINE SMOOTH",
"311 678 OFFCURVE",
"296 667 OFFCURVE",
"286 645 CURVE SMOOTH",
"48 59 LINE SMOOTH",
"38 34 OFFCURVE",
"46 14 OFFCURVE",
"72 4 CURVE SMOOTH"
);
},
{
closed = 1;
nodes = (
"330 545 LINE",
"455 242 LINE",
"211 242 LINE"
);
}
);
width = 666;
},
{
anchors = (
{
name = bottom;
position = "{333, 0}";
},
{
name = ogonek;
position = "{562, 0}";
},
{
name = top;
position = "{334, 678}";
}
);
associatedMasterId = "9D2B49D7-8C02-48EB-8D57-D561CCF616AE";
background = {
paths = (
{
closed = 0;
nodes = (
"69 6 LINE",
"332 636 LINE",
"598 5 LINE"
);
},
{
closed = 0;
nodes = (
"152 205 LINE",
"515 205 LINE"
);
}
);
};
layerId = "510F541A-2A87-4AAC-8C0C-C6F2C618A91E";
name = "18 Nov 24 at 13:41";
paths = (
{
closed = 1;
nodes = (
"96 -6 OFFCURVE",
"116 2 OFFCURVE",
"126 27 CURVE SMOOTH",
"178 158 LINE",
"489 158 LINE",
"543 27 LINE SMOOTH",
"553 2 OFFCURVE",
"572 -6 OFFCURVE",
"598 4 CURVE SMOOTH",
"623 14 OFFCURVE",
"631 34 OFFCURVE",
"621 59 CURVE SMOOTH",
"379 645 LINE SMOOTH",
"371 667 OFFCURVE",
"356 677 OFFCURVE",
"335 678 CURVE SMOOTH",
"333 678 LINE SMOOTH",
"311 678 OFFCURVE",
"296 667 OFFCURVE",
"286 645 CURVE SMOOTH",
"48 59 LINE SMOOTH",
"38 34 OFFCURVE",
"46 14 OFFCURVE",
"72 4 CURVE SMOOTH"
);
},
{
closed = 1;
nodes = (
"330 545 LINE",
"455 242 LINE",
"211 242 LINE"
);
}
);
width = 666;
}
);
leftKerningGroup = A;
rightKerningGroup = A;
unicode = 0041;
},
{
color = 9;
glyphname = AE;
lastChange = "2024-11-18 08:40:00 +0000";
layers = (
{
anchors = (
{
name = bottom;
position = "{499, 0}";
},
{
name = top;
position = "{508, 633}";
}
);
layerId = "C9A88445-F9B1-43BF-9834-532EB19954E9";
paths = (
{
closed = 1;
nodes = (
"761 0 LINE SMOOTH",
"775 0 OFFCURVE",
"782 7 OFFCURVE",
"782 21 CURVE SMOOTH",
"782 35 OFFCURVE",
"775 42 OFFCURVE",
"761 42 CURVE SMOOTH",
"443 42 LINE",
"443 300 LINE",
"643 300 LINE SMOOTH",
"657 300 OFFCURVE",
"664 307 OFFCURVE",
"664 321 CURVE SMOOTH",
"664 335 OFFCURVE",
"657 342 OFFCURVE",
"643 342 CURVE SMOOTH",
"443 342 LINE",
"443 591 LINE",
"761 591 LINE SMOOTH",
"775 591 OFFCURVE",
"782 598 OFFCURVE",
"782 612 CURVE SMOOTH",
"782 626 OFFCURVE",
"775 633 OFFCURVE",
"761 633 CURVE SMOOTH",
"379 633 LINE SMOOTH",
"368 633 OFFCURVE",
"360 629 OFFCURVE",
"355 618 CURVE SMOOTH",
"24 32 LINE SMOOTH",
"17 20 OFFCURVE",
"20 10 OFFCURVE",
"32 3 CURVE SMOOTH",
"44 -4 OFFCURVE",
"54 -1 OFFCURVE",
"61 11 CURVE SMOOTH",
"156 180 LINE",
"401 179 LINE",
"401 21 LINE SMOOTH",
"401 7 OFFCURVE",
"408 0 OFFCURVE",
"422 0 CURVE SMOOTH"
);
},
{
closed = 1;
nodes = (
"387 591 LINE",
"401 591 LINE",
"401 221 LINE",
"179 221 LINE"
);
}
);
width = 817;
},
{
anchors = (
{
name = bottom;
position = "{540, 0}";
},
{
name = top;
position = "{537, 678}";
}
);
layerId = "9D2B49D7-8C02-48EB-8D57-D561CCF616AE";
paths = (
{
closed = 1;
nodes = (
"762 0 LINE SMOOTH",
"789 0 OFFCURVE",
"804 15 OFFCURVE",
"804 42 CURVE SMOOTH",
"804 69 OFFCURVE",
"789 84 OFFCURVE",
"762 84 CURVE SMOOTH",
"513 84 LINE",
"513 300 LINE",
"644 300 LINE SMOOTH",
"671 300 OFFCURVE",
"686 315 OFFCURVE",
"686 342 CURVE SMOOTH",
"686 369 OFFCURVE",
"671 384 OFFCURVE",
"644 384 CURVE SMOOTH",
"513 384 LINE",
"513 594 LINE",
"762 594 LINE SMOOTH",
"789 594 OFFCURVE",
"804 609 OFFCURVE",
"804 636 CURVE SMOOTH",
"804 662 OFFCURVE",
"789 678 OFFCURVE",
"762 678 CURVE SMOOTH",
"434 678 LINE SMOOTH",
"410 678 OFFCURVE",
"395 668 OFFCURVE",
"383 649 CURVE SMOOTH",
"51 64 LINE SMOOTH",
"38 41 OFFCURVE",
"44 21 OFFCURVE",
"67 7 CURVE SMOOTH",
"90 -7 OFFCURVE",
"110 -1 OFFCURVE",
"124 24 CURVE SMOOTH",
"201 158 LINE",
"429 158 LINE",
"429 42 LINE SMOOTH",
"429 15 OFFCURVE",
"443 0 OFFCURVE",
"471 0 CURVE SMOOTH"
);
},
{
closed = 1;
nodes = (
"432 575 LINE",
"429 575 LINE",
"429 242 LINE",
"249 242 LINE"
);
}
);
width = 860;
}
);
leftKerningGroup = A;
leftMetricsKey = A;
rightKerningGroup = E;
rightMetricsKey = E;
unicode = 00C6;
},
{
color = 10;
glyphname = B;
lastChange = "2024-11-18 10:37:41 +0000";
layers = (
{
anchors = (
{
name = bottom;
position = "{300, 0}";
},
{
name = top;
position = "{300, 633}";
}
);
background = {
paths = (
{
closed = 1;
nodes = (
"385 0 LINE SMOOTH",
"496 0 OFFCURVE",
"553 57 OFFCURVE",
"553 167 CURVE SMOOTH",
"553 198 LINE SMOOTH",
"553 308 OFFCURVE",
"496 364 OFFCURVE",
"385 364 CURVE SMOOTH",
"132 364 LINE SMOOTH",
"118 364 OFFCURVE",
"111 357 OFFCURVE",
"111 343 CURVE SMOOTH",
"111 329 OFFCURVE",
"118 322 OFFCURVE",
"132 322 CURVE SMOOTH",
"385 322 LINE SMOOTH",
"473 322 OFFCURVE",
"511 285 OFFCURVE",
"511 198 CURVE SMOOTH",
"511 167 LINE SMOOTH",
"511 80 OFFCURVE",
"473 42 OFFCURVE",
"385 42 CURVE SMOOTH",
"132 42 LINE",
"132 591 LINE",
"372 591 LINE SMOOTH",
"443 591 OFFCURVE",
"474 561 OFFCURVE",
"474 492 CURVE SMOOTH",
"474 465 LINE SMOOTH",
"474 402 OFFCURVE",
"441 368 OFFCURVE",
"385 364 CURVE SMOOTH",
"375 363 OFFCURVE",
"372 357 OFFCURVE",
"372 344 CURVE SMOOTH",
"372 330 OFFCURVE",
"380 332 OFFCURVE",
"394 333 CURVE SMOOTH",
"474 339 OFFCURVE",
"516 379 OFFCURVE",
"516 465 CURVE SMOOTH",
"516 492 LINE SMOOTH",
"516 585 OFFCURVE",
"467 633 OFFCURVE",
"372 633 CURVE SMOOTH",
"111 633 LINE SMOOTH",
"97 633 OFFCURVE",
"90 626 OFFCURVE",
"90 612 CURVE SMOOTH",
"90 21 LINE SMOOTH",
"90 7 OFFCURVE",
"97 0 OFFCURVE",
"111 0 CURVE SMOOTH"
);
}
);
};
layerId = "C9A88445-F9B1-43BF-9834-532EB19954E9";
paths = (
{
closed = 1;
nodes = (
"385 0 LINE SMOOTH",
"496 0 OFFCURVE",
"553 57 OFFCURVE",
"553 167 CURVE SMOOTH",
"553 198 LINE SMOOTH",
"553 279 OFFCURVE",
"523 330 OFFCURVE",
"463 352 CURVE",
"498 372 OFFCURVE",
"516 409 OFFCURVE",
"516 465 CURVE SMOOTH",
"516 492 LINE SMOOTH",
"516 585 OFFCURVE",
"467 633 OFFCURVE",
"372 633 CURVE SMOOTH",
"111 633 LINE SMOOTH",
"97 633 OFFCURVE",
"90 626 OFFCURVE",
"90 612 CURVE SMOOTH",
"90 21 LINE SMOOTH",
"90 7 OFFCURVE",
"97 0 OFFCURVE",
"111 0 CURVE SMOOTH"
);
},
{
closed = 1;
nodes = (
"132 322 LINE",
"385 322 LINE SMOOTH",
"473 322 OFFCURVE",
"511 285 OFFCURVE",
"511 198 CURVE SMOOTH",
"511 167 LINE SMOOTH",
"511 80 OFFCURVE",
"473 42 OFFCURVE",
"385 42 CURVE SMOOTH",
"132 42 LINE"
);
},
{
closed = 1;
nodes = (
"132 591 LINE",
"372 591 LINE SMOOTH",
"443 591 OFFCURVE",
"474 561 OFFCURVE",
"474 492 CURVE SMOOTH",
"474 465 LINE SMOOTH",
"474 393 OFFCURVE",
"441 364 OFFCURVE",
"376 364 CURVE SMOOTH",
"132 364 LINE"
);
}
);
width = 603;
},
{
anchors = (
{
name = bottom;
position = "{341, 0}";
},
{
name = top;
position = "{338, 678}";
}
);
background = {
paths = (
{
closed = 0;
nodes = (
"387 360 LINE",
"470 360 OFFCURVE",
"510 400 OFFCURVE",
"510 482 CURVE",
"510 509 LINE",
"510 590 OFFCURVE",
"470 629 OFFCURVE",
"387 629 CURVE",
"156 629 LINE",
"156 36 LINE",
"400 36 LINE",
"500 36 OFFCURVE",
"547 84 OFFCURVE",
"547 182 CURVE",
"547 215 LINE",
"547 313 OFFCURVE",
"500 360 OFFCURVE",
"400 360 CURVE",
"156 360 LINE"
);
}
);
};
layerId = "9D2B49D7-8C02-48EB-8D57-D561CCF616AE";
paths = (
{
closed = 1;
nodes = (
"420 0 LINE SMOOTH",
"542 0 OFFCURVE",
"609 65 OFFCURVE",
"609 188 CURVE SMOOTH",
"609 222 LINE SMOOTH",
"609 300 OFFCURVE",
"582 355 OFFCURVE",
"530 385 CURVE",
"558 409 OFFCURVE",
"572 446 OFFCURVE",
"572 489 CURVE SMOOTH",
"572 516 LINE SMOOTH",
"572 620 OFFCURVE",
"513 678 OFFCURVE",
"407 678 CURVE SMOOTH",
"146 678 LINE SMOOTH",
"119 678 OFFCURVE",
"104 663 OFFCURVE",
"104 636 CURVE SMOOTH",
"104 42 LINE SMOOTH",
"104 15 OFFCURVE",
"119 0 OFFCURVE",
"146 0 CURVE SMOOTH"
);
},
{
closed = 1;
nodes = (
"188 325 LINE",
"420 325 LINE SMOOTH",
"497 325 OFFCURVE",
"525 296 OFFCURVE",
"525 222 CURVE SMOOTH",
"525 188 LINE SMOOTH",
"525 114 OFFCURVE",
"495 84 OFFCURVE",
"420 84 CURVE SMOOTH",
"188 84 LINE"
);
},
{
closed = 1;
nodes = (
"188 594 LINE",
"407 594 LINE SMOOTH",
"467 594 OFFCURVE",
"488 574 OFFCURVE",
"488 516 CURVE SMOOTH",
"488 489 LINE SMOOTH",
"488 442 OFFCURVE",
"474 409 OFFCURVE",
"425 409 CURVE SMOOTH",
"188 409 LINE"
);
}
);
width = 673;
}
);
leftKerningGroup = H;
leftMetricsKey = H;
rightKerningGroup = B;
unicode = 0042;
},
{
color = 10;
glyphname = C;
lastChange = "2024-11-18 11:41:16 +0000";
layers = (
{
anchors = (
{
name = bottom;
position = "{344, 0}";
},
{
name = top;
position = "{333, 633}";
}
);
layerId = "C9A88445-F9B1-43BF-9834-532EB19954E9";
paths = (
{
closed = 1;
nodes = (
"403 0 LINE SMOOTH",
"525 0 OFFCURVE",
"580 48 OFFCURVE",
"585 161 CURVE SMOOTH",
"586 175 OFFCURVE",
"579 183 OFFCURVE",
"565 183 CURVE SMOOTH",
"551 183 OFFCURVE",
"544 176 OFFCURVE",
"543 162 CURVE SMOOTH",
"539 72 OFFCURVE",
"501 42 OFFCURVE",
"403 42 CURVE SMOOTH",
"283 42 LINE SMOOTH",
"165 42 OFFCURVE",
"122 85 OFFCURVE",
"122 203 CURVE SMOOTH",
"122 430 LINE SMOOTH",
"122 549 OFFCURVE",
"164 591 OFFCURVE",
"282 591 CURVE SMOOTH",
"403 591 LINE SMOOTH",
"501 591 OFFCURVE",
"539 561 OFFCURVE",
"543 471 CURVE SMOOTH",
"544 457 OFFCURVE",
"551 450 OFFCURVE",
"565 450 CURVE SMOOTH",
"579 450 OFFCURVE",
"586 458 OFFCURVE",
"585 472 CURVE SMOOTH",
"580 585 OFFCURVE",
"525 633 OFFCURVE",
"403 633 CURVE SMOOTH",
"282 633 LINE SMOOTH",
"141 633 OFFCURVE",
"80 573 OFFCURVE",
"80 430 CURVE SMOOTH",
"80 203 LINE SMOOTH",
"80 61 OFFCURVE",
"141 0 OFFCURVE",
"283 0 CURVE SMOOTH"
);
}
);
width = 655;
},
{
anchors = (
{
name = bottom;
position = "{364, 0}";
},
{
name = top;
position = "{372, 678}";
}
);
background = {
paths = (
{
closed = 1;
nodes = (
"424 0 LINE SMOOTH",
"547 0 OFFCURVE",
"613 48 OFFCURVE",
"626 160 CURVE SMOOTH",
"629 188 OFFCURVE",
"613 204 OFFCURVE",
"585 204 CURVE",
"558 204 OFFCURVE",
"545 190 OFFCURVE",
"542 162 CURVE SMOOTH",
"533 102 OFFCURVE",
"502 84 OFFCURVE",
"424 84 CURVE SMOOTH",
"304 84 LINE SMOOTH",
"198 84 OFFCURVE",
"164 118 OFFCURVE",
"164 224 CURVE SMOOTH",
"164 453 LINE SMOOTH",
"164 560 OFFCURVE",
"198 594 OFFCURVE",
"303 593 CURVE SMOOTH",
"424 593 LINE SMOOTH",
"502 593 OFFCURVE",
"533 575 OFFCURVE",
"542 515 CURVE SMOOTH",
"545 488 OFFCURVE",
"558 473 OFFCURVE",
"585 473 CURVE SMOOTH",
"613 473 OFFCURVE",
"629 489 OFFCURVE",
"626 517 CURVE SMOOTH",
"613 629 OFFCURVE",
"547 677 OFFCURVE",
"424 677 CURVE SMOOTH",
"303 677 LINE SMOOTH",
"151 678 OFFCURVE",
"80 607 OFFCURVE",
"80 453 CURVE SMOOTH",
"80 224 LINE SMOOTH",
"80 71 OFFCURVE",
"151 0 OFFCURVE",
"304 0 CURVE SMOOTH"
);
}
);
};
layerId = "9D2B49D7-8C02-48EB-8D57-D561CCF616AE";
paths = (
{
closed = 1;
nodes = (
"424 0 LINE SMOOTH",
"549 0 OFFCURVE",
"614 49 OFFCURVE",
"625 161 CURVE SMOOTH",
"629 189 OFFCURVE",
"613 204 OFFCURVE",
"585 204 CURVE SMOOTH",
"558 204 OFFCURVE",
"545 190 OFFCURVE",
"541 162 CURVE SMOOTH",
"534 101 OFFCURVE",
"502 84 OFFCURVE",
"424 84 CURVE SMOOTH",
"304 84 LINE SMOOTH",
"197 84 OFFCURVE",
"164 117 OFFCURVE",
"164 224 CURVE SMOOTH",
"164 454 LINE SMOOTH",
"164 562 OFFCURVE",
"197 595 OFFCURVE",
"303 594 CURVE SMOOTH",
"424 594 LINE SMOOTH",
"502 594 OFFCURVE",
"534 577 OFFCURVE",
"541 516 CURVE SMOOTH",
"545 488 OFFCURVE",
"558 474 OFFCURVE",
"585 474 CURVE SMOOTH",
"613 474 OFFCURVE",
"629 489 OFFCURVE",
"625 517 CURVE SMOOTH",
"614 628 OFFCURVE",
"549 678 OFFCURVE",
"424 678 CURVE SMOOTH",
"303 678 LINE SMOOTH",
"151 679 OFFCURVE",
"80 608 OFFCURVE",
"80 454 CURVE SMOOTH",
"80 224 LINE SMOOTH",
"80 71 OFFCURVE",
"151 0 OFFCURVE",
"304 0 CURVE SMOOTH"
);
}
);
width = 696;
}
);
leftKerningGroup = O;
leftMetricsKey = O;
rightKerningGroup = C;
unicode = 0043;
},
{
color = 10;
glyphname = D;
lastChange = "2024-11-18 10:37:41 +0000";
layers = (
{
anchors = (
{
name = bottom;
position = "{328, 0}";
},
{
name = center;
position = "{151, 321}";
},
{
name = top;
position = "{296, 633}";
}
);
layerId = "C9A88445-F9B1-43BF-9834-532EB19954E9";
paths = (
{
closed = 1;
nodes = (
"352 0 LINE SMOOTH",
"515 0 OFFCURVE",
"585 70 OFFCURVE",
"585 233 CURVE SMOOTH",
"585 400 LINE SMOOTH",
"585 563 OFFCURVE",
"515 633 OFFCURVE",
"352 633 CURVE SMOOTH",
"111 633 LINE SMOOTH",
"97 633 OFFCURVE",
"90 626 OFFCURVE",
"90 612 CURVE SMOOTH",
"90 21 LINE SMOOTH",
"90 7 OFFCURVE",
"97 0 OFFCURVE",
"111 0 CURVE SMOOTH"
);
},
{
closed = 1;
nodes = (
"132 591 LINE",
"352 591 LINE SMOOTH",
"491 591 OFFCURVE",
"543 539 OFFCURVE",
"543 400 CURVE SMOOTH",
"543 233 LINE SMOOTH",
"543 94 OFFCURVE",
"491 42 OFFCURVE",
"352 42 CURVE SMOOTH",
"132 42 LINE"
);
}
);
width = 665;
},
{
anchors = (
{
name = bottom;
position = "{341, 0}";
},
{
name = center;
position = "{192, 338}";
},
{
name = top;
position = "{353, 678}";
}
);
background = {
paths = (
{
closed = 1;
nodes = (
"136 629 LINE",
"136 36 LINE",
"377 36 LINE",
"528 36 OFFCURVE",
"589 97 OFFCURVE",
"589 248 CURVE",
"589 417 LINE",
"589 568 OFFCURVE",
"528 629 OFFCURVE",
"377 629 CURVE"
);
}
);
};
layerId = "9D2B49D7-8C02-48EB-8D57-D561CCF616AE";
paths = (
{
closed = 1;
nodes = (
"387 0 LINE SMOOTH",
"562 0 OFFCURVE",
"641 80 OFFCURVE",
"641 254 CURVE SMOOTH",
"641 424 LINE SMOOTH",
"641 598 OFFCURVE",
"561 678 OFFCURVE",
"387 678 CURVE SMOOTH",
"146 678 LINE SMOOTH",
"119 678 OFFCURVE",
"104 663 OFFCURVE",
"104 636 CURVE SMOOTH",
"104 42 LINE SMOOTH",
"104 15 OFFCURVE",
"119 0 OFFCURVE",
"146 0 CURVE SMOOTH"
);
},
{
closed = 1;
nodes = (
"188 594 LINE",
"387 594 LINE SMOOTH",
"515 594 OFFCURVE",
"557 551 OFFCURVE",
"557 424 CURVE SMOOTH",
"557 254 LINE SMOOTH",
"557 126 OFFCURVE",
"515 84 OFFCURVE",
"387 84 CURVE SMOOTH",
"188 84 LINE"
);
}
);
width = 721;
}
);
leftKerningGroup = H;
leftMetricsKey = H;
rightKerningGroup = O;
rightMetricsKey = O;
unicode = 0044;
},
{
color = 10;
glyphname = E;
lastChange = "2024-11-18 10:37:41 +0000";
layers = (
{
anchors = (
{
name = bottom;
position = "{299, 0}";
},
{
name = ogonek;
position = "{488, 0}";
},
{
name = top;
position = "{319, 633}";
},
{
name = topleft;
position = "{89, 633}";
}
);
layerId = "C9A88445-F9B1-43BF-9834-532EB19954E9";
paths = (
{
closed = 1;
nodes = (
"491 0 LINE SMOOTH",
"505 0 OFFCURVE",
"512 7 OFFCURVE",
"512 21 CURVE SMOOTH",
"512 35 OFFCURVE",
"505 42 OFFCURVE",
"491 42 CURVE SMOOTH",
"132 42 LINE",
"132 300 LINE",
"373 300 LINE SMOOTH",
"387 300 OFFCURVE",
"394 307 OFFCURVE",
"394 321 CURVE SMOOTH",
"394 335 OFFCURVE",
"387 342 OFFCURVE",
"373 342 CURVE SMOOTH",
"132 342 LINE",
"132 591 LINE",
"491 591 LINE SMOOTH",
"505 591 OFFCURVE",
"512 598 OFFCURVE",
"512 612 CURVE SMOOTH",
"512 626 OFFCURVE",
"505 633 OFFCURVE",
"491 633 CURVE SMOOTH",
"111 633 LINE SMOOTH",
"97 633 OFFCURVE",
"90 626 OFFCURVE",
"90 612 CURVE SMOOTH",
"90 21 LINE SMOOTH",
"90 7 OFFCURVE",
"97 0 OFFCURVE",
"111 0 CURVE SMOOTH"
);
}
);
width = 547;
},
{
anchors = (
{
name = bottom;
position = "{348, 0}";
},
{
name = ogonek;
position = "{506, 41}";
},
{
name = top;
position = "{340, 678}";
},
{
name = topleft;
position = "{110, 678}";
}
);
background = {
paths = (
{
closed = 0;
nodes = (
"537 629 LINE",
"136 629 LINE",
"136 36 LINE",
"537 36 LINE"
);
},
{
closed = 0;
nodes = (
"136 336 LINE",
"419 336 LINE"
);
}
);
};
layerId = "9D2B49D7-8C02-48EB-8D57-D561CCF616AE";
paths = (
{
closed = 1;
nodes = (
"505 0 LINE SMOOTH",
"532 0 OFFCURVE",
"547 15 OFFCURVE",
"547 42 CURVE SMOOTH",
"547 69 OFFCURVE",
"532 84 OFFCURVE",
"505 84 CURVE SMOOTH",
"188 84 LINE",
"188 300 LINE",
"387 300 LINE SMOOTH",
"414 300 OFFCURVE",
"429 315 OFFCURVE",
"429 342 CURVE SMOOTH",
"429 369 OFFCURVE",
"414 384 OFFCURVE",
"387 384 CURVE SMOOTH",
"188 384 LINE",
"188 594 LINE",
"505 594 LINE SMOOTH",
"532 594 OFFCURVE",
"547 609 OFFCURVE",
"547 636 CURVE SMOOTH",
"547 662 OFFCURVE",
"532 678 OFFCURVE",
"505 678 CURVE SMOOTH",
"146 678 LINE SMOOTH",
"119 678 OFFCURVE",
"104 662 OFFCURVE",
"104 636 CURVE SMOOTH",
"104 42 LINE SMOOTH",
"104 15 OFFCURVE",
"119 0 OFFCURVE",
"146 0 CURVE SMOOTH"
);
}
);
width = 603;
}
);
leftKerningGroup = H;
leftMetricsKey = H;
rightKerningGroup = E;
unicode = 0045;
},
{
color = 9;
glyphname = Schwa;
lastChange = "2024-11-18 08:40:00 +0000";
layers = (
{
layerId = "C9A88445-F9B1-43BF-9834-532EB19954E9";
paths = (
{
closed = 1;
nodes = (
"403 1 LINE SMOOTH",
"545 1 OFFCURVE",
"606 62 OFFCURVE",
"606 204 CURVE SMOOTH",
"606 430 LINE SMOOTH",
"606 572 OFFCURVE",
"545 633 OFFCURVE",
"403 633 CURVE SMOOTH",
"283 633 LINE SMOOTH",
"141 633 OFFCURVE",
"80 572 OFFCURVE",
"80 430 CURVE SMOOTH",
"80 418 OFFCURVE",
"89 409 OFFCURVE",
"101 409 CURVE SMOOTH",
"113 409 OFFCURVE",
"122 418 OFFCURVE",
"122 430 CURVE SMOOTH",
"122 548 OFFCURVE",
"165 591 OFFCURVE",
"283 591 CURVE SMOOTH",
"403 591 LINE SMOOTH",
"521 591 OFFCURVE",
"564 548 OFFCURVE",
"564 430 CURVE SMOOTH",
"564 288 LINE",
"80 288 LINE",
"80 204 LINE SMOOTH",
"80 62 OFFCURVE",
"141 1 OFFCURVE",
"283 1 CURVE SMOOTH"
);
},
{
closed = 1;
nodes = (
"165 43 OFFCURVE",
"122 86 OFFCURVE",
"122 204 CURVE SMOOTH",
"122 246 LINE",
"564 246 LINE",
"564 204 LINE SMOOTH",
"564 86 OFFCURVE",
"521 43 OFFCURVE",
"403 43 CURVE SMOOTH",
"283 43 LINE SMOOTH"
);
}
);
width = 686;
},
{
layerId = "9D2B49D7-8C02-48EB-8D57-D561CCF616AE";
paths = (
{
closed = 1;
nodes = (
"424 0 LINE SMOOTH",
"577 0 OFFCURVE",
"648 70 OFFCURVE",
"648 224 CURVE SMOOTH",
"648 450 LINE SMOOTH",
"648 603 OFFCURVE",
"577 674 OFFCURVE",
"424 674 CURVE SMOOTH",
"304 674 LINE SMOOTH",
"151 674 OFFCURVE",
"80 603 OFFCURVE",
"80 450 CURVE SMOOTH",
"80 426 OFFCURVE",
"99 408 OFFCURVE",
"122 408 CURVE SMOOTH",
"145 408 OFFCURVE",
"164 426 OFFCURVE",
"164 450 CURVE SMOOTH",
"164 556 OFFCURVE",
"197 590 OFFCURVE",
"304 590 CURVE SMOOTH",
"424 590 LINE SMOOTH",
"531 590 OFFCURVE",
"564 556 OFFCURVE",
"564 450 CURVE SMOOTH",
"564 329 LINE",
"80 329 LINE",
"80 224 LINE SMOOTH",
"80 70 OFFCURVE",
"151 0 OFFCURVE",
"304 0 CURVE SMOOTH"
);
},
{
closed = 1;
nodes = (
"197 84 OFFCURVE",
"164 117 OFFCURVE",
"164 224 CURVE SMOOTH",
"164 245 LINE",
"564 245 LINE",
"564 224 LINE SMOOTH",
"564 117 OFFCURVE",
"531 84 OFFCURVE",
"424 84 CURVE SMOOTH",
"304 84 LINE SMOOTH"
);
}
);
width = 728;
}
);
leftKerningGroup = O;
leftMetricsKey = O;
rightKerningGroup = O;
rightMetricsKey = O;
unicode = 018F;
},
{
color = 10;
glyphname = F;
lastChange = "2024-11-18 10:37:41 +0000";
layers = (
{
anchors = (
{
name = bottom;
position = "{111, 0}";
},
{
name = top;
position = "{305, 633}";
}
);
layerId = "C9A88445-F9B1-43BF-9834-532EB19954E9";
paths = (
{
closed = 1;
nodes = (
"125 0 OFFCURVE",
"132 7 OFFCURVE",
"132 21 CURVE SMOOTH",
"132 300 LINE",
"369 300 LINE SMOOTH",
"383 300 OFFCURVE",
"390 307 OFFCURVE",
"390 321 CURVE SMOOTH",
"390 335 OFFCURVE",
"383 342 OFFCURVE",
"369 342 CURVE SMOOTH",
"132 342 LINE",
"132 591 LINE",
"469 591 LINE SMOOTH",
"483 591 OFFCURVE",
"490 598 OFFCURVE",
"490 612 CURVE SMOOTH",
"490 626 OFFCURVE",
"483 633 OFFCURVE",
"469 633 CURVE SMOOTH",
"111 633 LINE SMOOTH",
"97 633 OFFCURVE",
"90 626 OFFCURVE",
"90 612 CURVE SMOOTH",
"90 21 LINE SMOOTH",
"90 7 OFFCURVE",
"97 0 OFFCURVE",
"111 0 CURVE SMOOTH"
);
}
);
width = 490;
},
{
anchors = (
{
name = bottom;
position = "{412, 0}";
},
{
name = top;
position = "{334, 678}";
}
);
background = {
paths = (
{
closed = 0;
nodes = (
"537 629 LINE",
"136 629 LINE",
"136 0 LINE"
);
},
{
closed = 0;
nodes = (
"136 336 LINE",
"419 336 LINE"
);
}
);
};
layerId = "9D2B49D7-8C02-48EB-8D57-D561CCF616AE";
paths = (
{
closed = 1;
nodes = (
"173 0 OFFCURVE",
"188 15 OFFCURVE",
"188 42 CURVE SMOOTH",
"188 300 LINE",
"389 300 LINE SMOOTH",
"415 300 OFFCURVE",
"431 315 OFFCURVE",
"431 342 CURVE SMOOTH",
"431 369 OFFCURVE",
"415 384 OFFCURVE",
"389 384 CURVE SMOOTH",
"188 384 LINE",
"188 594 LINE",
"514 594 LINE SMOOTH",
"540 594 OFFCURVE",
"556 609 OFFCURVE",
"556 636 CURVE SMOOTH",
"556 662 OFFCURVE",
"540 678 OFFCURVE",
"514 678 CURVE SMOOTH",
"146 678 LINE SMOOTH",
"119 678 OFFCURVE",
"104 662 OFFCURVE",
"104 636 CURVE SMOOTH",
"104 42 LINE SMOOTH",
"104 15 OFFCURVE",
"119 0 OFFCURVE",
"146 0 CURVE SMOOTH"
);
}
);
width = 556;
}
);
leftKerningGroup = H;
leftMetricsKey = H;
rightKerningGroup = F;
unicode = 0046;
},
{
color = 10;
glyphname = G;
lastChange = "2024-11-18 10:37:41 +0000";
layers = (
{
anchors = (
{
name = bottom;
position = "{333, 0}";
},
{
name = top;
position = "{333, 633}";
}
);
layerId = "C9A88445-F9B1-43BF-9834-532EB19954E9";
paths = (
{
closed = 1;
nodes = (
"403 0 LINE SMOOTH",
"532 0 OFFCURVE",
"586 54 OFFCURVE",
"586 183 CURVE SMOOTH",
"586 272 LINE SMOOTH",
"586 286 OFFCURVE",
"579 293 OFFCURVE",
"565 293 CURVE SMOOTH",
"424 294 LINE SMOOTH",
"410 294 OFFCURVE",
"403 287 OFFCURVE",
"403 273 CURVE SMOOTH",
"403 259 OFFCURVE",
"410 252 OFFCURVE",
"424 252 CURVE SMOOTH",
"544 251 LINE",
"544 183 LINE SMOOTH",
"544 77 OFFCURVE",
"509 42 OFFCURVE",
"403 42 CURVE SMOOTH",
"283 42 LINE SMOOTH",
"165 42 OFFCURVE",
"122 85 OFFCURVE",
"122 203 CURVE SMOOTH",
"122 430 LINE SMOOTH",
"122 549 OFFCURVE",
"164 591 OFFCURVE",
"282 591 CURVE SMOOTH",
"403 591 LINE SMOOTH",
"501 591 OFFCURVE",
"539 561 OFFCURVE",
"543 471 CURVE SMOOTH",
"544 457 OFFCURVE",
"551 450 OFFCURVE",
"565 450 CURVE SMOOTH",
"579 450 OFFCURVE",
"586 458 OFFCURVE",
"585 472 CURVE SMOOTH",
"580 585 OFFCURVE",
"525 633 OFFCURVE",
"403 633 CURVE SMOOTH",
"282 633 LINE SMOOTH",
"141 633 OFFCURVE",
"80 573 OFFCURVE",
"80 430 CURVE SMOOTH",
"80 203 LINE SMOOTH",
"80 61 OFFCURVE",
"141 0 OFFCURVE",
"283 0 CURVE SMOOTH"
);
}
);
width = 656;
},
{
anchors = (
{
name = bottom;
position = "{372, 0}";
},
{
name = top;
position = "{365, 678}";
}
);
background = {
paths = (
{
closed = 0;
nodes = (
"418 288 LINE",
"580 287 LINE",
"580 198 LINE",
"580 79 OFFCURVE",
"534 36 OFFCURVE",
"418 36 CURVE",
"298 36 LINE",
"168 36 OFFCURVE",
"116 88 OFFCURVE",
"116 218 CURVE",
"116 447 LINE",
"116 578 OFFCURVE",
"168 630 OFFCURVE",
"297 629 CURVE",
"418 629 LINE",
"534 629 OFFCURVE",
"580 586 OFFCURVE",
"580 467 CURVE"
);
}
);
};
layerId = "9D2B49D7-8C02-48EB-8D57-D561CCF616AE";
paths = (
{
closed = 1;
nodes = (
"424 0 LINE SMOOTH",
"564 0 OFFCURVE",
"628 62 OFFCURVE",
"628 204 CURVE SMOOTH",
"628 293 LINE SMOOTH",
"628 320 OFFCURVE",
"613 335 OFFCURVE",
"586 335 CURVE SMOOTH",
"466 336 LINE SMOOTH",
"439 336 OFFCURVE",
"424 321 OFFCURVE",
"424 294 CURVE SMOOTH",
"424 267 OFFCURVE",
"438 252 OFFCURVE",
"466 252 CURVE SMOOTH",
"544 251 LINE",
"544 204 LINE SMOOTH",
"544 109 OFFCURVE",
"517 84 OFFCURVE",
"424 84 CURVE SMOOTH",
"304 84 LINE SMOOTH",
"197 84 OFFCURVE",
"164 117 OFFCURVE",
"164 224 CURVE SMOOTH",
"164 454 LINE SMOOTH",
"164 562 OFFCURVE",
"197 595 OFFCURVE",
"303 594 CURVE SMOOTH",
"424 594 LINE SMOOTH",
"502 594 OFFCURVE",
"534 577 OFFCURVE",
"541 516 CURVE SMOOTH",
"545 488 OFFCURVE",
"558 474 OFFCURVE",
"585 474 CURVE SMOOTH",
"613 474 OFFCURVE",
"629 489 OFFCURVE",
"625 517 CURVE SMOOTH",
"614 628 OFFCURVE",
"549 678 OFFCURVE",
"424 678 CURVE SMOOTH",
"303 678 LINE SMOOTH",
"151 679 OFFCURVE",
"80 608 OFFCURVE",
"80 454 CURVE SMOOTH",
"80 224 LINE SMOOTH",
"80 71 OFFCURVE",
"151 0 OFFCURVE",
"304 0 CURVE SMOOTH"
);
}
);
width = 699;
}
);
leftKerningGroup = O;
leftMetricsKey = O;
rightKerningGroup = C;
rightMetricsKey = C;
unicode = 0047;
},
{
color = 10;
glyphname = H;
lastChange = "2024-11-18 10:37:41 +0000";
layers = (
{
anchors = (
{
name = bottom;
position = "{344, 0}";
},
{
name = center;
position = "{344, 461}";
},
{
name = top;
position = "{344, 633}";
},
{
name = topleft;
position = "{90, 633}";
}
);
layerId = "C9A88445-F9B1-43BF-9834-532EB19954E9";
paths = (
{
closed = 1;
nodes = (
"125 0 OFFCURVE",
"132 7 OFFCURVE",
"132 21 CURVE SMOOTH",
"132 300 LINE",
"555 300 LINE",
"555 21 LINE SMOOTH",
"555 7 OFFCURVE",
"562 0 OFFCURVE",
"576 0 CURVE SMOOTH",
"590 0 OFFCURVE",
"597 7 OFFCURVE",
"597 21 CURVE SMOOTH",
"597 612 LINE SMOOTH",
"597 626 OFFCURVE",
"590 633 OFFCURVE",
"576 633 CURVE SMOOTH",
"562 633 OFFCURVE",
"555 626 OFFCURVE",
"555 612 CURVE SMOOTH",
"555 342 LINE",
"132 342 LINE",
"132 612 LINE SMOOTH",
"132 626 OFFCURVE",
"125 633 OFFCURVE",
"111 633 CURVE SMOOTH",
"97 633 OFFCURVE",
"90 626 OFFCURVE",
"90 612 CURVE SMOOTH",
"90 21 LINE SMOOTH",
"90 7 OFFCURVE",
"97 0 OFFCURVE",
"111 0 CURVE SMOOTH"
);
}
);
width = 687;
},
{
anchors = (
{
name = bottom;
position = "{392, 0}";
},
{
name = center;
position = "{392, 513}";
},
{
name = top;
position = "{392, 678}";
},
{
name = topleft;
position = "{104, 678}";
}
);
layerId = "9D2B49D7-8C02-48EB-8D57-D561CCF616AE";
paths = (
{
closed = 1;
nodes = (
"168 0 OFFCURVE",
"188 20 OFFCURVE",
"188 42 CURVE SMOOTH",
"188 301 LINE",
"596 301 LINE",
"596 42 LINE SMOOTH",
"596 20 OFFCURVE",
"615 0 OFFCURVE",
"638 0 CURVE SMOOTH",
"660 0 OFFCURVE",
"680 20 OFFCURVE",
"680 42 CURVE SMOOTH",
"680 636 LINE SMOOTH",
"680 658 OFFCURVE",
"660 678 OFFCURVE",
"638 678 CURVE SMOOTH",
"615 678 OFFCURVE",
"596 658 OFFCURVE",
"596 636 CURVE SMOOTH",
"596 385 LINE",
"188 385 LINE",
"188 636 LINE SMOOTH",
"188 658 OFFCURVE",
"168 678 OFFCURVE",
"146 678 CURVE SMOOTH",
"124 678 OFFCURVE",
"104 658 OFFCURVE",
"104 636 CURVE SMOOTH",
"104 42 LINE SMOOTH",
"104 20 OFFCURVE",
"124 0 OFFCURVE",
"146 0 CURVE SMOOTH"
);
}
);
width = 784;
}
);
leftKerningGroup = H;
rightKerningGroup = H;
unicode = 0048;
},
{
color = 10;
glyphname = I;
lastChange = "2024-11-18 10:37:41 +0000";
layers = (
{
anchors = (
{
name = bottom;
position = "{111, 0}";
},
{
name = ogonek;
position = "{111, 0}";
},
{
name = top;
position = "{111, 633}";
},
{
name = topleft;
position = "{90, 633}";
}
);
layerId = "C9A88445-F9B1-43BF-9834-532EB19954E9";
paths = (
{
closed = 1;
nodes = (
"123 0 OFFCURVE",
"132 9 OFFCURVE",
"132 21 CURVE SMOOTH",
"132 613 LINE SMOOTH",
"132 625 OFFCURVE",
"123 634 OFFCURVE",
"111 634 CURVE SMOOTH",
"99 634 OFFCURVE",
"90 625 OFFCURVE",
"90 613 CURVE SMOOTH",
"90 21 LINE SMOOTH",
"90 9 OFFCURVE",
"99 0 OFFCURVE",
"111 0 CURVE SMOOTH"
);
}
);
width = 222;
},
{
anchors = (
{
name = bottom;
position = "{146, 0}";
},
{
name = ogonek;
position = "{118, 7}";
},
{
name = top;
position = "{146, 678}";
},
{
name = topleft;
position = "{104, 678}";
}
);
layerId = "9D2B49D7-8C02-48EB-8D57-D561CCF616AE";
paths = (
{
closed = 1;
nodes = (
"175 0 OFFCURVE",
"188 13 OFFCURVE",
"188 42 CURVE SMOOTH",
"188 635 LINE SMOOTH",
"188 664 OFFCURVE",
"175 677 OFFCURVE",
"146 677 CURVE SMOOTH",
"117 677 OFFCURVE",
"104 664 OFFCURVE",
"104 635 CURVE SMOOTH",
"104 42 LINE SMOOTH",
"104 13 OFFCURVE",
"117 0 OFFCURVE",
"146 0 CURVE SMOOTH"
);
}
);
width = 292;
}
);
leftKerningGroup = H;
leftMetricsKey = H;
rightKerningGroup = H;
rightMetricsKey = H;
unicode = 0049;
},
{
color = 9;
glyphname = Iacute_J.loclNLD;
lastChange = "2024-11-18 08:40:00 +0000";
layers = (
{
layerId = "C9A88445-F9B1-43BF-9834-532EB19954E9";
paths = (
{
closed = 1;
nodes = (
"300 0 LINE SMOOTH",
"429 0 OFFCURVE",
"483 54 OFFCURVE",
"483 183 CURVE SMOOTH",
"483 612 LINE SMOOTH",
"483 626 OFFCURVE",
"476 633 OFFCURVE",
"462 633 CURVE SMOOTH",
"448 633 OFFCURVE",
"441 626 OFFCURVE",
"441 612 CURVE SMOOTH",
"441 183 LINE SMOOTH",
"441 77 OFFCURVE",
"406 42 OFFCURVE",
"300 42 CURVE SMOOTH",
"273 42 LINE SMOOTH",
"175 42 OFFCURVE",
"137 72 OFFCURVE",
"133 162 CURVE SMOOTH",
"132 176 OFFCURVE",
"125 183 OFFCURVE",
"111 183 CURVE SMOOTH",
"97 183 OFFCURVE",
"90 175 OFFCURVE",
"91 161 CURVE SMOOTH",
"96 48 OFFCURVE",
"151 0 OFFCURVE",
"273 0 CURVE SMOOTH"
);
},
{
closed = 1;
nodes = (
"125 249 OFFCURVE",
"134 258 OFFCURVE",
"134 270 CURVE SMOOTH",
"134 613 LINE SMOOTH",
"134 625 OFFCURVE",
"125 634 OFFCURVE",
"113 634 CURVE SMOOTH",
"101 634 OFFCURVE",
"92 625 OFFCURVE",
"92 613 CURVE SMOOTH",
"92 270 LINE SMOOTH",
"92 258 OFFCURVE",
"101 249 OFFCURVE",
"113 249 CURVE SMOOTH"
);
},
{
closed = 1;
nodes = (
"109 686 OFFCURVE",
"120 687 OFFCURVE",
"129 698 CURVE SMOOTH",
"219 804 LINE SMOOTH",
"227 815 OFFCURVE",
"226 825 OFFCURVE",
"216 834 CURVE SMOOTH",
"206 843 OFFCURVE",
"195 842 OFFCURVE",
"186 831 CURVE SMOOTH",
"96 725 LINE SMOOTH",
"88 714 OFFCURVE",
"89 704 OFFCURVE",
"99 695 CURVE SMOOTH"
);
},
{
closed = 1;
nodes = (
"460 686 OFFCURVE",
"471 687 OFFCURVE",
"480 698 CURVE SMOOTH",
"570 804 LINE SMOOTH",
"578 815 OFFCURVE",
"577 825 OFFCURVE",
"567 834 CURVE SMOOTH",
"557 843 OFFCURVE",
"546 842 OFFCURVE",
"537 831 CURVE SMOOTH",
"447 725 LINE SMOOTH",
"439 714 OFFCURVE",
"440 704 OFFCURVE",
"450 695 CURVE SMOOTH"
);
}
);
width = 595;
},
{
layerId = "9D2B49D7-8C02-48EB-8D57-D561CCF616AE";
paths = (
{
closed = 1;
nodes = (
"391 0 LINE SMOOTH",
"532 0 OFFCURVE",
"595 62 OFFCURVE",
"595 204 CURVE SMOOTH",
"595 636 LINE SMOOTH",
"595 662 OFFCURVE",
"580 678 OFFCURVE",
"553 678 CURVE SMOOTH",
"525 678 OFFCURVE",
"511 662 OFFCURVE",
"511 636 CURVE SMOOTH",
"511 204 LINE SMOOTH",
"511 109 OFFCURVE",
"485 84 OFFCURVE",
"391 84 CURVE SMOOTH",
"308 84 LINE SMOOTH",
"230 84 OFFCURVE",
"199 101 OFFCURVE",
"189 162 CURVE SMOOTH",
"187 190 OFFCURVE",
"173 204 OFFCURVE",
"146 204 CURVE SMOOTH",
"120 204 OFFCURVE",
"103 189 OFFCURVE",
"105 161 CURVE SMOOTH",
"119 49 OFFCURVE",
"182 0 OFFCURVE",
"308 0 CURVE SMOOTH"
);
},
{
closed = 1;
nodes = (
"174 248 OFFCURVE",
"188 261 OFFCURVE",
"188 290 CURVE SMOOTH",
"188 635 LINE SMOOTH",
"188 664 OFFCURVE",
"174 677 OFFCURVE",
"146 677 CURVE SMOOTH",
"117 677 OFFCURVE",
"104 664 OFFCURVE",
"104 635 CURVE SMOOTH",
"104 290 LINE SMOOTH",
"104 261 OFFCURVE",
"117 248 OFFCURVE",
"146 248 CURVE SMOOTH"
);
},
{
closed = 1;
nodes = (
"146 707 OFFCURVE",
"164 708 OFFCURVE",
"178 726 CURVE SMOOTH",
"252 814 LINE SMOOTH",
"267 832 OFFCURVE",
"266 850 OFFCURVE",
"247 865 CURVE SMOOTH",
"229 879 OFFCURVE",
"211 878 OFFCURVE",
"196 860 CURVE SMOOTH",
"123 773 LINE SMOOTH",
"108 755 OFFCURVE",
"109 736 OFFCURVE",
"127 722 CURVE SMOOTH"
);
},
{
closed = 1;
nodes = (
"565 707 OFFCURVE",
"583 708 OFFCURVE",
"598 726 CURVE SMOOTH",
"671 814 LINE SMOOTH",
"686 832 OFFCURVE",
"685 850 OFFCURVE",
"667 865 CURVE SMOOTH",
"648 879 OFFCURVE",
"630 878 OFFCURVE",
"616 860 CURVE SMOOTH",
"543 773 LINE SMOOTH",
"528 755 OFFCURVE",
"529 736 OFFCURVE",
"547 722 CURVE SMOOTH"
);
}
);
width = 663;
}
);
leftKerningGroup = H;
leftMetricsKey = H;
rightKerningGroup = U;
},
{
color = 10;
glyphname = J;
lastChange = "2024-11-18 10:37:41 +0000";
layers = (
{
anchors = (
{
name = bottom;
position = "{219, 0}";
},
{
name = top;
position = "{391, 633}";
}
);
layerId = "C9A88445-F9B1-43BF-9834-532EB19954E9";
paths = (
{
closed = 1;
nodes = (
"231 0 LINE SMOOTH",
"360 0 OFFCURVE",
"414 54 OFFCURVE",
"414 183 CURVE SMOOTH",
"414 612 LINE SMOOTH",
"414 626 OFFCURVE",
"407 633 OFFCURVE",
"393 633 CURVE SMOOTH",
"379 633 OFFCURVE",
"372 626 OFFCURVE",
"372 612 CURVE SMOOTH",
"372 183 LINE SMOOTH",
"372 77 OFFCURVE",
"337 42 OFFCURVE",
"231 42 CURVE SMOOTH",
"204 42 LINE SMOOTH",
"106 42 OFFCURVE",
"68 72 OFFCURVE",
"64 162 CURVE SMOOTH",
"63 176 OFFCURVE",
"56 183 OFFCURVE",
"42 183 CURVE SMOOTH",
"28 183 OFFCURVE",
"21 175 OFFCURVE",
"22 161 CURVE SMOOTH",
"27 48 OFFCURVE",
"82 0 OFFCURVE",
"204 0 CURVE SMOOTH"
);
}
);
width = 499;
},
{
anchors = (
{
name = bottom;
position = "{283, 0}";
},
{
name = top;
position = "{481, 678}";
}
);
background = {
paths = (
{
closed = 0;
nodes = (
"65 198 LINE",
"65 79 OFFCURVE",
"111 36 OFFCURVE",
"227 36 CURVE",
"294 36 LINE",
"410 36 OFFCURVE",
"456 79 OFFCURVE",
"456 198 CURVE",
"456 665 LINE"
);
}
);
};
layerId = "9D2B49D7-8C02-48EB-8D57-D561CCF616AE";
paths = (
{
closed = 1;
nodes = (
"319 0 LINE SMOOTH",
"459 0 OFFCURVE",
"523 63 OFFCURVE",
"523 204 CURVE SMOOTH",
"523 636 LINE SMOOTH",
"523 663 OFFCURVE",
"508 678 OFFCURVE",
"481 678 CURVE SMOOTH",
"453 678 OFFCURVE",
"439 663 OFFCURVE",
"439 636 CURVE SMOOTH",
"439 204 LINE SMOOTH",
"439 110 OFFCURVE",
"412 84 OFFCURVE",
"319 84 CURVE SMOOTH",
"236 84 LINE SMOOTH",
"157 84 OFFCURVE",
"126 101 OFFCURVE",
"118 162 CURVE SMOOTH",
"115 190 OFFCURVE",
"102 204 OFFCURVE",
"75 204 CURVE SMOOTH",
"47 204 OFFCURVE",
"31 188 OFFCURVE",
"34 160 CURVE SMOOTH",
"46 50 OFFCURVE",
"111 0 OFFCURVE",
"236 0 CURVE SMOOTH"
);
}
);
width = 622;
}
);
leftKerningGroup = J;
rightKerningGroup = U;
rightMetricsKey = U;
unicode = 004A;
},
{
color = 10;
glyphname = K;
lastChange = "2024-11-18 10:37:41 +0000";
layers = (
{
anchors = (
{
name = bottom;
position = "{273, 0}";
},
{
name = top;
position = "{263, 633}";
}
);
layerId = "C9A88445-F9B1-43BF-9834-532EB19954E9";
paths = (
{
closed = 1;
nodes = (
"125 0 OFFCURVE",
"132 7 OFFCURVE",
"132 21 CURVE SMOOTH",
"132 247 LINE",
"216 333 LINE",
"481 4 LINE SMOOTH",
"489 -6 OFFCURVE",
"499 -8 OFFCURVE",
"510 1 CURVE SMOOTH",
"521 10 OFFCURVE",
"522 20 OFFCURVE",
"513 31 CURVE SMOOTH",
"245 363 LINE",
"473 596 LINE SMOOTH",
"482 606 OFFCURVE",
"482 617 OFFCURVE",
"472 626 CURVE SMOOTH",
"462 636 OFFCURVE",
"452 635 OFFCURVE",
"443 626 CURVE SMOOTH",
"132 308 LINE",
"132 612 LINE SMOOTH",
"132 626 OFFCURVE",
"125 633 OFFCURVE",
"111 633 CURVE SMOOTH",
"97 633 OFFCURVE",
"90 626 OFFCURVE",
"90 612 CURVE SMOOTH",
"90 21 LINE SMOOTH",
"90 7 OFFCURVE",
"97 0 OFFCURVE",
"111 0 CURVE SMOOTH"
);
}
);
width = 539;
},
{
anchors = (
{
name = bottom;
position = "{293, 0}";
},
{
name = top;
position = "{297, 678}";
}
);
background = {
paths = (
{
closed = 0;
nodes = (
"136 665 LINE",
"136 0 LINE"
);
},
{
closed = 0;
nodes = (
"137 285 LINE",
"508 665 LINE"
);
},
{
closed = 0;
nodes = (
"230 380 LINE",
"535 1 LINE"
);
}
);
};
layerId = "9D2B49D7-8C02-48EB-8D57-D561CCF616AE";
paths = (
{
closed = 1;
nodes = (
"173 0 OFFCURVE",
"188 15 OFFCURVE",
"188 42 CURVE SMOOTH",
"188 278 LINE",
"232 323 LINE",
"476 20 LINE SMOOTH",
"493 -1 OFFCURVE",
"514 -3 OFFCURVE",
"535 14 CURVE SMOOTH",
"556 31 OFFCURVE",
"558 51 OFFCURVE",
"541 73 CURVE SMOOTH",
"291 385 LINE",
"503 604 LINE SMOOTH",
"522 623 OFFCURVE",
"522 644 OFFCURVE",
"502 663 CURVE SMOOTH",
"483 682 OFFCURVE",
"462 682 OFFCURVE",
"443 662 CURVE SMOOTH",
"188 399 LINE",
"188 636 LINE SMOOTH",
"188 663 OFFCURVE",
"173 678 OFFCURVE",
"146 678 CURVE SMOOTH",
"119 678 OFFCURVE",
"104 663 OFFCURVE",
"104 636 CURVE SMOOTH",
"104 42 LINE SMOOTH",
"104 15 OFFCURVE",
"119 0 OFFCURVE",
"146 0 CURVE SMOOTH"
);
}
);
width = 587;
}
);
leftKerningGroup = H;
leftMetricsKey = H;
rightKerningGroup = K;
unicode = 004B;
},
{
color = 10;
glyphname = L;
lastChange = "2024-11-18 10:37:41 +0000";
layers = (
{
anchors = (
{
name = bottom;
position = "{274, 0}";
},
{
name = center;
position = "{136, 317}";
},
{
name = top;
position = "{111, 633}";
},
{
name = topright;
position = "{212, 416}";
}
);
layerId = "C9A88445-F9B1-43BF-9834-532EB19954E9";
paths = (
{
closed = 1;
nodes = (
"445 0 LINE SMOOTH",
"459 0 OFFCURVE",
"466 7 OFFCURVE",
"466 21 CURVE SMOOTH",
"466 35 OFFCURVE",
"459 42 OFFCURVE",
"445 42 CURVE SMOOTH",
"132 42 LINE",
"132 612 LINE SMOOTH",
"132 626 OFFCURVE",
"125 633 OFFCURVE",
"111 633 CURVE SMOOTH",
"97 633 OFFCURVE",
"90 626 OFFCURVE",
"90 612 CURVE SMOOTH",
"90 21 LINE SMOOTH",
"90 7 OFFCURVE",
"97 0 OFFCURVE",
"111 0 CURVE SMOOTH"
);
}
);
width = 486;
},
{
anchors = (
{
name = bottom;
position = "{322, 0}";
},
{
name = center;
position = "{158, 314}";
},
{
name = top;
position = "{146, 678}";
},
{
name = topright;
position = "{240, 454}";
}
);
background = {
paths = (
{
closed = 0;
nodes = (
"136 629 LINE",
"136 36 LINE",
"459 36 LINE"
);
}
);
};
layerId = "9D2B49D7-8C02-48EB-8D57-D561CCF616AE";
paths = (
{
closed = 1;
nodes = (
"465 0 LINE SMOOTH",
"493 0 OFFCURVE",
"507 14 OFFCURVE",
"507 42 CURVE SMOOTH",
"507 70 OFFCURVE",
"493 84 OFFCURVE",
"465 84 CURVE SMOOTH",
"188 84 LINE",
"188 636 LINE SMOOTH",
"188 664 OFFCURVE",
"174 678 OFFCURVE",
"146 678 CURVE SMOOTH",
"118 678 OFFCURVE",
"104 664 OFFCURVE",
"104 636 CURVE SMOOTH",
"104 42 LINE SMOOTH",
"104 14 OFFCURVE",
"118 0 OFFCURVE",
"146 0 CURVE SMOOTH"
);
}
);
width = 541;
}
);
leftKerningGroup = H;
leftMetricsKey = H;
rightKerningGroup = L;
unicode = 004C;
},
{
color = 10;
glyphname = M;
lastChange = "2024-11-18 10:37:41 +0000";
layers = (
{
anchors = (
{
name = bottom;
position = "{384, 0}";
},
{
name = top;
position = "{384, 633}";
}
);
layerId = "C9A88445-F9B1-43BF-9834-532EB19954E9";
paths = (
{
closed = 1;
nodes = (
"125 0 OFFCURVE",
"132 7 OFFCURVE",
"132 21 CURVE SMOOTH",
"132 561 LINE",
"121 566 LINE",
"359 200 LINE SMOOTH",
"365 190 OFFCURVE",
"373 186 OFFCURVE",
"384 186 CURVE SMOOTH",
"395 186 OFFCURVE",
"403 190 OFFCURVE",
"409 200 CURVE SMOOTH",
"647 566 LINE",
"635 570 LINE",
"635 21 LINE SMOOTH",
"635 7 OFFCURVE",
"642 0 OFFCURVE",
"656 0 CURVE SMOOTH",
"670 0 OFFCURVE",
"677 7 OFFCURVE",
"677 21 CURVE SMOOTH",
"677 612 LINE SMOOTH",
"677 626 OFFCURVE",
"670 633 OFFCURVE",
"657 633 CURVE SMOOTH",
"646 633 OFFCURVE",
"638 629 OFFCURVE",
"632 619 CURVE SMOOTH",
"379 229 LINE",
"389 230 LINE",
"136 619 LINE SMOOTH",
"130 629 OFFCURVE",
"122 633 OFFCURVE",
"111 633 CURVE SMOOTH",
"97 633 OFFCURVE",
"90 626 OFFCURVE",
"90 612 CURVE SMOOTH",
"90 21 LINE SMOOTH",
"90 7 OFFCURVE",
"97 0 OFFCURVE",
"111 0 CURVE SMOOTH"
);
}
);
width = 767;
},
{
anchors = (
{
name = bottom;
position = "{422, 0}";
},
{
name = top;
position = "{422, 678}";
}
);
background = {
paths = (
{
closed = 0;
nodes = (
"136 0 LINE",
"136 629 LINE",
"141 629 LINE",
"404 237 LINE",
"414 237 LINE",
"677 629 LINE",
"681 629 LINE",
"681 0 LINE"
);
}
);
};
layerId = "9D2B49D7-8C02-48EB-8D57-D561CCF616AE";
paths = (
{
closed = 1;
nodes = (
"173 0 OFFCURVE",
"188 15 OFFCURVE",
"188 42 CURVE SMOOTH",
"188 536 LINE",
"163 543 LINE",
"373 234 LINE SMOOTH",
"386 215 OFFCURVE",
"398 207 OFFCURVE",
"414 207 CURVE SMOOTH",
"437 207 OFFCURVE",
"452 215 OFFCURVE",
"465 234 CURVE SMOOTH",
"675 543 LINE",
"649 552 LINE",
"649 42 LINE SMOOTH",
"649 15 OFFCURVE",
"664 0 OFFCURVE",
"691 0 CURVE SMOOTH",
"718 0 OFFCURVE",
"733 15 OFFCURVE",
"733 42 CURVE SMOOTH",
"733 636 LINE SMOOTH",
"733 663 OFFCURVE",
"722 678 OFFCURVE",
"699 678 CURVE SMOOTH",
"676 678 OFFCURVE",
"660 670 OFFCURVE",
"648 651 CURVE SMOOTH",
"410 293 LINE",
"428 296 LINE",
"192 651 LINE SMOOTH",
"179 670 OFFCURVE",
"165 678 OFFCURVE",
"146 678 CURVE SMOOTH",
"119 678 OFFCURVE",
"104 663 OFFCURVE",
"104 636 CURVE SMOOTH",
"104 42 LINE SMOOTH",
"104 15 OFFCURVE",
"119 0 OFFCURVE",
"146 0 CURVE SMOOTH"
);
}
);
width = 837;
}
);
leftKerningGroup = H;
leftMetricsKey = H;
rightKerningGroup = H;
rightMetricsKey = H;
unicode = 004D;
},
{
color = 10;
glyphname = N;
lastChange = "2024-11-18 10:37:41 +0000";
layers = (
{
anchors = (
{
name = bottom;
position = "{353, 0}";
},
{
name = top;
position = "{353, 633}";
}
);
layerId = "C9A88445-F9B1-43BF-9834-532EB19954E9";
paths = (
{
closed = 1;
nodes = (
"125 0 OFFCURVE",
"132 7 OFFCURVE",
"132 21 CURVE SMOOTH",
"132 565 LINE",
"123 565 LINE",
"554 12 LINE SMOOTH",
"561 4 OFFCURVE",
"567 0 OFFCURVE",
"576 0 CURVE SMOOTH",
"590 0 OFFCURVE",
"597 7 OFFCURVE",
"597 21 CURVE SMOOTH",
"597 612 LINE SMOOTH",
"597 626 OFFCURVE",
"590 633 OFFCURVE",
"576 633 CURVE SMOOTH",
"562 633 OFFCURVE",
"555 626 OFFCURVE",
"555 612 CURVE SMOOTH",
"555 68 LINE",
"564 68 LINE",
"133 621 LINE SMOOTH",
"126 629 OFFCURVE",
"120 633 OFFCURVE",
"111 633 CURVE SMOOTH",
"97 633 OFFCURVE",
"90 626 OFFCURVE",
"90 612 CURVE SMOOTH",
"90 21 LINE SMOOTH",
"90 7 OFFCURVE",
"97 0 OFFCURVE",
"111 0 CURVE SMOOTH"
);
}
);
width = 687;
},
{
anchors = (
{
name = bottom;
position = "{375, 0}";
},
{
name = top;
position = "{375, 678}";
}
);
background = {
paths = (
{
closed = 0;
nodes = (
"111 0 LINE",
"111 629 LINE",
"113 629 LINE",
"574 36 LINE",
"576 36 LINE",
"576 665 LINE"
);
}
);
};
layerId = "9D2B49D7-8C02-48EB-8D57-D561CCF616AE";
paths = (
{
closed = 1;
nodes = (
"173 0 OFFCURVE",
"188 15 OFFCURVE",
"188 42 CURVE SMOOTH",
"188 543 LINE",
"167 543 LINE",
"569 25 LINE SMOOTH",
"583 7 OFFCURVE",
"595 0 OFFCURVE",
"611 0 CURVE SMOOTH",
"638 0 OFFCURVE",
"653 15 OFFCURVE",
"653 42 CURVE SMOOTH",
"653 636 LINE SMOOTH",
"653 663 OFFCURVE",
"638 678 OFFCURVE",
"611 678 CURVE SMOOTH",
"584 678 OFFCURVE",
"569 663 OFFCURVE",
"569 636 CURVE SMOOTH",
"569 135 LINE",
"590 135 LINE",
"188 653 LINE SMOOTH",
"174 670 OFFCURVE",
"162 678 OFFCURVE",
"146 678 CURVE SMOOTH",
"119 678 OFFCURVE",
"104 663 OFFCURVE",
"104 636 CURVE SMOOTH",
"104 42 LINE SMOOTH",
"104 15 OFFCURVE",
"119 0 OFFCURVE",
"146 0 CURVE SMOOTH"
);
}
);
width = 757;
}
);
leftKerningGroup = H;
leftMetricsKey = H;
rightKerningGroup = H;
rightMetricsKey = H;
unicode = 004E;
},
{
color = 9;
glyphname = Eng;
lastChange = "2024-11-18 08:40:00 +0000";
layers = (
{
anchors = (
{
name = bottom;
position = "{353, 0}";
},
{
name = top;
position = "{353, 633}";
}
);
layerId = "C9A88445-F9B1-43BF-9834-532EB19954E9";
paths = (
{
closed = 1;
nodes = (
"474 -200 LINE SMOOTH",
"559 -200 OFFCURVE",
"597 -162 OFFCURVE",
"597 -77 CURVE SMOOTH",
"597 612 LINE SMOOTH",
"597 626 OFFCURVE",
"590 633 OFFCURVE",
"576 633 CURVE SMOOTH",
"562 633 OFFCURVE",
"555 626 OFFCURVE",
"555 612 CURVE SMOOTH",
"555 80 LINE",
"133 621 LINE",
"126 629 OFFCURVE",
"120 633 OFFCURVE",
"111 633 CURVE SMOOTH",
"97 633 OFFCURVE",
"90 626 OFFCURVE",
"90 612 CURVE SMOOTH",
"90 21 LINE SMOOTH",
"90 7 OFFCURVE",
"97 0 OFFCURVE",
"111 0 CURVE SMOOTH",
"125 0 OFFCURVE",
"132 7 OFFCURVE",
"132 21 CURVE SMOOTH",
"132 554 LINE",
"555 11 LINE",
"555 -77 LINE SMOOTH",
"555 -139 OFFCURVE",
"536 -158 OFFCURVE",
"474 -158 CURVE SMOOTH",
"365 -158 LINE SMOOTH",
"311 -158 OFFCURVE",
"289 -144 OFFCURVE",
"285 -98 CURVE SMOOTH",
"284 -84 OFFCURVE",
"277 -77 OFFCURVE",
"263 -77 CURVE SMOOTH",
"250 -77 OFFCURVE",
"242 -85 OFFCURVE",
"243 -99 CURVE SMOOTH",
"248 -169 OFFCURVE",
"287 -200 OFFCURVE",
"365 -200 CURVE SMOOTH"
);
}
);
width = 687;
},
{
anchors = (
{
name = bottom;
position = "{375, 0}";
},
{
name = top;
position = "{375, 678}";
}
);
layerId = "9D2B49D7-8C02-48EB-8D57-D561CCF616AE";
paths = (
{
closed = 1;
nodes = (
"509 -200 LINE SMOOTH",
"607 -200 OFFCURVE",
"653 -154 OFFCURVE",
"653 -56 CURVE SMOOTH",
"653 636 LINE SMOOTH",
"653 663 OFFCURVE",
"638 678 OFFCURVE",
"611 678 CURVE SMOOTH",
"584 678 OFFCURVE",
"569 663 OFFCURVE",
"569 636 CURVE SMOOTH",
"569 162 LINE",
"188 653 LINE SMOOTH",
"175 671 OFFCURVE",
"162 678 OFFCURVE",
"146 678 CURVE SMOOTH",
"119 678 OFFCURVE",
"104 663 OFFCURVE",
"104 636 CURVE SMOOTH",
"104 42 LINE SMOOTH",
"104 15 OFFCURVE",
"119 0 OFFCURVE",
"146 0 CURVE SMOOTH",
"173 0 OFFCURVE",
"188 15 OFFCURVE",
"188 42 CURVE SMOOTH",
"188 516 LINE",
"569 25 LINE",
"569 -56 LINE SMOOTH",
"569 -105 OFFCURVE",
"558 -116 OFFCURVE",
"509 -116 CURVE SMOOTH",
"390 -116 LINE SMOOTH",
"357 -116 OFFCURVE",
"343 -112 OFFCURVE",
"334 -97 CURVE SMOOTH",
"320 -72 OFFCURVE",
"316 -56 OFFCURVE",
"291 -56 CURVE SMOOTH",
"261 -56 OFFCURVE",
"245 -72 OFFCURVE",
"250 -100 CURVE SMOOTH",
"262 -168 OFFCURVE",
"309 -200 OFFCURVE",
"390 -200 CURVE SMOOTH"
);
}
);
width = 757;
}
);
leftKerningGroup = H;
leftMetricsKey = N;
rightKerningGroup = H;
rightMetricsKey = N;
unicode = 014A;
},
{
color = 10;
glyphname = O;
lastChange = "2024-11-18 10:37:41 +0000";
layers = (
{
anchors = (
{
name = bottom;
position = "{343, 0}";
},
{
name = center;
position = "{343, 317}";
},
{
name = ogonek;
position = "{508, 20}";
},
{
name = top;
position = "{343, 633}";
},
{
name = topleft;
position = "{80, 633}";
},
{
name = topright;
position = "{533, 604}";
}
);
layerId = "C9A88445-F9B1-43BF-9834-532EB19954E9";
paths = (
{
closed = 1;
nodes = (
"403 0 LINE SMOOTH",
"545 0 OFFCURVE",
"606 61 OFFCURVE",
"606 203 CURVE SMOOTH",
"606 430 LINE SMOOTH",
"606 572 OFFCURVE",
"545 633 OFFCURVE",
"403 633 CURVE SMOOTH",
"282 633 LINE SMOOTH",
"141 634 OFFCURVE",
"80 573 OFFCURVE",
"80 430 CURVE SMOOTH",
"80 203 LINE SMOOTH",
"80 61 OFFCURVE",
"141 0 OFFCURVE",
"283 0 CURVE SMOOTH"
);
},
{
closed = 1;
nodes = (
"165 42 OFFCURVE",
"122 85 OFFCURVE",
"122 203 CURVE SMOOTH",
"122 430 LINE SMOOTH",
"122 549 OFFCURVE",
"164 592 OFFCURVE",
"282 591 CURVE SMOOTH",
"403 591 LINE SMOOTH",
"521 591 OFFCURVE",
"564 548 OFFCURVE",
"564 430 CURVE SMOOTH",
"564 203 LINE SMOOTH",
"564 85 OFFCURVE",
"521 42 OFFCURVE",
"403 42 CURVE SMOOTH",
"283 42 LINE SMOOTH"
);
}
);
width = 686;
},
{
anchors = (
{
name = bottom;
position = "{353, 0}";
},
{
name = center;
position = "{353, 339}";
},
{
name = ogonek;
position = "{472, 20}";
},
{
name = top;
position = "{364, 678}";
},
{
name = topleft;
position = "{80, 678}";
},
{
name = topright;
position = "{575, 611}";
}
);
background = {
paths = (
{
closed = 1;
nodes = (
"548 36 OFFCURVE",
"600 88 OFFCURVE",
"600 218 CURVE",
"600 447 LINE",
"600 577 OFFCURVE",
"548 629 OFFCURVE",
"418 629 CURVE",
"298 629 LINE",
"169 630 OFFCURVE",
"116 579 OFFCURVE",
"116 448 CURVE",
"116 218 LINE",
"116 88 OFFCURVE",
"168 36 OFFCURVE",
"298 36 CURVE",
"418 36 LINE"
);
}
);
};
layerId = "9D2B49D7-8C02-48EB-8D57-D561CCF616AE";
paths = (
{
closed = 1;
nodes = (
"424 0 LINE SMOOTH",
"577 0 OFFCURVE",
"648 71 OFFCURVE",
"648 224 CURVE SMOOTH",
"648 454 LINE SMOOTH",
"648 607 OFFCURVE",
"577 678 OFFCURVE",
"424 678 CURVE SMOOTH",
"304 678 LINE SMOOTH",
"152 679 OFFCURVE",
"80 609 OFFCURVE",
"80 455 CURVE SMOOTH",
"80 224 LINE SMOOTH",
"80 71 OFFCURVE",
"151 0 OFFCURVE",
"304 0 CURVE SMOOTH"
);
},
{
closed = 1;
nodes = (
"197 84 OFFCURVE",
"164 117 OFFCURVE",
"164 224 CURVE SMOOTH",
"164 455 LINE SMOOTH",
"164 562 OFFCURVE",
"198 595 OFFCURVE",
"304 594 CURVE SMOOTH",
"424 594 LINE SMOOTH",
"531 594 OFFCURVE",
"564 560 OFFCURVE",
"564 454 CURVE SMOOTH",
"564 224 LINE SMOOTH",
"564 117 OFFCURVE",
"531 84 OFFCURVE",
"424 84 CURVE SMOOTH",
"304 84 LINE SMOOTH"
);
}
);
width = 728;
}
);
leftKerningGroup = O;
rightKerningGroup = O;
unicode = 004F;
},
{
color = 9;
glyphname = OE;
lastChange = "2024-11-18 08:40:00 +0000";
layers = (
{
layerId = "C9A88445-F9B1-43BF-9834-532EB19954E9";
paths = (
{
closed = 1;
nodes = (
"752 0 LINE SMOOTH",
"766 0 OFFCURVE",
"773 7 OFFCURVE",
"773 21 CURVE SMOOTH",
"773 35 OFFCURVE",
"766 42 OFFCURVE",
"752 42 CURVE SMOOTH",
"463 42 LINE",
"463 300 LINE",
"634 300 LINE SMOOTH",
"648 300 OFFCURVE",
"655 307 OFFCURVE",
"655 321 CURVE SMOOTH",
"655 335 OFFCURVE",
"648 342 OFFCURVE",
"634 342 CURVE SMOOTH",
"463 342 LINE",
"463 591 LINE",
"752 591 LINE SMOOTH",
"766 591 OFFCURVE",
"773 598 OFFCURVE",
"773 612 CURVE SMOOTH",
"773 626 OFFCURVE",
"766 633 OFFCURVE",
"752 633 CURVE SMOOTH",
"282 633 LINE SMOOTH",
"141 633 OFFCURVE",
"80 573 OFFCURVE",
"80 430 CURVE SMOOTH",
"80 203 LINE SMOOTH",
"80 61 OFFCURVE",
"141 0 OFFCURVE",
"283 0 CURVE SMOOTH"
);
},
{
closed = 1;
nodes = (
"165 42 OFFCURVE",
"122 85 OFFCURVE",
"122 203 CURVE SMOOTH",
"122 430 LINE SMOOTH",
"122 549 OFFCURVE",
"164 591 OFFCURVE",
"282 591 CURVE SMOOTH",
"421 591 LINE",
"421 42 LINE",
"283 42 LINE SMOOTH"
);
}
);
width = 808;
},
{
layerId = "9D2B49D7-8C02-48EB-8D57-D561CCF616AE";
paths = (
{
closed = 1;
nodes = (
"793 0 LINE SMOOTH",
"819 0 OFFCURVE",
"835 15 OFFCURVE",
"835 42 CURVE SMOOTH",
"835 69 OFFCURVE",
"819 84 OFFCURVE",
"793 84 CURVE SMOOTH",
"504 84 LINE",
"504 300 LINE",
"675 300 LINE SMOOTH",
"701 300 OFFCURVE",
"717 315 OFFCURVE",
"717 342 CURVE SMOOTH",
"717 369 OFFCURVE",
"701 384 OFFCURVE",
"675 384 CURVE SMOOTH",
"504 384 LINE",
"504 594 LINE",
"793 594 LINE SMOOTH",
"819 594 OFFCURVE",
"835 609 OFFCURVE",
"835 636 CURVE SMOOTH",
"835 662 OFFCURVE",
"819 678 OFFCURVE",
"793 678 CURVE SMOOTH",
"304 678 LINE SMOOTH",
"152 678 OFFCURVE",
"80 609 OFFCURVE",
"80 455 CURVE SMOOTH",
"80 224 LINE SMOOTH",
"80 71 OFFCURVE",
"151 0 OFFCURVE",
"304 0 CURVE SMOOTH"
);
},
{
closed = 1;
nodes = (
"197 84 OFFCURVE",
"164 117 OFFCURVE",
"164 224 CURVE SMOOTH",
"164 455 LINE SMOOTH",
"164 562 OFFCURVE",
"198 594 OFFCURVE",
"304 594 CURVE SMOOTH",
"420 594 LINE",
"420 84 LINE",
"304 84 LINE SMOOTH"
);
}
);
width = 891;
}
);
leftKerningGroup = O;
leftMetricsKey = O;
rightKerningGroup = E;
rightMetricsKey = E;
unicode = 0152;
},
{
color = 10;
glyphname = P;
lastChange = "2024-11-18 10:37:41 +0000";
layers = (
{
anchors = (
{
name = bottom;
position = "{110, 0}";
},
{
name = top;
position = "{270, 633}";
}
);
layerId = "C9A88445-F9B1-43BF-9834-532EB19954E9";
paths = (
{
closed = 1;
nodes = (
"125 0 OFFCURVE",
"132 7 OFFCURVE",
"132 21 CURVE SMOOTH",
"132 267 LINE",
"345 267 LINE SMOOTH",
"456 267 OFFCURVE",
"513 324 OFFCURVE",
"513 435 CURVE SMOOTH",
"513 465 LINE SMOOTH",
"513 576 OFFCURVE",
"456 633 OFFCURVE",
"345 633 CURVE SMOOTH",
"111 633 LINE SMOOTH",
"97 633 OFFCURVE",
"90 626 OFFCURVE",
"90 612 CURVE SMOOTH",
"90 21 LINE SMOOTH",
"90 7 OFFCURVE",
"97 0 OFFCURVE",
"111 0 CURVE SMOOTH"
);
},
{
closed = 1;
nodes = (
"132 591 LINE",
"345 591 LINE SMOOTH",
"432 591 OFFCURVE",
"471 552 OFFCURVE",
"471 465 CURVE SMOOTH",
"471 435 LINE SMOOTH",
"471 348 OFFCURVE",
"432 309 OFFCURVE",
"345 309 CURVE SMOOTH",
"132 309 LINE"
);
}
);
width = 543;
},
{
anchors = (
{
name = bottom;
position = "{379, 0}";
},
{
name = top;
position = "{315, 678}";
}
);
background = {
paths = (
{
closed = 0;
nodes = (
"136 305 LINE",
"370 305 LINE",
"470 305 OFFCURVE",
"517 354 OFFCURVE",
"517 452 CURVE",
"517 482 LINE",
"517 580 OFFCURVE",
"470 629 OFFCURVE",
"370 629 CURVE",
"136 629 LINE",
"136 0 LINE"
);
}
);
};
layerId = "9D2B49D7-8C02-48EB-8D57-D561CCF616AE";
paths = (
{
closed = 1;
nodes = (
"173 0 OFFCURVE",
"188 15 OFFCURVE",
"188 42 CURVE SMOOTH",
"188 270 LINE",
"380 270 LINE SMOOTH",
"502 270 OFFCURVE",
"569 337 OFFCURVE",
"569 459 CURVE SMOOTH",
"569 489 LINE SMOOTH",
"569 611 OFFCURVE",
"502 678 OFFCURVE",
"380 678 CURVE SMOOTH",
"146 678 LINE SMOOTH",
"119 678 OFFCURVE",
"104 663 OFFCURVE",
"104 636 CURVE SMOOTH",
"104 42 LINE SMOOTH",
"104 15 OFFCURVE",
"119 0 OFFCURVE",
"146 0 CURVE SMOOTH"
);
},
{
closed = 1;
nodes = (
"188 594 LINE",
"380 594 LINE SMOOTH",
"456 594 OFFCURVE",
"485 564 OFFCURVE",
"485 489 CURVE SMOOTH",
"485 459 LINE SMOOTH",
"485 383 OFFCURVE",
"456 354 OFFCURVE",
"380 354 CURVE SMOOTH",
"188 354 LINE"
);
}
);
width = 613;
}
);
leftKerningGroup = H;
leftMetricsKey = H;
rightKerningGroup = P;
unicode = 0050;
},
{
color = 9;
glyphname = Thorn;
lastChange = "2024-11-18 08:40:00 +0000";
layers = (
{
layerId = "C9A88445-F9B1-43BF-9834-532EB19954E9";
paths = (
{
closed = 1;
nodes = (
"125 0 OFFCURVE",
"132 7 OFFCURVE",
"132 21 CURVE SMOOTH",
"132 178 LINE",
"297 178 LINE SMOOTH",
"408 178 OFFCURVE",
"465 235 OFFCURVE",
"465 346 CURVE SMOOTH",
"465 376 LINE SMOOTH",
"465 487 OFFCURVE",
"408 544 OFFCURVE",
"297 544 CURVE SMOOTH",
"132 544 LINE",
"132 612 LINE SMOOTH",
"132 626 OFFCURVE",
"125 633 OFFCURVE",
"111 633 CURVE SMOOTH",
"97 633 OFFCURVE",
"90 626 OFFCURVE",
"90 612 CURVE SMOOTH",
"90 21 LINE SMOOTH",
"90 7 OFFCURVE",
"97 0 OFFCURVE",
"111 0 CURVE SMOOTH"
);
},
{
closed = 1;
nodes = (
"132 502 LINE",
"297 502 LINE SMOOTH",
"384 502 OFFCURVE",
"423 463 OFFCURVE",
"423 376 CURVE SMOOTH",
"423 346 LINE SMOOTH",
"423 259 OFFCURVE",
"384 220 OFFCURVE",
"297 220 CURVE SMOOTH",
"132 220 LINE"
);
}
);
width = 495;
},
{
layerId = "9D2B49D7-8C02-48EB-8D57-D561CCF616AE";
paths = (
{
closed = 1;
nodes = (
"173 0 OFFCURVE",
"188 15 OFFCURVE",
"188 42 CURVE SMOOTH",
"188 167 LINE",
"332 167 LINE SMOOTH",
"454 167 OFFCURVE",
"521 234 OFFCURVE",
"521 356 CURVE SMOOTH",
"521 386 LINE SMOOTH",
"521 508 OFFCURVE",
"454 575 OFFCURVE",
"332 575 CURVE SMOOTH",
"188 575 LINE",
"188 636 LINE SMOOTH",
"188 662 OFFCURVE",
"173 678 OFFCURVE",
"146 678 CURVE SMOOTH",
"119 678 OFFCURVE",
"104 662 OFFCURVE",
"104 636 CURVE SMOOTH",
"104 42 LINE SMOOTH",
"104 15 OFFCURVE",
"119 0 OFFCURVE",
"146 0 CURVE SMOOTH"
);
},
{
closed = 1;
nodes = (
"188 491 LINE",
"332 491 LINE SMOOTH",
"408 491 OFFCURVE",
"437 462 OFFCURVE",
"437 386 CURVE SMOOTH",
"437 356 LINE SMOOTH",
"437 280 OFFCURVE",
"408 251 OFFCURVE",
"332 251 CURVE SMOOTH",
"188 251 LINE"
);
}
);
width = 565;
}
);
leftKerningGroup = H;
leftMetricsKey = H;
rightKerningGroup = P;
rightMetricsKey = P;
unicode = 00DE;
},
{
color = 10;
glyphname = Q;
lastChange = "2024-11-18 10:37:41 +0000";
layers = (
{
anchors = (
{
name = bottom;
position = "{343, 0}";
},
{
name = top;
position = "{343, 633}";
}
);
components = (
{
name = O;
}
);
layerId = "C9A88445-F9B1-43BF-9834-532EB19954E9";
paths = (
{
closed = 1;
nodes = (
"598 2 CURVE SMOOTH",
"477 125 LINE SMOOTH",
"467 135 OFFCURVE",
"457 135 OFFCURVE",
"447 125 CURVE SMOOTH",
"437 115 OFFCURVE",
"437 105 OFFCURVE",
"447 95 CURVE SMOOTH",
"568 -28 LINE SMOOTH",
"578 -38 OFFCURVE",
"588 -38 OFFCURVE",
"598 -28 CURVE SMOOTH",
"608 -18 OFFCURVE",
"608 -8 OFFCURVE"
);
}
);
width = 686;
},
{
anchors = (
{
name = bottom;
position = "{364, 0}";
},
{
name = top;
position = "{364, 678}";
}
);
background = {
paths = (
{
closed = 1;
nodes = (
"608 -18 OFFCURVE",
"608 -8 OFFCURVE",
"598 2 CURVE SMOOTH",
"477 125 LINE SMOOTH",
"467 135 OFFCURVE",
"457 135 OFFCURVE",
"447 125 CURVE SMOOTH",
"437 115 OFFCURVE",
"437 105 OFFCURVE",
"447 95 CURVE SMOOTH",
"568 -28 LINE SMOOTH",
"578 -38 OFFCURVE",
"588 -38 OFFCURVE",
"598 -28 CURVE SMOOTH"
);
}
);
};
components = (
{
name = O;
}
);
layerId = "9D2B49D7-8C02-48EB-8D57-D561CCF616AE";
paths = (
{
closed = 1;
nodes = (
"643 -22 CURVE SMOOTH",
"470 160 LINE SMOOTH",
"453 176 OFFCURVE",
"436 177 OFFCURVE",
"419 161 CURVE SMOOTH",
"403 146 OFFCURVE",
"403 127 OFFCURVE",
"418 112 CURVE SMOOTH",
"590 -70 LINE SMOOTH",
"607 -86 OFFCURVE",
"624 -86 OFFCURVE",
"640 -71 CURVE SMOOTH",
"657 -56 OFFCURVE",
"657 -37 OFFCURVE"
);
}
);
width = 733;
}
);
leftKerningGroup = O;
leftMetricsKey = O;
rightKerningGroup = O;
rightMetricsKey = O;
unicode = 0051;
},
{
color = 10;
glyphname = R;
lastChange = "2024-11-18 10:37:41 +0000";
layers = (
{
anchors = (
{
name = bottom;
position = "{291, 0}";
},
{
name = top;
position = "{291, 633}";
}
);
layerId = "C9A88445-F9B1-43BF-9834-532EB19954E9";
paths = (
{
closed = 1;
nodes = (
"538 6 OFFCURVE",
"540 16 OFFCURVE",
"532 28 CURVE SMOOTH",
"379 269 LINE",
"468 280 OFFCURVE",
"513 336 OFFCURVE",
"513 435 CURVE SMOOTH",
"513 465 LINE SMOOTH",
"513 576 OFFCURVE",
"456 633 OFFCURVE",
"345 633 CURVE SMOOTH",
"111 633 LINE SMOOTH",
"97 633 OFFCURVE",
"90 626 OFFCURVE",
"90 612 CURVE SMOOTH",
"90 21 LINE SMOOTH",
"90 7 OFFCURVE",
"97 0 OFFCURVE",
"111 0 CURVE SMOOTH",
"125 0 OFFCURVE",
"132 7 OFFCURVE",
"132 21 CURVE SMOOTH",
"132 267 LINE",
"330 267 LINE",
"497 5 LINE SMOOTH",
"504 -6 OFFCURVE",
"514 -8 OFFCURVE",
"526 -1 CURVE SMOOTH"
);
},
{
closed = 1;
nodes = (
"132 591 LINE",
"345 591 LINE SMOOTH",
"432 591 OFFCURVE",
"471 552 OFFCURVE",
"471 465 CURVE SMOOTH",
"471 435 LINE SMOOTH",
"471 348 OFFCURVE",
"432 309 OFFCURVE",
"345 309 CURVE SMOOTH",
"132 309 LINE"
);
}
);
width = 582;
},
{
anchors = (
{
name = bottom;
position = "{313, 0}";
},
{
name = top;
position = "{313, 678}";
}
);
background = {
paths = (
{
closed = 1;
nodes = (
"532 28 CURVE SMOOTH",
"363 294 LINE",
"356 306 OFFCURVE",
"346 308 OFFCURVE",
"334 301 CURVE SMOOTH",
"322 294 OFFCURVE",
"320 284 OFFCURVE",
"327 272 CURVE",
"497 5 LINE SMOOTH",
"504 -6 OFFCURVE",
"514 -8 OFFCURVE",
"526 -1 CURVE SMOOTH",
"538 6 OFFCURVE",
"540 16 OFFCURVE"
);
}
);
};
layerId = "9D2B49D7-8C02-48EB-8D57-D561CCF616AE";
paths = (
{
closed = 1;
nodes = (
"562 12 OFFCURVE",
"568 33 OFFCURVE",
"556 55 CURVE SMOOTH",
"425 274 LINE",
"519 289 OFFCURVE",
"569 353 OFFCURVE",
"569 459 CURVE SMOOTH",
"569 489 LINE SMOOTH",
"569 611 OFFCURVE",
"502 678 OFFCURVE",
"380 678 CURVE SMOOTH",
"146 678 LINE SMOOTH",
"119 678 OFFCURVE",
"104 663 OFFCURVE",
"104 636 CURVE SMOOTH",
"104 42 LINE SMOOTH",
"104 15 OFFCURVE",
"119 0 OFFCURVE",
"146 0 CURVE SMOOTH",
"173 0 OFFCURVE",
"188 15 OFFCURVE",
"188 42 CURVE SMOOTH",
"188 270 LINE",
"328 270 LINE",
"483 12 LINE SMOOTH",
"497 -10 OFFCURVE",
"518 -16 OFFCURVE",
"540 -2 CURVE SMOOTH"
);
},
{
closed = 1;
nodes = (
"188 594 LINE",
"380 594 LINE SMOOTH",
"456 594 OFFCURVE",
"485 564 OFFCURVE",
"485 489 CURVE SMOOTH",
"485 459 LINE SMOOTH",
"485 383 OFFCURVE",
"456 354 OFFCURVE",
"380 354 CURVE SMOOTH",
"188 354 LINE"
);
}
);
width = 625;
}
);
leftKerningGroup = H;
leftMetricsKey = H;
rightKerningGroup = R;
unicode = 0052;
},
{
color = 10;
glyphname = S;
lastChange = "2024-11-18 11:39:46 +0000";
layers = (
{
anchors = (
{
name = bottom;
position = "{326, 0}";
},
{
name = top;
position = "{326, 633}";
}
);
layerId = "C9A88445-F9B1-43BF-9834-532EB19954E9";
paths = (
{
closed = 1;
nodes = (
"398 1 LINE SMOOTH",
"519 1 OFFCURVE",
"572 54 OFFCURVE",
"572 174 CURVE SMOOTH",
"572 294 OFFCURVE",
"519 347 OFFCURVE",
"398 347 CURVE SMOOTH",
"257 347 LINE SMOOTH",
"166 347 OFFCURVE",
"134 379 OFFCURVE",
"134 469 CURVE SMOOTH",
"134 559 OFFCURVE",
"166 591 OFFCURVE",
"256 591 CURVE SMOOTH",
"403 591 LINE SMOOTH",
"493 591 OFFCURVE",
"525 559 OFFCURVE",
"525 470 CURVE SMOOTH",
"525 458 OFFCURVE",
"534 449 OFFCURVE",
"546 449 CURVE SMOOTH",
"558 449 OFFCURVE",
"567 458 OFFCURVE",
"567 470 CURVE SMOOTH",
"567 583 OFFCURVE",
"517 633 OFFCURVE",
"403 633 CURVE SMOOTH",
"256 633 LINE SMOOTH",
"142 633 OFFCURVE",
"92 583 OFFCURVE",
"92 469 CURVE SMOOTH",
"92 355 OFFCURVE",
"142 305 OFFCURVE",
"257 305 CURVE SMOOTH",
"398 305 LINE SMOOTH",
"496 305 OFFCURVE",
"530 271 OFFCURVE",
"530 174 CURVE SMOOTH",
"530 77 OFFCURVE",
"496 43 OFFCURVE",
"398 43 CURVE SMOOTH",
"254 43 LINE SMOOTH",
"156 43 OFFCURVE",
"122 77 OFFCURVE",
"122 174 CURVE SMOOTH",
"122 186 OFFCURVE",
"113 195 OFFCURVE",
"101 195 CURVE SMOOTH",
"89 195 OFFCURVE",
"80 186 OFFCURVE",
"80 174 CURVE SMOOTH",
"80 54 OFFCURVE",
"133 1 OFFCURVE",
"254 1 CURVE SMOOTH"
);
}
);
width = 652;
},
{
anchors = (
{
name = bottom;
position = "{354, 0}";
},
{
name = top;
position = "{354, 678}";
}
);
background = {
paths = (
{
closed = 0;
nodes = (
"551 487 LINE",
"551 588 OFFCURVE",
"510 629 OFFCURVE",
"408 629 CURVE",
"281 629 LINE",
"179 629 OFFCURVE",
"138 588 OFFCURVE",
"138 486 CURVE",
"138 384 OFFCURVE",
"179 342 OFFCURVE",
"282 342 CURVE SMOOTH",
"411 342 LINE SMOOTH",
"520 342 OFFCURVE",
"564 297 OFFCURVE",
"564 188 CURVE SMOOTH",
"564 79 OFFCURVE",
"520 36 OFFCURVE",
"411 36 CURVE SMOOTH",
"267 36 LINE",
"158 36 OFFCURVE",
"114 79 OFFCURVE",
"114 188 CURVE"
);
}
);
};
layerId = "9D2B49D7-8C02-48EB-8D57-D561CCF616AE";
paths = (
{
closed = 1;
nodes = (
"418 0 LINE SMOOTH",
"550 0 OFFCURVE",
"613 61 OFFCURVE",
"613 194 CURVE SMOOTH",
"613 327 OFFCURVE",
"549 390 OFFCURVE",
"418 390 CURVE SMOOTH",
"294 390 LINE SMOOTH",
"214 390 OFFCURVE",
"192 414 OFFCURVE",
"192 493 CURVE SMOOTH",
"192 571 OFFCURVE",
"213 594 OFFCURVE",
"293 594 CURVE SMOOTH",
"412 594 LINE SMOOTH",
"472 594 OFFCURVE",
"499 582 OFFCURVE",
"510 543 CURVE SMOOTH",
"514 516 OFFCURVE",
"526 502 OFFCURVE",
"553 502 CURVE SMOOTH",
"582 502 OFFCURVE",
"598 517 OFFCURVE",
"594 546 CURVE SMOOTH",
"578 635 OFFCURVE",
"518 678 OFFCURVE",
"412 678 CURVE SMOOTH",
"293 678 LINE SMOOTH",
"167 678 OFFCURVE",
"108 618 OFFCURVE",
"108 493 CURVE SMOOTH",
"108 367 OFFCURVE",
"168 306 OFFCURVE",
"294 306 CURVE SMOOTH",
"418 306 LINE SMOOTH",
"502 306 OFFCURVE",
"529 280 OFFCURVE",
"529 194 CURVE SMOOTH",
"529 109 OFFCURVE",
"504 84 OFFCURVE",
"418 84 CURVE SMOOTH",
"274 84 LINE SMOOTH",
"206 84 OFFCURVE",
"176 98 OFFCURVE",
"166 144 CURVE SMOOTH",
"161 172 OFFCURVE",
"150 185 OFFCURVE",
"122 185 CURVE SMOOTH",
"94 185 OFFCURVE",
"78 170 OFFCURVE",
"81 141 CURVE SMOOTH",
"97 45 OFFCURVE",
"160 0 OFFCURVE",
"274 0 CURVE SMOOTH"
);
}
);
width = 693;
}
);
leftKerningGroup = S;
leftMetricsKey = O;
rightKerningGroup = S;
rightMetricsKey = O;
unicode = 0053;
},
{
color = 9;
glyphname = Germandbls;
lastChange = "2024-11-18 08:40:00 +0000";
layers = (
{
layerId = "C9A88445-F9B1-43BF-9834-532EB19954E9";
paths = (
{
closed = 1;
nodes = (
"125 0 OFFCURVE",
"132 7 OFFCURVE",
"132 21 CURVE SMOOTH",
"132 480 LINE SMOOTH",
"132 570 OFFCURVE",
"164 602 OFFCURVE",
"254 602 CURVE SMOOTH",
"262 602 LINE SMOOTH",
"349 602 OFFCURVE",
"381 572 OFFCURVE",
"383 489 CURVE",
"300 398 LINE",
"300 362 LINE",
"395 298 OFFCURVE",
"431 240 OFFCURVE",
"431 160 CURVE SMOOTH",
"431 73 OFFCURVE",
"400 42 OFFCURVE",
"313 42 CURVE SMOOTH",
"243 42 LINE SMOOTH",
"229 42 OFFCURVE",
"222 35 OFFCURVE",
"222 21 CURVE SMOOTH",
"222 7 OFFCURVE",
"229 0 OFFCURVE",
"243 0 CURVE SMOOTH",
"313 0 LINE SMOOTH",
"424 0 OFFCURVE",
"473 49 OFFCURVE",
"473 160 CURVE SMOOTH",
"473 248 OFFCURVE",
"434 316 OFFCURVE",
"343 383 CURVE",
"415 462 LINE SMOOTH",
"422 470 OFFCURVE",
"425 477 OFFCURVE",
"425 488 CURVE SMOOTH",
"423 596 OFFCURVE",
"372 644 OFFCURVE",
"262 644 CURVE SMOOTH",
"254 644 LINE SMOOTH",
"140 644 OFFCURVE",
"90 594 OFFCURVE",
"90 480 CURVE SMOOTH",
"90 21 LINE SMOOTH",
"90 7 OFFCURVE",
"97 0 OFFCURVE",
"111 0 CURVE SMOOTH"
);
}
);
width = 553;
},
{
layerId = "9D2B49D7-8C02-48EB-8D57-D561CCF616AE";
paths = (
{
closed = 1;
nodes = (
"168 -20 OFFCURVE",
"188 0 OFFCURVE",
"188 22 CURVE SMOOTH",
"188 480 LINE SMOOTH",
"188 559 OFFCURVE",
"210 581 OFFCURVE",
"289 581 CURVE SMOOTH",
"297 581 LINE SMOOTH",
"369 581 OFFCURVE",
"394 562 OFFCURVE",
"397 497 CURVE",
"322 411 LINE",
"322 345 LINE",
"412 284 OFFCURVE",
"445 234 OFFCURVE",
"445 161 CURVE SMOOTH",
"445 86 OFFCURVE",
"424 64 OFFCURVE",
"348 64 CURVE SMOOTH",
"278 64 LINE SMOOTH",
"256 64 OFFCURVE",
"236 45 OFFCURVE",
"236 22 CURVE SMOOTH",
"236 0 OFFCURVE",
"256 -20 OFFCURVE",
"278 -20 CURVE SMOOTH",
"348 -20 LINE SMOOTH",
"470 -20 OFFCURVE",
"529 39 OFFCURVE",
"529 161 CURVE SMOOTH",
"529 251 OFFCURVE",
"493 319 OFFCURVE",
"410 386 CURVE",
"461 442 LINE SMOOTH",
"475 459 OFFCURVE",
"481 473 OFFCURVE",
"481 495 CURVE SMOOTH",
"476 610 OFFCURVE",
"417 665 OFFCURVE",
"297 665 CURVE SMOOTH",
"289 665 LINE SMOOTH",
"164 665 OFFCURVE",
"104 605 OFFCURVE",
"104 480 CURVE SMOOTH",
"104 22 LINE SMOOTH",
"104 0 OFFCURVE",
"124 -20 OFFCURVE",
"146 -20 CURVE SMOOTH"
);
}
);
width = 609;
}
);
leftKerningGroup = H;
leftMetricsKey = n;
rightKerningGroup = Germandbls;
rightMetricsKey = o;
unicode = 1E9E;
},
{
color = 10;
glyphname = T;
lastChange = "2024-11-18 10:37:41 +0000";
layers = (
{
anchors = (
{
name = bottom;
position = "{256, 0}";
},
{
name = center;
position = "{276, 317}";
},
{
name = top;
position = "{276, 633}";
}
);
layerId = "C9A88445-F9B1-43BF-9834-532EB19954E9";
paths = (
{
closed = 1;
nodes = (
"288 -1 OFFCURVE",
"297 8 OFFCURVE",
"297 20 CURVE SMOOTH",
"297 592 LINE",
"516 592 LINE SMOOTH",
"528 592 OFFCURVE",
"537 601 OFFCURVE",
"537 613 CURVE SMOOTH",
"537 625 OFFCURVE",
"528 634 OFFCURVE",
"516 634 CURVE SMOOTH",
"36 634 LINE SMOOTH",
"24 634 OFFCURVE",
"15 625 OFFCURVE",
"15 613 CURVE SMOOTH",
"15 601 OFFCURVE",
"24 592 OFFCURVE",
"36 592 CURVE SMOOTH",
"255 592 LINE",
"255 20 LINE SMOOTH",
"255 8 OFFCURVE",
"264 -1 OFFCURVE",
"276 -1 CURVE SMOOTH"
);
}
);
width = 552;
},
{
anchors = (
{
name = bottom;
position = "{274, 0}";
},
{
name = center;
position = "{307, 339}";
},
{
name = top;
position = "{307, 678}";
}
);
background = {
paths = (
{
closed = 0;
nodes = (
"298 629 LINE",
"298 0 LINE"
);
},
{
closed = 0;
nodes = (
"25 629 LINE",
"571 629 LINE"
);
}
);
};
layerId = "9D2B49D7-8C02-48EB-8D57-D561CCF616AE";
paths = (
{
closed = 1;
nodes = (
"334 0 OFFCURVE",
"349 15 OFFCURVE",
"349 42 CURVE SMOOTH",
"349 593 LINE",
"543 593 LINE SMOOTH",
"571 593 OFFCURVE",
"585 607 OFFCURVE",
"585 635 CURVE SMOOTH",
"585 663 OFFCURVE",
"571 677 OFFCURVE",
"543 677 CURVE SMOOTH",
"71 677 LINE SMOOTH",
"43 677 OFFCURVE",
"29 663 OFFCURVE",
"29 635 CURVE SMOOTH",
"29 607 OFFCURVE",
"43 593 OFFCURVE",
"71 593 CURVE SMOOTH",
"265 593 LINE",
"265 42 LINE SMOOTH",
"265 14 OFFCURVE",
"279 0 OFFCURVE",
"307 0 CURVE SMOOTH"
);
}
);
width = 614;
}
);
leftKerningGroup = T;
rightKerningGroup = T;
unicode = 0054;
},
{
color = 10;
glyphname = U;
lastChange = "2024-11-18 10:37:41 +0000";
layers = (
{
anchors = (
{
name = bottom;
position = "{348, 0}";
},
{
name = ogonek;
position = "{561, 59}";
},
{
name = top;
position = "{348, 633}";
},
{
name = topright;
position = "{590, 633}";
}
);
layerId = "C9A88445-F9B1-43BF-9834-532EB19954E9";
paths = (
{
closed = 1;
nodes = (
"408 0 LINE SMOOTH",
"550 0 OFFCURVE",
"611 61 OFFCURVE",
"611 203 CURVE SMOOTH",
"611 612 LINE SMOOTH",
"611 624 OFFCURVE",
"602 633 OFFCURVE",
"590 633 CURVE SMOOTH",
"578 633 OFFCURVE",
"569 624 OFFCURVE",
"569 612 CURVE SMOOTH",
"569 203 LINE SMOOTH",
"569 85 OFFCURVE",
"526 42 OFFCURVE",
"408 42 CURVE SMOOTH",
"288 42 LINE SMOOTH",
"170 42 OFFCURVE",
"127 85 OFFCURVE",
"127 203 CURVE SMOOTH",
"127 612 LINE SMOOTH",
"127 624 OFFCURVE",
"118 633 OFFCURVE",
"106 633 CURVE SMOOTH",
"94 633 OFFCURVE",
"85 624 OFFCURVE",
"85 612 CURVE SMOOTH",
"85 203 LINE SMOOTH",
"85 61 OFFCURVE",
"146 0 OFFCURVE",
"288 0 CURVE SMOOTH"
);
}
);
width = 696;
},
{
anchors = (
{
name = bottom;
position = "{383, 0}";
},
{
name = ogonek;
position = "{588, 59}";
},
{
name = top;
position = "{383, 678}";
},
{
name = topright;
position = "{625, 678}";
}
);
background = {
paths = (
{
closed = 0;
nodes = (
"126 665 LINE",
"126 218 LINE",
"126 88 OFFCURVE",
"178 36 OFFCURVE",
"308 36 CURVE",
"428 36 LINE",
"558 36 OFFCURVE",
"610 88 OFFCURVE",
"610 218 CURVE",
"610 665 LINE"
);
}
);
};
layerId = "9D2B49D7-8C02-48EB-8D57-D561CCF616AE";
paths = (
{
closed = 1;
nodes = (
"443 0 LINE SMOOTH",
"596 0 OFFCURVE",
"667 71 OFFCURVE",
"667 224 CURVE SMOOTH",
"667 636 LINE SMOOTH",
"667 664 OFFCURVE",
"653 678 OFFCURVE",
"625 678 CURVE SMOOTH",
"597 678 OFFCURVE",
"583 664 OFFCURVE",
"583 636 CURVE SMOOTH",
"583 224 LINE SMOOTH",
"583 117 OFFCURVE",
"550 84 OFFCURVE",
"443 84 CURVE SMOOTH",
"323 84 LINE SMOOTH",
"216 84 OFFCURVE",
"183 117 OFFCURVE",
"183 224 CURVE SMOOTH",
"183 636 LINE SMOOTH",
"183 664 OFFCURVE",
"169 678 OFFCURVE",
"141 678 CURVE SMOOTH",
"113 678 OFFCURVE",
"99 664 OFFCURVE",
"99 636 CURVE SMOOTH",
"99 224 LINE SMOOTH",
"99 71 OFFCURVE",
"170 0 OFFCURVE",
"323 0 CURVE SMOOTH"
);
}
);
width = 766;
}
);
leftKerningGroup = U;
leftMetricsKey = "=H-10";
rightKerningGroup = U;
rightMetricsKey = "=H-10";
unicode = 0055;
},
{
color = 10;
glyphname = V;
lastChange = "2024-11-18 10:37:41 +0000";
layers = (
{
anchors = (
{
name = bottom;
position = "{298, 0}";
},
{
name = top;
position = "{298, 633}";
}
);
layerId = "C9A88445-F9B1-43BF-9834-532EB19954E9";
paths = (
{
closed = 1;
nodes = (
"301 0 LINE SMOOTH",
"310 0 OFFCURVE",
"317 5 OFFCURVE",
"320 13 CURVE SMOOTH",
"584 603 LINE SMOOTH",
"592 621 OFFCURVE",
"580 633 OFFCURVE",
"565 633 CURVE SMOOTH",
"556 633 OFFCURVE",
"549 628 OFFCURVE",
"546 620 CURVE SMOOTH",
"291 49 LINE",
"306 49 LINE",
"50 620 LINE SMOOTH",
"47 628 OFFCURVE",
"40 633 OFFCURVE",
"31 633 CURVE SMOOTH",
"18 633 OFFCURVE",
"4 621 OFFCURVE",
"12 603 CURVE SMOOTH",
"276 13 LINE SMOOTH",
"279 5 OFFCURVE",
"286 0 OFFCURVE",
"295 0 CURVE SMOOTH"
);
}
);
width = 597;
},
{
anchors = (
{
name = bottom;
position = "{319, 0}";
},
{
name = top;
position = "{322, 678}";
}
);
background = {
paths = (
{
closed = 0;
nodes = (
"582 648 LINE",
"318 36 LINE",
"312 36 LINE",
"48 648 LINE"
);
}
);
};
layerId = "9D2B49D7-8C02-48EB-8D57-D561CCF616AE";
paths = (
{
closed = 1;
nodes = (
"321 0 LINE SMOOTH",
"342 0 OFFCURVE",
"356 12 OFFCURVE",
"366 33 CURVE SMOOTH",
"615 618 LINE SMOOTH",
"624 641 OFFCURVE",
"619 660 OFFCURVE",
"596 672 CURVE SMOOTH",
"569 685 OFFCURVE",
"549 678 OFFCURVE",
"538 651 CURVE SMOOTH",
"311 98 LINE",
"340 98 LINE",
"106 651 LINE SMOOTH",
"95 678 OFFCURVE",
"74 685 OFFCURVE",
"48 672 CURVE SMOOTH",
"22 660 OFFCURVE",
"19 641 OFFCURVE",
"29 618 CURVE SMOOTH",
"276 33 LINE SMOOTH",
"286 11 OFFCURVE",
"299 0 OFFCURVE",
"317 0 CURVE SMOOTH"
);
}
);
width = 643;
}
);
leftKerningGroup = V;
rightKerningGroup = V;
unicode = 0056;
},
{
color = 10;
glyphname = W;
lastChange = "2024-11-23 15:07:09 +0000";
layers = (
{
anchors = (
{
name = bottom;
position = "{420, 0}";
},
{
name = top;
position = "{420, 633}";
}
);
layerId = "C9A88445-F9B1-43BF-9834-532EB19954E9";
paths = (
{
closed = 1;
nodes = (
"238 0 OFFCURVE",
"247 1 OFFCURVE",
"251 15 CURVE SMOOTH",
"426 576 LINE",
"414 576 LINE",
"589 15 LINE SMOOTH",
"592 5 OFFCURVE",
"598 0 OFFCURVE",
"611 0 CURVE SMOOTH",
"613 0 LINE SMOOTH",
"625 0 OFFCURVE",
"632 5 OFFCURVE",
"635 15 CURVE SMOOTH",
"829 605 LINE SMOOTH",
"833 617 OFFCURVE",
"829 633 OFFCURVE",
"809 633 CURVE SMOOTH",
"799 633 OFFCURVE",
"792 628 OFFCURVE",
"789 618 CURVE SMOOTH",
"606 62 LINE",
"618 62 LINE",
"445 618 LINE SMOOTH",
"442 629 OFFCURVE",
"431 634 OFFCURVE",
"420 634 CURVE SMOOTH",
"409 634 OFFCURVE",
"398 629 OFFCURVE",
"395 618 CURVE SMOOTH",
"222 62 LINE",
"234 62 LINE",
"51 618 LINE SMOOTH",
"48 628 OFFCURVE",
"41 633 OFFCURVE",
"31 633 CURVE SMOOTH",
"15 633 OFFCURVE",
"7 617 OFFCURVE",
"11 605 CURVE SMOOTH",
"205 15 LINE SMOOTH",
"208 5 OFFCURVE",
"215 0 OFFCURVE",
"226 0 CURVE SMOOTH"
);
}
);
width = 841;
},
{
anchors = (
{
name = bottom;
position = "{449, 0}";
},
{
name = top;
position = "{449, 678}";
}
);
layerId = "9D2B49D7-8C02-48EB-8D57-D561CCF616AE";
paths = (
{
closed = 1;
nodes = (
"276 0 OFFCURVE",
"287 12 OFFCURVE",
"294 36 CURVE SMOOTH",
"456 557 LINE",
"434 557 LINE",
"595 36 LINE SMOOTH",
"602 12 OFFCURVE",
"617 0 OFFCURVE",
"639 0 CURVE SMOOTH",
"641 0 LINE SMOOTH",
"664 0 OFFCURVE",
"677 12 OFFCURVE",
"685 36 CURVE SMOOTH",
"870 622 LINE SMOOTH",
"879 651 OFFCURVE",
"858 678 OFFCURVE",
"829 678 CURVE SMOOTH",
"813 678 OFFCURVE",
"798 669 OFFCURVE",
"791 647 CURVE SMOOTH",
"628 128 LINE",
"650 128 LINE",
"495 642 LINE SMOOTH",
"488 666 OFFCURVE",
"467 678 OFFCURVE",
"447 678 CURVE SMOOTH",
"428 678 OFFCURVE",
"408 666 OFFCURVE",
"401 642 CURVE SMOOTH",
"246 128 LINE",
"268 128 LINE",
"105 647 LINE SMOOTH",
"98 669 OFFCURVE",
"82 679 OFFCURVE",
"66 679 CURVE SMOOTH",
"36 679 OFFCURVE",
"18 647 OFFCURVE",
"26 622 CURVE SMOOTH",
"211 36 LINE SMOOTH",
"219 11 OFFCURVE",
"230 0 OFFCURVE",
"250 0 CURVE SMOOTH"
);
}
);
width = 896;
}
);
leftKerningGroup = V;
leftMetricsKey = V;
rightKerningGroup = V;
rightMetricsKey = V;
unicode = 0057;
},
{
color = 10;
glyphname = X;
lastChange = "2024-11-18 10:37:41 +0000";
layers = (
{
anchors = (
{
name = bottom;
position = "{272, 0}";
},
{
name = top;
position = "{270, 633}";
}
);
layerId = "C9A88445-F9B1-43BF-9834-532EB19954E9";
paths = (
{
closed = 1;
nodes = (
"54 -3 OFFCURVE",
"64 -1 OFFCURVE",
"72 11 CURVE SMOOTH",
"270 299 LINE",
"478 10 LINE SMOOTH",
"486 -1 OFFCURVE",
"496 -3 OFFCURVE",
"507 5 CURVE SMOOTH",
"518 13 OFFCURVE",
"520 23 OFFCURVE",
"512 34 CURVE SMOOTH",
"299 331 LINE",
"496 599 LINE SMOOTH",
"504 610 OFFCURVE",
"503 620 OFFCURVE",
"492 628 CURVE SMOOTH",
"481 636 OFFCURVE",
"470 635 OFFCURVE",
"462 624 CURVE SMOOTH",
"272 368 LINE",
"90 623 LINE SMOOTH",
"82 634 OFFCURVE",
"71 636 OFFCURVE",
"60 628 CURVE SMOOTH",
"49 620 OFFCURVE",
"47 610 OFFCURVE",
"55 599 CURVE SMOOTH",
"244 335 LINE",
"37 34 LINE SMOOTH",
"30 23 OFFCURVE",
"32 13 OFFCURVE",
"43 5 CURVE SMOOTH"
);
}
);
width = 559;
},
{
anchors = (
{
name = bottom;
position = "{314, 0}";
},
{
name = top;
position = "{315, 678}";
}
);
background = {
paths = (
{
closed = 0;
nodes = (
"70 2 LINE",
"300 340 LINE"
);
},
{
closed = 0;
nodes = (
"68 662 LINE",
"535 4 LINE"
);
},
{
closed = 0;
nodes = (
"303 336 LINE",
"538 662 LINE"
);
}
);
};
layerId = "9D2B49D7-8C02-48EB-8D57-D561CCF616AE";
paths = (
{
closed = 1;
nodes = (
"110 -6 OFFCURVE",
"130 -2 OFFCURVE",
"145 19 CURVE SMOOTH",
"311 265 LINE",
"485 20 LINE SMOOTH",
"500 -2 OFFCURVE",
"521 -6 OFFCURVE",
"543 9 CURVE SMOOTH",
"566 26 OFFCURVE",
"569 47 OFFCURVE",
"554 69 CURVE SMOOTH",
"365 335 LINE",
"562 609 LINE SMOOTH",
"578 631 OFFCURVE",
"574 651 OFFCURVE",
"552 667 CURVE SMOOTH",
"530 684 OFFCURVE",
"511 680 OFFCURVE",
"494 658 CURVE SMOOTH",
"314 407 LINE",
"135 658 LINE SMOOTH",
"120 680 OFFCURVE",
"99 684 OFFCURVE",
"77 669 CURVE SMOOTH",
"55 652 OFFCURVE",
"51 632 OFFCURVE",
"66 610 CURVE SMOOTH",
"259 338 LINE",
"76 68 LINE SMOOTH",
"61 45 OFFCURVE",
"64 24 OFFCURVE",
"86 9 CURVE SMOOTH"
);
}
);
width = 626;
}
);
leftKerningGroup = X;
rightKerningGroup = X;
unicode = 0058;
},
{
color = 10;
glyphname = Y;
lastChange = "2024-11-18 10:37:41 +0000";
layers = (
{
anchors = (
{
name = bottom;
position = "{259, 0}";
},
{
name = top;
position = "{259, 633}";
},
{
name = topleft;
position = "{24, 633}";
}
);
layerId = "C9A88445-F9B1-43BF-9834-532EB19954E9";
paths = (
{
closed = 1;
nodes = (
"271 0 OFFCURVE",
"278 7 OFFCURVE",
"278 21 CURVE SMOOTH",
"278 250 LINE",
"500 600 LINE SMOOTH",
"508 612 OFFCURVE",
"506 622 OFFCURVE",
"494 629 CURVE SMOOTH",
"482 636 OFFCURVE",
"472 634 OFFCURVE",
"465 623 CURVE SMOOTH",
"257 295 LINE",
"50 622 LINE SMOOTH",
"43 634 OFFCURVE",
"32 636 OFFCURVE",
"21 629 CURVE SMOOTH",
"9 621 OFFCURVE",
"7 611 OFFCURVE",
"14 600 CURVE SMOOTH",
"236 250 LINE",
"236 21 LINE SMOOTH",
"236 7 OFFCURVE",
"243 0 OFFCURVE",
"257 0 CURVE SMOOTH"
);
}
);
width = 515;
},
{
anchors = (
{
name = bottom;
position = "{307, 0}";
},
{
name = top;
position = "{307, 678}";
},
{
name = topleft;
position = "{46, 678}";
}
);
background = {
paths = (
{
closed = 0;
nodes = (
"290 0 LINE",
"290 259 LINE"
);
},
{
closed = 0;
nodes = (
"38 654 LINE",
"289 259 LINE",
"291 259 LINE",
"546 654 LINE"
);
}
);
};
layerId = "9D2B49D7-8C02-48EB-8D57-D561CCF616AE";
paths = (
{
closed = 1;
nodes = (
"330 0 OFFCURVE",
"345 15 OFFCURVE",
"345 42 CURVE SMOOTH",
"345 246 LINE",
"583 611 LINE SMOOTH",
"598 633 OFFCURVE",
"593 654 OFFCURVE",
"570 668 CURVE SMOOTH",
"548 684 OFFCURVE",
"527 679 OFFCURVE",
"513 657 CURVE SMOOTH",
"303 336 LINE",
"103 657 LINE SMOOTH",
"89 679 OFFCURVE",
"68 684 OFFCURVE",
"45 670 CURVE SMOOTH",
"23 655 OFFCURVE",
"18 635 OFFCURVE",
"32 611 CURVE SMOOTH",
"261 246 LINE",
"261 42 LINE SMOOTH",
"261 15 OFFCURVE",
"277 0 OFFCURVE",
"303 0 CURVE SMOOTH"
);
}
);
width = 615;
}
);
leftKerningGroup = Y;
leftMetricsKey = V;
rightKerningGroup = Y;
rightMetricsKey = V;
unicode = 0059;
},
{
color = 10;
glyphname = Z;
lastChange = "2024-11-18 10:37:41 +0000";
layers = (
{
anchors = (
{
name = bottom;
position = "{309, 0}";
},
{
name = top;
position = "{318, 633}";
}
);
layerId = "C9A88445-F9B1-43BF-9834-532EB19954E9";
paths = (
{
closed = 1;
nodes = (
"413 0 LINE SMOOTH",
"500 0 OFFCURVE",
"549 41 OFFCURVE",
"555 121 CURVE SMOOTH",
"556 135 OFFCURVE",
"548 143 OFFCURVE",
"534 143 CURVE SMOOTH",
"521 143 OFFCURVE",
"514 136 OFFCURVE",
"513 122 CURVE SMOOTH",
"507 66 OFFCURVE",
"476 42 OFFCURVE",
"413 42 CURVE SMOOTH",
"107 42 LINE",
"107 23 LINE",
"524 584 LINE SMOOTH",
"531 593 OFFCURVE",
"533 600 OFFCURVE",
"533 612 CURVE SMOOTH",
"533 626 OFFCURVE",
"526 633 OFFCURVE",
"512 633 CURVE SMOOTH",
"182 633 LINE SMOOTH",
"95 633 OFFCURVE",
"46 592 OFFCURVE",
"40 512 CURVE SMOOTH",
"39 498 OFFCURVE",
"47 490 OFFCURVE",
"60 490 CURVE SMOOTH",
"74 490 OFFCURVE",
"81 497 OFFCURVE",
"82 511 CURVE SMOOTH",
"88 567 OFFCURVE",
"119 591 OFFCURVE",
"182 591 CURVE SMOOTH",
"484 591 LINE",
"484 601 LINE",
"68 47 LINE SMOOTH",
"61 37 OFFCURVE",
"57 31 OFFCURVE",
"57 21 CURVE SMOOTH",
"57 7 OFFCURVE",
"65 0 OFFCURVE",
"80 0 CURVE SMOOTH"
);
}
);
width = 595;
},
{
anchors = (
{
name = bottom;
position = "{351, 0}";
},
{
name = top;
position = "{361, 678}";
}
);
background = {
paths = (
{
closed = 0;
nodes = (
"83 507 LINE",
"83 590 OFFCURVE",
"123 629 OFFCURVE",
"205 629 CURVE",
"538 629 LINE",
"538 626 LINE",
"97 37 LINE",
"97 36 LINE",
"456 36 LINE",
"538 36 OFFCURVE",
"578 75 OFFCURVE",
"578 158 CURVE"
);
}
);
};
layerId = "9D2B49D7-8C02-48EB-8D57-D561CCF616AE";
paths = (
{
closed = 1;
nodes = (
"473 0 LINE SMOOTH",
"564 0 OFFCURVE",
"619 42 OFFCURVE",
"635 120 CURVE SMOOTH",
"639 148 OFFCURVE",
"622 164 OFFCURVE",
"594 164 CURVE SMOOTH",
"567 164 OFFCURVE",
"556 150 OFFCURVE",
"549 125 CURVE SMOOTH",
"541 95 OFFCURVE",
"518 84 OFFCURVE",
"473 84 CURVE SMOOTH",
"177 84 LINE",
"177 80 LINE",
"574 598 LINE SMOOTH",
"586 614 OFFCURVE",
"590 625 OFFCURVE",
"590 636 CURVE SMOOTH",
"590 662 OFFCURVE",
"576 678 OFFCURVE",
"548 678 CURVE SMOOTH",
"214 678 LINE SMOOTH",
"124 678 OFFCURVE",
"70 635 OFFCURVE",
"54 558 CURVE SMOOTH",
"49 530 OFFCURVE",
"67 514 OFFCURVE",
"95 514 CURVE SMOOTH",
"122 514 OFFCURVE",
"133 528 OFFCURVE",
"139 553 CURVE SMOOTH",
"148 582 OFFCURVE",
"171 594 OFFCURVE",
"214 594 CURVE SMOOTH",
"481 594 LINE",
"481 604 LINE",
"79 78 LINE SMOOTH",
"68 62 OFFCURVE",
"63 51 OFFCURVE",
"63 42 CURVE SMOOTH",
"63 15 OFFCURVE",
"78 0 OFFCURVE",
"104 0 CURVE SMOOTH"
);
}
);
width = 689;
}
);
leftKerningGroup = Z;
rightKerningGroup = Z;
unicode = 005A;
},
{
color = 9;
glyphname = I_J.loclNLD;
lastChange = "2024-11-18 08:40:00 +0000";
layers = (
{
layerId = "C9A88445-F9B1-43BF-9834-532EB19954E9";
paths = (
{
closed = 1;
nodes = (
"124 249 OFFCURVE",
"133 258 OFFCURVE",
"133 270 CURVE SMOOTH",
"133 613 LINE SMOOTH",
"133 625 OFFCURVE",
"124 634 OFFCURVE",
"112 634 CURVE SMOOTH",
"100 634 OFFCURVE",
"91 625 OFFCURVE",
"91 613 CURVE SMOOTH",
"91 270 LINE SMOOTH",
"91 258 OFFCURVE",
"100 249 OFFCURVE",
"112 249 CURVE SMOOTH"
);
},
{
closed = 1;
nodes = (
"299 0 LINE SMOOTH",
"428 0 OFFCURVE",
"482 54 OFFCURVE",
"482 183 CURVE SMOOTH",
"482 612 LINE SMOOTH",
"482 626 OFFCURVE",
"475 633 OFFCURVE",
"461 633 CURVE SMOOTH",
"447 633 OFFCURVE",
"440 626 OFFCURVE",
"440 612 CURVE SMOOTH",
"440 183 LINE SMOOTH",
"440 77 OFFCURVE",
"405 42 OFFCURVE",
"299 42 CURVE SMOOTH",
"272 42 LINE SMOOTH",
"174 42 OFFCURVE",
"136 72 OFFCURVE",
"132 162 CURVE SMOOTH",
"131 176 OFFCURVE",
"124 183 OFFCURVE",
"110 183 CURVE SMOOTH",
"96 183 OFFCURVE",
"89 175 OFFCURVE",
"90 161 CURVE SMOOTH",
"95 48 OFFCURVE",
"150 0 OFFCURVE",
"272 0 CURVE SMOOTH"
);
}
);
width = 567;
},
{
layerId = "9D2B49D7-8C02-48EB-8D57-D561CCF616AE";
paths = (
{
closed = 1;
nodes = (
"174 248 OFFCURVE",
"188 261 OFFCURVE",
"188 290 CURVE SMOOTH",
"188 635 LINE SMOOTH",
"188 664 OFFCURVE",
"174 677 OFFCURVE",
"146 677 CURVE SMOOTH",
"117 677 OFFCURVE",
"104 664 OFFCURVE",
"104 635 CURVE SMOOTH",
"104 290 LINE SMOOTH",
"104 261 OFFCURVE",
"117 248 OFFCURVE",
"146 248 CURVE SMOOTH"
);
},
{
closed = 1;
nodes = (
"391 0 LINE SMOOTH",
"532 0 OFFCURVE",
"595 62 OFFCURVE",
"595 204 CURVE SMOOTH",
"595 636 LINE SMOOTH",
"595 662 OFFCURVE",
"580 678 OFFCURVE",
"553 678 CURVE SMOOTH",
"525 678 OFFCURVE",
"511 662 OFFCURVE",
"511 636 CURVE SMOOTH",
"511 204 LINE SMOOTH",
"511 109 OFFCURVE",
"485 84 OFFCURVE",
"391 84 CURVE SMOOTH",
"308 84 LINE SMOOTH",
"230 84 OFFCURVE",
"199 101 OFFCURVE",
"189 162 CURVE SMOOTH",
"187 190 OFFCURVE",
"173 204 OFFCURVE",
"146 204 CURVE SMOOTH",
"120 204 OFFCURVE",
"103 189 OFFCURVE",
"105 161 CURVE SMOOTH",
"119 49 OFFCURVE",
"182 0 OFFCURVE",
"308 0 CURVE SMOOTH"
);
}
);
width = 694;
}
);
leftKerningGroup = H;
leftMetricsKey = H;
rightKerningGroup = U;
rightMetricsKey = J;
},
{
color = 10;
glyphname = a;
lastChange = "2024-12-09 16:01:05 +0000";
layers = (
{
anchors = (
{
name = bottom;
position = "{284, 0}";
},
{
name = ogonek;
position = "{468, 0}";
},
{
name = top;
position = "{284, 461}";
}
);
background = {
paths = (
{
closed = 1;
nodes = (
"490 21 CURVE SMOOTH",
"490 286 LINE SMOOTH",
"490 408 OFFCURVE",
"437 461 OFFCURVE",
"315 461 CURVE SMOOTH",
"257 461 LINE SMOOTH",
"143 461 OFFCURVE",
"84 428 OFFCURVE",
"79 352 CURVE SMOOTH",
"78 338 OFFCURVE",
"86 330 OFFCURVE",
"100 330 CURVE SMOOTH",
"113 330 OFFCURVE",
"119 337 OFFCURVE",
"121 350 CURVE SMOOTH",
"129 400 OFFCURVE",
"166 419 OFFCURVE",
"257 419 CURVE SMOOTH",
"315 419 LINE SMOOTH",
"413 419 OFFCURVE",
"448 384 OFFCURVE",
"448 286 CURVE SMOOTH",
"448 21 LINE SMOOTH",
"448 7 OFFCURVE",
"455 0 OFFCURVE",
"469 0 CURVE SMOOTH",
"483 0 OFFCURVE",
"490 7 OFFCURVE"
);
},
{
closed = 1;
nodes = (
"271 0 LINE SMOOTH",
"391 0 OFFCURVE",
"460 53 OFFCURVE",
"469 150 CURVE SMOOTH",
"469 164 OFFCURVE",
"469 172 OFFCURVE",
"468 172 CURVE SMOOTH",
"455 172 OFFCURVE",
"448 165 OFFCURVE",
"447 152 CURVE SMOOTH",
"438 79 OFFCURVE",
"380 42 OFFCURVE",
"271 42 CURVE SMOOTH",
"215 42 LINE SMOOTH",
"138 42 OFFCURVE",
"112 68 OFFCURVE",
"112 145 CURVE SMOOTH",
"112 223 OFFCURVE",
"138 249 OFFCURVE",
"215 249 CURVE SMOOTH",
"448 249 LINE SMOOTH",
"462 249 OFFCURVE",
"469 256 OFFCURVE",
"469 270 CURVE SMOOTH",
"469 284 OFFCURVE",
"462 291 OFFCURVE",
"448 291 CURVE SMOOTH",
"215 291 LINE SMOOTH",
"115 291 OFFCURVE",
"70 246 OFFCURVE",
"70 145 CURVE SMOOTH",
"70 44 OFFCURVE",
"114 0 OFFCURVE",
"215 0 CURVE SMOOTH"
);
}
);
};
layerId = "C9A88445-F9B1-43BF-9834-532EB19954E9";
paths = (
{
closed = 1;
nodes = (
"271 0 LINE SMOOTH",
"358 0 OFFCURVE",
"418 28 OFFCURVE",
"448 80 CURVE",
"448 21 LINE SMOOTH",
"448 7 OFFCURVE",
"455 0 OFFCURVE",
"469 0 CURVE SMOOTH",
"483 0 OFFCURVE",
"490 7 OFFCURVE",
"490 21 CURVE SMOOTH",
"490 286 LINE SMOOTH",
"490 408 OFFCURVE",
"437 461 OFFCURVE",
"315 461 CURVE SMOOTH",
"257 461 LINE SMOOTH",
"143 461 OFFCURVE",
"84 428 OFFCURVE",
"79 352 CURVE SMOOTH",
"78 338 OFFCURVE",
"86 330 OFFCURVE",
"100 330 CURVE SMOOTH",
"113 330 OFFCURVE",
"119 337 OFFCURVE",
"121 350 CURVE SMOOTH",
"129 400 OFFCURVE",
"166 419 OFFCURVE",
"257 419 CURVE SMOOTH",
"315 419 LINE SMOOTH",
"412 419 OFFCURVE",
"447 385 OFFCURVE",
"448 291 CURVE",
"215 291 LINE SMOOTH",
"115 291 OFFCURVE",
"70 246 OFFCURVE",
"70 145 CURVE SMOOTH",
"70 44 OFFCURVE",
"114 0 OFFCURVE",
"215 0 CURVE SMOOTH"
);
},
{
closed = 1;
nodes = (
"138 42 OFFCURVE",
"112 68 OFFCURVE",
"112 145 CURVE SMOOTH",
"112 223 OFFCURVE",
"138 249 OFFCURVE",
"215 249 CURVE SMOOTH",
"448 249 LINE",
"448 160 LINE",
"441 76 OFFCURVE",
"376 42 OFFCURVE",
"271 42 CURVE SMOOTH",
"215 42 LINE SMOOTH"
);
}
);
width = 571;
},
{
anchors = (
{
name = bottom;
position = "{311, 0}";
},
{
name = ogonek;
position = "{476, 7}";
},
{
name = top;
position = "{311, 507}";
}
);
background = {
paths = (
{
closed = 1;
nodes = (
"327 0 LINE SMOOTH",
"440 0 OFFCURVE",
"500 39 OFFCURVE",
"514 123 CURVE SMOOTH",
"518 147 OFFCURVE",
"504 160 OFFCURVE",
"480 160 CURVE SMOOTH",
"457 160 OFFCURVE",
"447 148 OFFCURVE",
"442 126 CURVE SMOOTH",
"433 86 OFFCURVE",
"401 72 OFFCURVE",
"327 72 CURVE SMOOTH",
"245 72 LINE SMOOTH",
"155 72 OFFCURVE",
"127 100 OFFCURVE",
"127 189 CURVE SMOOTH",
"127 304 LINE SMOOTH",
"127 395 OFFCURVE",
"155 422 OFFCURVE",
"245 422 CURVE SMOOTH",
"327 422 LINE SMOOTH",
"417 422 OFFCURVE",
"445 394 OFFCURVE",
"445 304 CURVE SMOOTH",
"445 290 LINE",
"127 290 LINE SMOOTH",
"104 290 OFFCURVE",
"91 278 OFFCURVE",
"91 254 CURVE SMOOTH",
"91 231 OFFCURVE",
"104 218 OFFCURVE",
"127 218 CURVE SMOOTH",
"481 218 LINE SMOOTH",
"504 218 OFFCURVE",
"517 231 OFFCURVE",
"517 254 CURVE SMOOTH",
"517 304 LINE",
"517 434 OFFCURVE",
"457 494 OFFCURVE",
"327 494 CURVE SMOOTH",
"245 494 LINE SMOOTH",
"115 494 OFFCURVE",
"55 435 OFFCURVE",
"55 304 CURVE SMOOTH",
"55 189 LINE SMOOTH",
"55 60 OFFCURVE",
"115 0 OFFCURVE",
"245 0 CURVE SMOOTH"
);
}
);
};
layerId = "9D2B49D7-8C02-48EB-8D57-D561CCF616AE";
paths = (
{
closed = 1;
nodes = (
"306 0 LINE SMOOTH",
"374 0 OFFCURVE",
"427 23 OFFCURVE",
"462 65 CURVE",
"462 42 LINE SMOOTH",
"462 15 OFFCURVE",
"477 0 OFFCURVE",
"504 0 CURVE SMOOTH",
"531 0 OFFCURVE",
"546 15 OFFCURVE",
"546 42 CURVE SMOOTH",
"546 311 LINE SMOOTH",
"546 444 OFFCURVE",
"483 507 OFFCURVE",
"350 507 CURVE SMOOTH",
"292 507 LINE SMOOTH",
"178 507 OFFCURVE",
"116 473 OFFCURVE",
"96 398 CURVE SMOOTH",
"89 372 OFFCURVE",
"108 355 OFFCURVE",
"136 355 CURVE SMOOTH",
"161 355 OFFCURVE",
"171 364 OFFCURVE",
"183 392 CURVE SMOOTH",
"196 415 OFFCURVE",
"225 423 OFFCURVE",
"292 423 CURVE SMOOTH",
"350 423 LINE SMOOTH",
"430 423 OFFCURVE",
"458 402 OFFCURVE",
"462 332 CURVE",
"250 332 LINE SMOOTH",
"137 332 OFFCURVE",
"84 278 OFFCURVE",
"84 166 CURVE SMOOTH",
"84 54 OFFCURVE",
"138 0 OFFCURVE",
"250 0 CURVE SMOOTH"
);
},
{
closed = 1;
nodes = (
"184 84 OFFCURVE",
"168 100 OFFCURVE",
"168 166 CURVE SMOOTH",
"168 231 OFFCURVE",
"184 248 OFFCURVE",
"250 248 CURVE SMOOTH",
"462 248 LINE",
"462 167 LINE",
"447 100 OFFCURVE",
"380 84 OFFCURVE",
"306 84 CURVE SMOOTH",
"250 84 LINE SMOOTH"
);
}
);
width = 640;
}
);
leftKerningGroup = a;
leftMetricsKey = "=n-20";
rightKerningGroup = n;
rightMetricsKey = n;
unicode = 0061;
},
{
color = 9;
glyphname = ae;
lastChange = "2024-11-18 08:40:00 +0000";
layers = (
{
anchors = (
{
name = bottom;
position = "{455, 0}";
},
{
name = top;
position = "{455, 461}";
}
);
layerId = "C9A88445-F9B1-43BF-9834-532EB19954E9";
paths = (
{
closed = 1;
nodes = (
"669 -1 LINE SMOOTH",
"787 -1 OFFCURVE",
"840 40 OFFCURVE",
"840 135 CURVE SMOOTH",
"840 147 OFFCURVE",
"831 156 OFFCURVE",
"819 156 CURVE SMOOTH",
"807 156 OFFCURVE",
"798 147 OFFCURVE",
"798 135 CURVE SMOOTH",
"798 66 OFFCURVE",
"765 41 OFFCURVE",
"669 41 CURVE SMOOTH",
"608 41 LINE SMOOTH",
"514 41 OFFCURVE",
"480 77 OFFCURVE",
"480 176 CURVE SMOOTH",
"480 249 LINE",
"819 249 LINE SMOOTH",
"832 249 OFFCURVE",
"840 256 OFFCURVE",
"840 270 CURVE SMOOTH",
"840 402 OFFCURVE",
"787 461 OFFCURVE",
"669 461 CURVE SMOOTH",
"609 461 LINE SMOOTH",
"533 462 OFFCURVE",
"484 437 OFFCURVE",
"459 382 CURVE",
"433 437 OFFCURVE",
"383 462 OFFCURVE",
"305 462 CURVE SMOOTH",
"267 462 LINE SMOOTH",
"143 462 OFFCURVE",
"89 423 OFFCURVE",
"89 351 CURVE SMOOTH",
"89 339 OFFCURVE",
"98 330 OFFCURVE",
"110 330 CURVE SMOOTH",
"122 330 OFFCURVE",
"131 339 OFFCURVE",
"131 351 CURVE SMOOTH",
"131 392 OFFCURVE",
"165 420 OFFCURVE",
"267 420 CURVE SMOOTH",
"305 420 LINE SMOOTH",
"402 420 OFFCURVE",
"437 386 OFFCURVE",
"438 291 CURVE",
"225 291 LINE SMOOTH",
"124 291 OFFCURVE",
"80 247 OFFCURVE",
"80 146 CURVE SMOOTH",
"80 45 OFFCURVE",
"124 1 OFFCURVE",
"225 1 CURVE SMOOTH",
"261 1 LINE SMOOTH",
"356 1 OFFCURVE",
"421 31 OFFCURVE",
"455 88 CURVE",
"478 27 OFFCURVE",
"528 -1 OFFCURVE",
"608 -1 CURVE SMOOTH"
);
},
{
closed = 1;
nodes = (
"148 43 OFFCURVE",
"122 69 OFFCURVE",
"122 146 CURVE SMOOTH",
"122 223 OFFCURVE",
"148 249 OFFCURVE",
"225 249 CURVE SMOOTH",
"438 249 LINE",
"438 172 LINE SMOOTH",
"438 86 OFFCURVE",
"380 43 OFFCURVE",
"261 43 CURVE SMOOTH",
"225 43 LINE SMOOTH"
);
},
{
closed = 1;
nodes = (
"481 386 OFFCURVE",
"515 420 OFFCURVE",
"609 419 CURVE SMOOTH",
"669 419 LINE SMOOTH",
"757 419 OFFCURVE",
"793 384 OFFCURVE",
"798 291 CURVE",
"480 291 LINE"
);
}
);
width = 920;
},
{
anchors = (
{
name = bottom;
position = "{496, 0}";
},
{
name = top;
position = "{496, 507}";
}
);
layerId = "9D2B49D7-8C02-48EB-8D57-D561CCF616AE";
paths = (
{
closed = 1;
nodes = (
"704 -22 LINE SMOOTH",
"833 -22 OFFCURVE",
"896 22 OFFCURVE",
"896 130 CURVE SMOOTH",
"896 153 OFFCURVE",
"877 172 OFFCURVE",
"854 172 CURVE SMOOTH",
"831 172 OFFCURVE",
"812 153 OFFCURVE",
"812 130 CURVE SMOOTH",
"812 75 OFFCURVE",
"790 62 OFFCURVE",
"704 62 CURVE SMOOTH",
"643 62 LINE SMOOTH",
"562 62 OFFCURVE",
"536 87 OFFCURVE",
"536 176 CURVE SMOOTH",
"536 218 LINE",
"853 218 LINE SMOOTH",
"881 218 OFFCURVE",
"896 233 OFFCURVE",
"896 260 CURVE SMOOTH",
"896 413 OFFCURVE",
"835 482 OFFCURVE",
"704 482 CURVE SMOOTH",
"644 482 LINE SMOOTH",
"575 483 OFFCURVE",
"526 458 OFFCURVE",
"494 406 CURVE",
"461 458 OFFCURVE",
"410 483 OFFCURVE",
"340 483 CURVE SMOOTH",
"302 483 LINE SMOOTH",
"177 483 OFFCURVE",
"102 436 OFFCURVE",
"102 366 CURVE SMOOTH",
"102 343 OFFCURVE",
"121 324 OFFCURVE",
"144 324 CURVE SMOOTH",
"167 324 OFFCURVE",
"181 343 OFFCURVE",
"186 366 CURVE SMOOTH",
"191 387 OFFCURVE",
"216 399 OFFCURVE",
"302 399 CURVE SMOOTH",
"340 399 LINE SMOOTH",
"417 399 OFFCURVE",
"445 379 OFFCURVE",
"452 302 CURVE",
"260 302 LINE SMOOTH",
"148 302 OFFCURVE",
"94 248 OFFCURVE",
"94 146 CURVE SMOOTH",
"94 34 OFFCURVE",
"148 -20 OFFCURVE",
"260 -20 CURVE SMOOTH",
"296 -20 LINE SMOOTH",
"380 -20 OFFCURVE",
"445 9 OFFCURVE",
"486 64 CURVE",
"519 6 OFFCURVE",
"570 -22 OFFCURVE",
"643 -22 CURVE SMOOTH"
);
},
{
closed = 1;
nodes = (
"194 64 OFFCURVE",
"178 80 OFFCURVE",
"178 146 CURVE SMOOTH",
"178 202 OFFCURVE",
"194 218 OFFCURVE",
"260 218 CURVE SMOOTH",
"452 218 LINE",
"452 172 LINE SMOOTH",
"452 99 OFFCURVE",
"405 64 OFFCURVE",
"296 64 CURVE SMOOTH",
"260 64 LINE SMOOTH"
);
},
{
closed = 1;
nodes = (
"543 379 OFFCURVE",
"570 399 OFFCURVE",
"644 398 CURVE SMOOTH",
"704 398 LINE SMOOTH",
"772 398 OFFCURVE",
"801 377 OFFCURVE",
"809 302 CURVE",
"537 302 LINE"
);
}
);
width = 976;
}
);
leftKerningGroup = a;
leftMetricsKey = a;
rightKerningGroup = e;
rightMetricsKey = e;
unicode = 00E6;
},
{
color = 10;
glyphname = b;
lastChange = "2024-11-18 11:00:19 +0000";
layers = (
{
anchors = (
{
name = bottom;
position = "{324, 0}";
},
{
name = top;
position = "{324, 461}";
}
);
background = {
paths = (
{
closed = 0;
nodes = (
"110 690 LINE",
"110 -1 LINE"
);
},
{
closed = 0;
nodes = (
"110 166 LINE",
"110 56 OFFCURVE",
"193 16 OFFCURVE",
"308 16 CURVE",
"346 16 LINE",
"456 16 OFFCURVE",
"500 60 OFFCURVE",
"500 170 CURVE",
"500 284 LINE",
"500 394 OFFCURVE",
"456 438 OFFCURVE",
"346 438 CURVE",
"308 438 LINE",
"193 438 OFFCURVE",
"110 398 OFFCURVE",
"110 288 CURVE"
);
}
);
};
layerId = "C9A88445-F9B1-43BF-9834-532EB19954E9";
paths = (
{
closed = 1;
nodes = (
"125 0 OFFCURVE",
"132 7 OFFCURVE",
"132 21 CURVE SMOOTH",
"132 76 LINE",
"160 26 OFFCURVE",
"215 0 OFFCURVE",
"309 0 CURVE SMOOTH",
"347 0 LINE SMOOTH",
"469 0 OFFCURVE",
"522 53 OFFCURVE",
"522 175 CURVE SMOOTH",
"522 287 LINE SMOOTH",
"522 409 OFFCURVE",
"469 462 OFFCURVE",
"347 462 CURVE SMOOTH",
"309 462 LINE SMOOTH",
"215 462 OFFCURVE",
"160 436 OFFCURVE",
"132 386 CURVE",
"132 669 LINE SMOOTH",
"132 683 OFFCURVE",
"125 690 OFFCURVE",
"111 690 CURVE SMOOTH",
"97 690 OFFCURVE",
"90 683 OFFCURVE",
"90 669 CURVE SMOOTH",
"90 21 LINE SMOOTH",
"90 7 OFFCURVE",
"97 0 OFFCURVE",
"111 0 CURVE SMOOTH"
);
},
{
closed = 1;
nodes = (
"202 42 OFFCURVE",
"133 77 OFFCURVE",
"132 148 CURVE SMOOTH",
"132 311 LINE SMOOTH",
"132 384 OFFCURVE",
"200 420 OFFCURVE",
"309 420 CURVE SMOOTH",
"347 420 LINE SMOOTH",
"445 420 OFFCURVE",
"480 385 OFFCURVE",
"480 287 CURVE SMOOTH",
"480 175 LINE SMOOTH",
"480 77 OFFCURVE",
"445 42 OFFCURVE",
"347 42 CURVE SMOOTH",
"309 42 LINE SMOOTH"
);
}
);
width = 602;
},
{
anchors = (
{
name = bottom;
position = "{363, 0}";
},
{
name = top;
position = "{363, 507}";
}
);
background = {
paths = (
{
closed = 0;
nodes = (
"136 700 LINE",
"136 0 LINE"
);
},
{
closed = 0;
nodes = (
"136 186 LINE",
"136 76 OFFCURVE",
"219 36 OFFCURVE",
"334 36 CURVE",
"372 36 LINE",
"482 36 OFFCURVE",
"526 80 OFFCURVE",
"526 190 CURVE",
"526 304 LINE",
"526 414 OFFCURVE",
"482 458 OFFCURVE",
"372 458 CURVE",
"334 458 LINE",
"219 458 OFFCURVE",
"136 418 OFFCURVE",
"136 308 CURVE"
);
}
);
};
layerId = "9D2B49D7-8C02-48EB-8D57-D561CCF616AE";
paths = (
{
closed = 1;
nodes = (
"173 0 OFFCURVE",
"188 15 OFFCURVE",
"188 42 CURVE SMOOTH",
"188 53 LINE",
"223 19 OFFCURVE",
"275 0 OFFCURVE",
"344 0 CURVE SMOOTH",
"382 0 LINE SMOOTH",
"515 0 OFFCURVE",
"578 63 OFFCURVE",
"578 196 CURVE SMOOTH",
"578 311 LINE SMOOTH",
"578 444 OFFCURVE",
"515 507 OFFCURVE",
"382 507 CURVE SMOOTH",
"344 507 LINE SMOOTH",
"275 507 OFFCURVE",
"223 489 OFFCURVE",
"188 454 CURVE",
"188 662 LINE SMOOTH",
"188 689 OFFCURVE",
"173 704 OFFCURVE",
"146 704 CURVE SMOOTH",
"119 704 OFFCURVE",
"104 689 OFFCURVE",
"104 662 CURVE SMOOTH",
"104 42 LINE SMOOTH",
"104 15 OFFCURVE",
"119 0 OFFCURVE",
"146 0 CURVE SMOOTH"
);
},
{
closed = 1;
nodes = (
"256 84 OFFCURVE",
"188 106 OFFCURVE",
"188 153 CURVE SMOOTH",
"188 354 LINE SMOOTH",
"188 401 OFFCURVE",
"256 423 OFFCURVE",
"344 423 CURVE SMOOTH",
"382 423 LINE SMOOTH",
"468 423 OFFCURVE",
"494 398 OFFCURVE",
"494 311 CURVE SMOOTH",
"494 196 LINE SMOOTH",
"494 110 OFFCURVE",
"469 84 OFFCURVE",
"382 84 CURVE SMOOTH",
"344 84 LINE SMOOTH"
);
}
);
width = 658;
},
{
anchors = (
{
name = bottom;
position = "{363, 0}";
},
{
name = top;
position = "{363, 507}";
}
);
associatedMasterId = "9D2B49D7-8C02-48EB-8D57-D561CCF616AE";
guideLines = (
{
position = "{341, 465}";
},
{
position = "{325, 42}";
}
);
layerId = "CF4D50D0-6CD9-4981-BE31-FDA365BA0B40";
name = "1";
paths = (
{
closed = 1;
nodes = (
"384 0 LINE SMOOTH",
"517.2 0 OFFCURVE",
"580 62.8 OFFCURVE",
"580 196 CURVE SMOOTH",
"580 311.2 LINE SMOOTH",
"580 444.4 OFFCURVE",
"517.2 507.2 OFFCURVE",
"384 507.2 CURVE SMOOTH",
"346 507.2 LINE SMOOTH",
"229.2 507.2 OFFCURVE",
"130.8 465.6 OFFCURVE",
"110 359.2 CURVE SMOOTH",
"104.8 331.2 OFFCURVE",
"122 315.2 OFFCURVE",
"150 315.2 CURVE SMOOTH",
"151.2 315.2 LINE SMOOTH",
"176.8 315.2 OFFCURVE",
"187.6 328.4 OFFCURVE",
"195.6 353.6 CURVE SMOOTH",
"212 404 OFFCURVE",
"264.4 423.2 OFFCURVE",
"346 423.2 CURVE SMOOTH",
"384 423.2 LINE SMOOTH",
"470.4 423.2 OFFCURVE",
"496 397.6 OFFCURVE",
"496 311.2 CURVE SMOOTH",
"496 196 LINE SMOOTH",
"496 109.6 OFFCURVE",
"470.4 84 OFFCURVE",
"384 84 CURVE SMOOTH",
"346 84 LINE SMOOTH",
"264.4 84 OFFCURVE",
"212 103.2 OFFCURVE",
"195.6 153.6 CURVE SMOOTH",
"187.6 178.8 OFFCURVE",
"176.8 192 OFFCURVE",
"151.2 192 CURVE SMOOTH",
"148 192 LINE SMOOTH",
"121.2 192 OFFCURVE",
"104.8 176 OFFCURVE",
"110 148 CURVE SMOOTH",
"130.8 41.6 OFFCURVE",
"229.2 0 OFFCURVE",
"346 0 CURVE SMOOTH"
);
},
{
closed = 1;
nodes = (
"170 -42 OFFCURVE",
"189 -23 OFFCURVE",
"189 0 CURVE SMOOTH",
"189 23 OFFCURVE",
"170 42 OFFCURVE",
"147 42 CURVE SMOOTH",
"124 42 OFFCURVE",
"105 23 OFFCURVE",
"105 0 CURVE SMOOTH",
"105 -23 OFFCURVE",
"124 -42 OFFCURVE",
"147 -42 CURVE SMOOTH"
);
},
{
closed = 1;
nodes = (
"174.4 0 OFFCURVE",
"189.2 14.8 OFFCURVE",
"189.2 42 CURVE SMOOTH",
"189.2 658 LINE SMOOTH",
"189.2 685.2 OFFCURVE",
"174.4 700 OFFCURVE",
"147.2 700 CURVE SMOOTH",
"120 700 OFFCURVE",
"105.2 685.2 OFFCURVE",
"105.2 658 CURVE SMOOTH",
"105.2 42 LINE SMOOTH",
"105.2 14.8 OFFCURVE",
"120 0 OFFCURVE",
"147.2 0 CURVE SMOOTH"
);
}
);
width = 658;
},
{
anchors = (
{
name = bottom;
position = "{363, 0}";
},
{
name = top;
position = "{363, 507}";
}
);
associatedMasterId = "9D2B49D7-8C02-48EB-8D57-D561CCF616AE";
layerId = "A447D007-974B-4103-B596-612437BD3667";
name = "2";
paths = (
{
closed = 1;
nodes = (
"382 0 LINE SMOOTH",
"515 0 OFFCURVE",
"578 63 OFFCURVE",
"578 196 CURVE SMOOTH",
"578 310 LINE SMOOTH",
"578 443 OFFCURVE",
"515 506 OFFCURVE",
"382 506 CURVE SMOOTH",
"344 506 LINE SMOOTH",
"227 506 OFFCURVE",
"129 464 OFFCURVE",
"108 358 CURVE SMOOTH",
"103 330 OFFCURVE",
"120 314 OFFCURVE",
"148 314 CURVE SMOOTH",
"149 314 LINE SMOOTH",
"175 314 OFFCURVE",
"186 327 OFFCURVE",
"194 352 CURVE SMOOTH",
"210 403 OFFCURVE",
"262 422 OFFCURVE",
"344 422 CURVE SMOOTH",
"382 422 LINE SMOOTH",
"468 422 OFFCURVE",
"494 396 OFFCURVE",
"494 310 CURVE SMOOTH",
"494 196 LINE SMOOTH",
"494 110 OFFCURVE",
"468 84 OFFCURVE",
"382 84 CURVE SMOOTH",
"344 84 LINE SMOOTH",
"262 84 OFFCURVE",
"210 103 OFFCURVE",
"194 154 CURVE SMOOTH",
"186 179 OFFCURVE",
"175 192 OFFCURVE",
"149 192 CURVE SMOOTH",
"146 192 LINE SMOOTH",
"119 192 OFFCURVE",
"103 176 OFFCURVE",
"108 148 CURVE SMOOTH",
"129 42 OFFCURVE",
"227 0 OFFCURVE",
"344 0 CURVE SMOOTH"
);
},
{
closed = 1;
nodes = (
"169 -42 OFFCURVE",
"188 -23 OFFCURVE",
"188 0 CURVE SMOOTH",
"188 23 OFFCURVE",
"169 42 OFFCURVE",
"146 42 CURVE SMOOTH",
"123 42 OFFCURVE",
"104 23 OFFCURVE",
"104 0 CURVE SMOOTH",
"104 -23 OFFCURVE",
"123 -42 OFFCURVE",
"146 -42 CURVE SMOOTH"
);
},
{
closed = 1;
nodes = (
"173 0 OFFCURVE",
"188 15 OFFCURVE",
"188 42 CURVE SMOOTH",
"188 658 LINE SMOOTH",
"188 685 OFFCURVE",
"173 700 OFFCURVE",
"146 700 CURVE SMOOTH",
"119 700 OFFCURVE",
"104 685 OFFCURVE",
"104 658 CURVE SMOOTH",
"104 42 LINE SMOOTH",
"104 15 OFFCURVE",
"119 0 OFFCURVE",
"146 0 CURVE SMOOTH"
);
},
{
closed = 1;
nodes = (
"169 658 OFFCURVE",
"188 677 OFFCURVE",
"188 700 CURVE SMOOTH",
"188 723 OFFCURVE",
"169 742 OFFCURVE",
"146 742 CURVE SMOOTH",
"123 742 OFFCURVE",
"104 723 OFFCURVE",
"104 700 CURVE SMOOTH",
"104 677 OFFCURVE",
"123 658 OFFCURVE",
"146 658 CURVE SMOOTH"
);
}
);
width = 658;
},
{
anchors = (
{
name = bottom;
position = "{363, 0}";
},
{
name = top;
position = "{363, 507}";
}
);
associatedMasterId = "9D2B49D7-8C02-48EB-8D57-D561CCF616AE";
layerId = "4FC9BFD0-0CE0-4FDC-BD51-8E7A1E7C523F";
name = "3";
paths = (
{
closed = 1;
nodes = (
"382 0 LINE SMOOTH",
"515 0 OFFCURVE",
"578 64 OFFCURVE",
"578 197 CURVE SMOOTH",
"578 311 LINE SMOOTH",
"578 444 OFFCURVE",
"515 507 OFFCURVE",
"382 507 CURVE SMOOTH",
"344 507 LINE SMOOTH",
"227 507 OFFCURVE",
"129 465 OFFCURVE",
"108 359 CURVE SMOOTH",
"103 331 OFFCURVE",
"120 315 OFFCURVE",
"148 315 CURVE SMOOTH",
"149 315 LINE SMOOTH",
"175 315 OFFCURVE",
"186 328 OFFCURVE",
"194 353 CURVE SMOOTH",
"210 404 OFFCURVE",
"262 423 OFFCURVE",
"344 423 CURVE SMOOTH",
"382 423 LINE SMOOTH",
"468 423 OFFCURVE",
"494 397 OFFCURVE",
"494 311 CURVE SMOOTH",
"494 197 LINE SMOOTH",
"494 111 OFFCURVE",
"468 84 OFFCURVE",
"382 84 CURVE SMOOTH",
"344 84 LINE SMOOTH",
"262 84 OFFCURVE",
"210 103 OFFCURVE",
"194 154 CURVE SMOOTH",
"186 179 OFFCURVE",
"175 192 OFFCURVE",
"149 192 CURVE SMOOTH",
"146 192 LINE SMOOTH",
"119 192 OFFCURVE",
"103 176 OFFCURVE",
"108 148 CURVE SMOOTH",
"129 42 OFFCURVE",
"227 0 OFFCURVE",
"344 0 CURVE SMOOTH"
);
},
{
closed = 1;
nodes = (
"173 4 OFFCURVE",
"188 19 OFFCURVE",
"188 46 CURVE SMOOTH",
"188 662 LINE SMOOTH",
"188 689 OFFCURVE",
"173 704 OFFCURVE",
"146 704 CURVE SMOOTH",
"119 704 OFFCURVE",
"104 689 OFFCURVE",
"104 662 CURVE SMOOTH",
"104 46 LINE SMOOTH",
"104 19 OFFCURVE",
"119 4 OFFCURVE",
"146 4 CURVE SMOOTH"
);
}
);
width = 658;
},
{
anchors = (
{
name = bottom;
position = "{363, 0}";
},
{
name = top;
position = "{363, 507}";
}
);
associatedMasterId = "9D2B49D7-8C02-48EB-8D57-D561CCF616AE";
layerId = "EF4B1C7D-CA20-4978-B1C9-02D8793DAE17";
name = "4";
paths = (
{
closed = 1;
nodes = (
"382 0 LINE SMOOTH",
"515 0 OFFCURVE",
"578 64 OFFCURVE",
"578 197 CURVE SMOOTH",
"578 311 LINE SMOOTH",
"578 444 OFFCURVE",
"515 507 OFFCURVE",
"382 507 CURVE SMOOTH",
"344 507 LINE SMOOTH",
"227 507 OFFCURVE",
"166 465 OFFCURVE",
"145 359 CURVE SMOOTH",
"140 331 OFFCURVE",
"120 315 OFFCURVE",
"148 315 CURVE SMOOTH",
"149 315 LINE SMOOTH",
"175 315 OFFCURVE",
"188 327 OFFCURVE",
"188 353 CURVE SMOOTH",
"188 404 OFFCURVE",
"262 423 OFFCURVE",
"344 423 CURVE SMOOTH",
"382 423 LINE SMOOTH",
"468 423 OFFCURVE",
"494 397 OFFCURVE",
"494 311 CURVE SMOOTH",
"494 197 LINE SMOOTH",
"494 111 OFFCURVE",
"468 84 OFFCURVE",
"382 84 CURVE SMOOTH",
"344 84 LINE SMOOTH",
"262 84 OFFCURVE",
"188 103 OFFCURVE",
"188 154 CURVE SMOOTH",
"188 180 OFFCURVE",
"175 192 OFFCURVE",
"149 192 CURVE SMOOTH",
"146 192 LINE SMOOTH",
"119 192 OFFCURVE",
"140 178 OFFCURVE",
"145 150 CURVE SMOOTH",
"166 44 OFFCURVE",
"227 0 OFFCURVE",
"344 0 CURVE SMOOTH"
);
},
{
closed = 1;
nodes = (
"173 4 OFFCURVE",
"188 19 OFFCURVE",
"188 46 CURVE SMOOTH",
"188 662 LINE SMOOTH",
"188 689 OFFCURVE",
"173 704 OFFCURVE",
"146 704 CURVE SMOOTH",
"119 704 OFFCURVE",
"104 689 OFFCURVE",
"104 662 CURVE SMOOTH",
"104 46 LINE SMOOTH",
"104 19 OFFCURVE",
"119 4 OFFCURVE",
"146 4 CURVE SMOOTH"
);
}
);
width = 658;
}
);
leftKerningGroup = h;
leftMetricsKey = n;
rightKerningGroup = o;
rightMetricsKey = o;
unicode = 0062;
},
{
color = 10;
glyphname = c;
lastChange = "2024-11-18 10:37:41 +0000";
layers = (
{
anchors = (
{
name = bottom;
position = "{298, 0}";
},
{
name = top;
position = "{298, 461}";
}
);
layerId = "C9A88445-F9B1-43BF-9834-532EB19954E9";
paths = (
{
closed = 1;
nodes = (
"337 0 LINE SMOOTH",
"435 0 OFFCURVE",
"483 32 OFFCURVE",
"491 103 CURVE SMOOTH",
"492 117 OFFCURVE",
"484 125 OFFCURVE",
"470 125 CURVE SMOOTH",
"457 125 OFFCURVE",
"451 118 OFFCURVE",
"449 105 CURVE SMOOTH",
"443 59 OFFCURVE",
"412 42 OFFCURVE",
"337 42 CURVE SMOOTH",
"255 42 LINE SMOOTH",
"157 42 OFFCURVE",
"122 77 OFFCURVE",
"122 175 CURVE SMOOTH",
"122 287 LINE SMOOTH",
"122 386 OFFCURVE",
"157 420 OFFCURVE",
"255 419 CURVE SMOOTH",
"337 419 LINE SMOOTH",
"412 419 OFFCURVE",
"443 402 OFFCURVE",
"449 356 CURVE SMOOTH",
"451 343 OFFCURVE",
"457 336 OFFCURVE",
"470 336 CURVE SMOOTH",
"484 336 OFFCURVE",
"492 344 OFFCURVE",
"491 358 CURVE SMOOTH",
"483 429 OFFCURVE",
"435 461 OFFCURVE",
"337 461 CURVE SMOOTH",
"255 461 LINE SMOOTH",
"133 462 OFFCURVE",
"80 409 OFFCURVE",
"80 287 CURVE SMOOTH",
"80 175 LINE SMOOTH",
"80 53 OFFCURVE",
"133 0 OFFCURVE",
"255 0 CURVE SMOOTH"
);
}
);
width = 561;
},
{
anchors = (
{
name = bottom;
position = "{318, 0}";
},
{
name = top;
position = "{316, 507}";
}
);
background = {
paths = (
{
closed = 0;
nodes = (
"486 354 LINE",
"486 428 OFFCURVE",
"448 458 OFFCURVE",
"352 458 CURVE",
"270 458 LINE",
"160 459 OFFCURVE",
"116 415 OFFCURVE",
"116 305 CURVE",
"116 190 LINE",
"116 80 OFFCURVE",
"160 36 OFFCURVE",
"270 36 CURVE",
"352 36 LINE",
"448 36 OFFCURVE",
"486 66 OFFCURVE",
"486 140 CURVE"
);
}
);
};
layerId = "9D2B49D7-8C02-48EB-8D57-D561CCF616AE";
paths = (
{
closed = 1;
nodes = (
"358 0 LINE SMOOTH",
"457 0 OFFCURVE",
"514 33 OFFCURVE",
"530 102 CURVE SMOOTH",
"536 130 OFFCURVE",
"518 146 OFFCURVE",
"490 146 CURVE SMOOTH",
"463 146 OFFCURVE",
"454 133 OFFCURVE",
"444 108 CURVE SMOOTH",
"434 90 OFFCURVE",
"409 84 OFFCURVE",
"358 84 CURVE SMOOTH",
"276 84 LINE SMOOTH",
"190 84 OFFCURVE",
"164 109 OFFCURVE",
"164 196 CURVE SMOOTH",
"164 312 LINE SMOOTH",
"164 399 OFFCURVE",
"190 424 OFFCURVE",
"276 423 CURVE SMOOTH",
"358 423 LINE SMOOTH",
"409 423 OFFCURVE",
"434 417 OFFCURVE",
"444 399 CURVE SMOOTH",
"454 375 OFFCURVE",
"463 361 OFFCURVE",
"489 361 CURVE SMOOTH",
"518 361 OFFCURVE",
"536 377 OFFCURVE",
"530 405 CURVE SMOOTH",
"514 474 OFFCURVE",
"457 507 OFFCURVE",
"358 507 CURVE SMOOTH",
"276 507 LINE SMOOTH",
"142 508 OFFCURVE",
"80 445 OFFCURVE",
"80 312 CURVE SMOOTH",
"80 196 LINE SMOOTH",
"80 63 OFFCURVE",
"143 0 OFFCURVE",
"276 0 CURVE SMOOTH"
);
}
);
width = 601;
}
);
leftKerningGroup = o;
leftMetricsKey = o;
rightKerningGroup = c;
rightMetricsKey = "=o-20";
unicode = 0063;
},
{
color = 10;
glyphname = d;
lastChange = "2024-11-18 10:37:41 +0000";
layers = (
{
anchors = (
{
name = bottom;
position = "{270, 0}";
},
{
name = center;
position = "{454, 571}";
},
{
name = top;
position = "{323, 461}";
},
{
name = topright;
position = "{553, 461}";
}
);
layerId = "C9A88445-F9B1-43BF-9834-532EB19954E9";
paths = (
{
closed = 1;
nodes = (
"293 0 LINE SMOOTH",
"387 0 OFFCURVE",
"442 26 OFFCURVE",
"470 76 CURVE",
"470 21 LINE SMOOTH",
"470 7 OFFCURVE",
"477 0 OFFCURVE",
"491 0 CURVE SMOOTH",
"505 0 OFFCURVE",
"512 7 OFFCURVE",
"512 21 CURVE SMOOTH",
"512 669 LINE SMOOTH",
"512 683 OFFCURVE",
"505 690 OFFCURVE",
"491 690 CURVE SMOOTH",
"477 690 OFFCURVE",
"470 683 OFFCURVE",
"470 669 CURVE SMOOTH",
"470 461 LINE",
"255 461 LINE SMOOTH",
"133 461 OFFCURVE",
"80 408 OFFCURVE",
"80 286 CURVE SMOOTH",
"80 175 LINE SMOOTH",
"80 53 OFFCURVE",
"133 0 OFFCURVE",
"255 0 CURVE SMOOTH"
);
},
{
closed = 1;
nodes = (
"157 42 OFFCURVE",
"122 77 OFFCURVE",
"122 175 CURVE SMOOTH",
"122 286 LINE SMOOTH",
"122 384 OFFCURVE",
"157 419 OFFCURVE",
"255 419 CURVE SMOOTH",
"470 419 LINE",
"470 151 LINE SMOOTH",
"470 78 OFFCURVE",
"402 42 OFFCURVE",
"293 42 CURVE SMOOTH",
"255 42 LINE SMOOTH"
);
}
);
width = 593;
},
{
anchors = (
{
name = bottom;
position = "{326, 0}";
},
{
name = center;
position = "{468, 595}";
},
{
name = top;
position = "{353, 507}";
},
{
name = topright;
position = "{602, 507}";
}
);
background = {
paths = (
{
closed = 0;
nodes = (
"506 0 LINE",
"506 700 LINE"
);
},
{
closed = 0;
nodes = (
"506 458 LINE",
"270 458 LINE",
"160 458 OFFCURVE",
"116 414 OFFCURVE",
"116 304 CURVE",
"116 190 LINE",
"116 80 OFFCURVE",
"160 36 OFFCURVE",
"270 36 CURVE",
"308 36 LINE",
"423 36 OFFCURVE",
"506 76 OFFCURVE",
"506 186 CURVE"
);
}
);
};
layerId = "9D2B49D7-8C02-48EB-8D57-D561CCF616AE";
paths = (
{
closed = 1;
nodes = (
"314 0 LINE SMOOTH",
"390 0 OFFCURVE",
"439 17 OFFCURVE",
"470 49 CURVE",
"470 42 LINE SMOOTH",
"470 15 OFFCURVE",
"485 0 OFFCURVE",
"512 0 CURVE SMOOTH",
"539 0 OFFCURVE",
"554 15 OFFCURVE",
"554 42 CURVE SMOOTH",
"554 662 LINE SMOOTH",
"554 689 OFFCURVE",
"539 704 OFFCURVE",
"512 704 CURVE SMOOTH",
"485 704 OFFCURVE",
"470 689 OFFCURVE",
"470 662 CURVE SMOOTH",
"470 507 LINE",
"276 507 LINE SMOOTH",
"143 507 OFFCURVE",
"80 444 OFFCURVE",
"80 311 CURVE SMOOTH",
"80 196 LINE SMOOTH",
"80 63 OFFCURVE",
"143 0 OFFCURVE",
"276 0 CURVE SMOOTH"
);
},
{
closed = 1;
nodes = (
"190 84 OFFCURVE",
"164 109 OFFCURVE",
"164 196 CURVE SMOOTH",
"164 311 LINE SMOOTH",
"164 397 OFFCURVE",
"189 423 OFFCURVE",
"276 423 CURVE SMOOTH",
"470 423 LINE",
"470 153 LINE SMOOTH",
"470 106 OFFCURVE",
"402 84 OFFCURVE",
"314 84 CURVE SMOOTH",
"276 84 LINE SMOOTH"
);
}
);
width = 648;
}
);
leftKerningGroup = o;
leftMetricsKey = o;
rightKerningGroup = d;
rightMetricsKey = n;
unicode = 0064;
},
{
color = 9;
glyphname = eth;
lastChange = "2024-11-18 08:40:00 +0000";
layers = (
{
layerId = "C9A88445-F9B1-43BF-9834-532EB19954E9";
paths = (
{
closed = 1;
nodes = (
"337 1 LINE SMOOTH",
"459 1 OFFCURVE",
"512 54 OFFCURVE",
"512 176 CURVE SMOOTH",
"512 311 LINE SMOOTH",
"510 531 OFFCURVE",
"472 631 OFFCURVE",
"383 653 CURVE SMOOTH",
"153 712 LINE SMOOTH",
"139 716 OFFCURVE",
"130 710 OFFCURVE",
"127 697 CURVE SMOOTH",
"124 684 OFFCURVE",
"129 675 OFFCURVE",
"142 671 CURVE SMOOTH",
"373 613 LINE SMOOTH",
"426 599 OFFCURVE",
"455 540 OFFCURVE",
"465 413 CURVE",
"437 446 OFFCURVE",
"392 462 OFFCURVE",
"337 462 CURVE SMOOTH",
"255 462 LINE SMOOTH",
"133 463 OFFCURVE",
"80 410 OFFCURVE",
"80 287 CURVE SMOOTH",
"80 175 LINE SMOOTH",
"80 54 OFFCURVE",
"133 1 OFFCURVE",
"255 1 CURVE SMOOTH"
);
},
{
closed = 1;
nodes = (
"157 43 OFFCURVE",
"122 78 OFFCURVE",
"122 175 CURVE SMOOTH",
"122 287 LINE SMOOTH",
"122 386 OFFCURVE",
"157 421 OFFCURVE",
"255 420 CURVE SMOOTH",
"337 420 LINE SMOOTH",
"416 420 OFFCURVE",
"470 394 OFFCURVE",
"470 311 CURVE SMOOTH",
"470 176 LINE SMOOTH",
"470 78 OFFCURVE",
"435 43 OFFCURVE",
"337 43 CURVE SMOOTH",
"255 43 LINE SMOOTH"
);
},
{
closed = 1;
nodes = (
"361 711 LINE SMOOTH",
"371 721 OFFCURVE",
"371 731 OFFCURVE",
"362 741 CURVE SMOOTH",
"353 751 OFFCURVE",
"342 751 OFFCURVE",
"332 742 CURVE SMOOTH",
"179 599 LINE SMOOTH",
"169 589 OFFCURVE",
"169 579 OFFCURVE",
"178 569 CURVE SMOOTH",
"187 559 OFFCURVE",
"198 559 OFFCURVE",
"208 568 CURVE SMOOTH"
);
}
);
width = 592;
},
{
layerId = "9D2B49D7-8C02-48EB-8D57-D561CCF616AE";
paths = (
{
closed = 1;
nodes = (
"358 0 LINE SMOOTH",
"491 0 OFFCURVE",
"554 62 OFFCURVE",
"554 196 CURVE SMOOTH",
"554 339 LINE SMOOTH",
"549 553 OFFCURVE",
"508 651 OFFCURVE",
"410 674 CURVE SMOOTH",
"175 733 LINE SMOOTH",
"149 740 OFFCURVE",
"131 730 OFFCURVE",
"124 703 CURVE SMOOTH",
"117 676 OFFCURVE",
"128 658 OFFCURVE",
"155 651 CURVE SMOOTH",
"388 592 LINE SMOOTH",
"426 584 OFFCURVE",
"451 561 OFFCURVE",
"462 463 CURVE",
"433 492 OFFCURVE",
"399 507 OFFCURVE",
"358 507 CURVE SMOOTH",
"276 507 LINE SMOOTH",
"143 506 OFFCURVE",
"80 445 OFFCURVE",
"80 311 CURVE SMOOTH",
"80 195 LINE SMOOTH",
"80 62 OFFCURVE",
"143 0 OFFCURVE",
"276 0 CURVE SMOOTH"
);
},
{
closed = 1;
nodes = (
"189 84 OFFCURVE",
"164 109 OFFCURVE",
"164 195 CURVE SMOOTH",
"164 311 LINE SMOOTH",
"164 399 OFFCURVE",
"189 422 OFFCURVE",
"276 423 CURVE SMOOTH",
"358 423 LINE SMOOTH",
"452 423 OFFCURVE",
"470 394 OFFCURVE",
"470 301 CURVE SMOOTH",
"470 196 LINE SMOOTH",
"470 109 OFFCURVE",
"445 84 OFFCURVE",
"358 84 CURVE SMOOTH",
"276 84 LINE SMOOTH"
);
},
{
closed = 1;
nodes = (
"407 697 LINE SMOOTH",
"424 713 OFFCURVE",
"424 731 OFFCURVE",
"408 748 CURVE SMOOTH",
"392 765 OFFCURVE",
"374 766 OFFCURVE",
"357 749 CURVE SMOOTH",
"210 610 LINE SMOOTH",
"193 595 OFFCURVE",
"193 576 OFFCURVE",
"209 559 CURVE SMOOTH",
"225 542 OFFCURVE",
"243 541 OFFCURVE",
"260 558 CURVE SMOOTH"
);
}
);
width = 634;
}
);
leftKerningGroup = o;
leftMetricsKey = o;
rightKerningGroup = o;
rightMetricsKey = o;
unicode = 00F0;
},
{
color = 10;
glyphname = e;
lastChange = "2024-11-18 10:37:41 +0000";
layers = (
{
anchors = (
{
name = bottom;
position = "{304, 0}";
},
{
name = ogonek;
position = "{471, 44}";
},
{
name = top;
position = "{304, 461}";
}
);
background = {
paths = (
{
closed = 1;
nodes = (
"337 0 LINE SMOOTH",
"449 0 OFFCURVE",
"504 38 OFFCURVE",
"511 123 CURVE SMOOTH",
"512 137 OFFCURVE",
"504 145 OFFCURVE",
"491 145 CURVE SMOOTH",
"477 145 OFFCURVE",
"470 138 OFFCURVE",
"469 124 CURVE SMOOTH",
"463 64 OFFCURVE",
"427 42 OFFCURVE",
"337 42 CURVE SMOOTH",
"255 42 LINE SMOOTH",
"157 42 OFFCURVE",
"122 77 OFFCURVE",
"122 174 CURVE SMOOTH",
"122 286 LINE SMOOTH",
"122 385 OFFCURVE",
"157 420 OFFCURVE",
"255 419 CURVE SMOOTH",
"337 419 LINE SMOOTH",
"435 419 OFFCURVE",
"470 384 OFFCURVE",
"470 286 CURVE SMOOTH",
"470 238 LINE",
"489 257 LINE",
"117 257 LINE",
"117 215 LINE",
"491 215 LINE SMOOTH",
"505 215 OFFCURVE",
"512 223 OFFCURVE",
"512 236 CURVE SMOOTH",
"512 286 LINE SMOOTH",
"512 408 OFFCURVE",
"459 461 OFFCURVE",
"337 461 CURVE SMOOTH",
"255 461 LINE SMOOTH",
"133 462 OFFCURVE",
"80 409 OFFCURVE",
"80 286 CURVE SMOOTH",
"80 174 LINE SMOOTH",
"80 53 OFFCURVE",
"133 0 OFFCURVE",
"255 0 CURVE SMOOTH"
);
}
);
};
layerId = "C9A88445-F9B1-43BF-9834-532EB19954E9";
paths = (
{
closed = 1;
nodes = (
"491 215 LINE SMOOTH",
"505 215 OFFCURVE",
"512 223 OFFCURVE",
"512 236 CURVE SMOOTH",
"512 286 LINE SMOOTH",
"512 408 OFFCURVE",
"459 461 OFFCURVE",
"337 461 CURVE SMOOTH",
"255 461 LINE SMOOTH",
"133 462 OFFCURVE",
"80 409 OFFCURVE",
"80 286 CURVE SMOOTH",
"80 174 LINE SMOOTH",
"80 53 OFFCURVE",
"133 0 OFFCURVE",
"255 0 CURVE SMOOTH",
"337 0 LINE SMOOTH",
"449 0 OFFCURVE",
"504 38 OFFCURVE",
"511 123 CURVE SMOOTH",
"512 137 OFFCURVE",
"504 145 OFFCURVE",
"491 145 CURVE SMOOTH",
"477 145 OFFCURVE",
"470 138 OFFCURVE",
"469 124 CURVE SMOOTH",
"463 64 OFFCURVE",
"427 42 OFFCURVE",
"337 42 CURVE SMOOTH",
"255 42 LINE SMOOTH",
"157 42 OFFCURVE",
"122 77 OFFCURVE",
"122 174 CURVE SMOOTH",
"122 215 LINE"
);
},
{
closed = 1;
nodes = (
"337 419 LINE SMOOTH",
"435 419 OFFCURVE",
"470 384 OFFCURVE",
"470 286 CURVE SMOOTH",
"470 257 LINE",
"122 257 LINE",
"122 286 LINE SMOOTH",
"122 385 OFFCURVE",
"157 420 OFFCURVE",
"255 419 CURVE SMOOTH"
);
}
);
width = 592;
},
{
anchors = (
{
name = bottom;
position = "{318, 0}";
},
{
name = ogonek;
position = "{499, 68}";
},
{
name = top;
position = "{318, 507}";
}
);
background = {
paths = (
{
closed = 0;
nodes = (
"506 160 LINE",
"506 71 OFFCURVE",
"462 36 OFFCURVE",
"352 36 CURVE",
"270 36 LINE",
"160 36 OFFCURVE",
"116 80 OFFCURVE",
"116 189 CURVE",
"116 304 LINE",
"116 415 OFFCURVE",
"160 459 OFFCURVE",
"270 458 CURVE",
"352 458 LINE",
"462 458 OFFCURVE",
"506 414 OFFCURVE",
"506 304 CURVE",
"506 254 LINE",
"116 254 LINE"
);
}
);
};
layerId = "9D2B49D7-8C02-48EB-8D57-D561CCF616AE";
paths = (
{
closed = 1;
nodes = (
"512 219 LINE SMOOTH",
"539 219 OFFCURVE",
"554 234 OFFCURVE",
"554 261 CURVE SMOOTH",
"554 311 LINE SMOOTH",
"554 445 OFFCURVE",
"491 507 OFFCURVE",
"358 507 CURVE SMOOTH",
"276 507 LINE SMOOTH",
"143 508 OFFCURVE",
"80 446 OFFCURVE",
"80 311 CURVE SMOOTH",
"80 195 LINE SMOOTH",
"80 63 OFFCURVE",
"143 0 OFFCURVE",
"276 0 CURVE SMOOTH",
"358 0 LINE SMOOTH",
"471 0 OFFCURVE",
"535 40 OFFCURVE",
"550 123 CURVE SMOOTH",
"555 151 OFFCURVE",
"539 166 OFFCURVE",
"511 166 CURVE SMOOTH",
"484 166 OFFCURVE",
"473 152 OFFCURVE",
"466 127 CURVE SMOOTH",
"455 95 OFFCURVE",
"426 84 OFFCURVE",
"358 84 CURVE SMOOTH",
"276 84 LINE SMOOTH",
"189 84 OFFCURVE",
"164 109 OFFCURVE",
"164 195 CURVE SMOOTH",
"164 219 LINE"
);
},
{
closed = 1;
nodes = (
"358 423 LINE SMOOTH",
"445 423 OFFCURVE",
"470 398 OFFCURVE",
"470 311 CURVE SMOOTH",
"470 303 LINE",
"164 303 LINE",
"164 311 LINE SMOOTH",
"164 399 OFFCURVE",
"189 424 OFFCURVE",
"276 423 CURVE SMOOTH"
);
}
);
width = 634;
}
);
leftKerningGroup = o;
leftMetricsKey = o;
rightKerningGroup = o;
rightMetricsKey = o;
unicode = 0065;
},
{
color = 10;
glyphname = f;
lastChange = "2024-11-18 10:37:41 +0000";
layers = (
{
anchors = (
{
name = bottom;
position = "{155, 0}";
},
{
name = top;
position = "{225, 659}";
}
);
layerId = "C9A88445-F9B1-43BF-9834-532EB19954E9";
paths = (
{
closed = 1;
nodes = (
"130 0 OFFCURVE",
"137 7 OFFCURVE",
"137 21 CURVE SMOOTH",
"137 419 LINE",
"268 419 LINE SMOOTH",
"282 419 OFFCURVE",
"289 426 OFFCURVE",
"289 440 CURVE SMOOTH",
"289 454 OFFCURVE",
"282 461 OFFCURVE",
"268 461 CURVE SMOOTH",
"137 461 LINE",
"137 518 LINE SMOOTH",
"137 614 OFFCURVE",
"171 648 OFFCURVE",
"267 648 CURVE SMOOTH",
"281 648 OFFCURVE",
"289 655 OFFCURVE",
"289 669 CURVE SMOOTH",
"289 683 OFFCURVE",
"281 690 OFFCURVE",
"267 690 CURVE SMOOTH",
"147 690 OFFCURVE",
"95 638 OFFCURVE",
"95 518 CURVE SMOOTH",
"95 461 LINE",
"51 461 LINE SMOOTH",
"37 461 OFFCURVE",
"30 454 OFFCURVE",
"30 440 CURVE SMOOTH",
"30 426 OFFCURVE",
"37 419 OFFCURVE",
"51 419 CURVE SMOOTH",
"95 419 LINE",
"95 21 LINE SMOOTH",
"95 7 OFFCURVE",
"102 0 OFFCURVE",
"116 0 CURVE SMOOTH"
);
}
);
width = 309;
},
{
anchors = (
{
name = bottom;
position = "{193, 0}";
},
{
name = top;
position = "{245, 654}";
}
);
background = {
paths = (
{
closed = 0;
nodes = (
"334 458 LINE",
"40 458 LINE"
);
},
{
closed = 0;
nodes = (
"151 0 LINE",
"151 478 LINE",
"151 586 OFFCURVE",
"194 629 OFFCURVE",
"302 629 CURVE",
"334 629 LINE"
);
}
);
};
layerId = "9D2B49D7-8C02-48EB-8D57-D561CCF616AE";
paths = (
{
closed = 1;
nodes = (
"192 0 OFFCURVE",
"207 15 OFFCURVE",
"207 42 CURVE SMOOTH",
"207 423 LINE",
"310 423 LINE SMOOTH",
"337 423 OFFCURVE",
"352 438 OFFCURVE",
"352 465 CURVE SMOOTH",
"352 493 OFFCURVE",
"337 507 OFFCURVE",
"310 507 CURVE SMOOTH",
"207 507 LINE",
"207 511 LINE SMOOTH",
"207 596 OFFCURVE",
"232 620 OFFCURVE",
"316 620 CURVE SMOOTH",
"338 620 OFFCURVE",
"352 635 OFFCURVE",
"352 662 CURVE SMOOTH",
"352 690 OFFCURVE",
"339 704 OFFCURVE",
"316 704 CURVE SMOOTH",
"185 704 OFFCURVE",
"123 642 OFFCURVE",
"123 511 CURVE SMOOTH",
"123 507 LINE",
"86 507 LINE SMOOTH",
"59 507 OFFCURVE",
"44 493 OFFCURVE",
"44 465 CURVE SMOOTH",
"44 438 OFFCURVE",
"59 423 OFFCURVE",
"86 423 CURVE SMOOTH",
"123 423 LINE",
"123 42 LINE SMOOTH",
"123 15 OFFCURVE",
"138 0 OFFCURVE",
"165 0 CURVE SMOOTH"
);
}
);
width = 386;
}
);
leftKerningGroup = f;
rightKerningGroup = f;
unicode = 0066;
},
{
color = 10;
glyphname = g;
lastChange = "2024-11-18 10:37:41 +0000";
layers = (
{
anchors = (
{
name = bottom;
position = "{289, -200}";
},
{
name = top;
position = "{301, 461}";
}
);
background = {
paths = (
{
closed = 1;
nodes = (
"389 -200 LINE SMOOTH",
"474 -200 OFFCURVE",
"512 -162 OFFCURVE",
"512 -77 CURVE SMOOTH",
"512 440 LINE SMOOTH",
"512 454 OFFCURVE",
"505 461 OFFCURVE",
"491 461 CURVE SMOOTH",
"477 461 OFFCURVE",
"470 454 OFFCURVE",
"470 440 CURVE SMOOTH",
"470 -77 LINE SMOOTH",
"470 -139 OFFCURVE",
"451 -158 OFFCURVE",
"389 -158 CURVE SMOOTH",
"203 -158 LINE SMOOTH",
"149 -158 OFFCURVE",
"127 -144 OFFCURVE",
"123 -98 CURVE SMOOTH",
"122 -84 OFFCURVE",
"115 -77 OFFCURVE",
"101 -77 CURVE SMOOTH",
"88 -77 OFFCURVE",
"80 -85 OFFCURVE",
"81 -99 CURVE SMOOTH",
"87 -169 OFFCURVE",
"125 -200 OFFCURVE",
"203 -200 CURVE SMOOTH"
);
},
{
closed = 1;
nodes = (
"293 0 LINE SMOOTH",
"425 0 OFFCURVE",
"482 52 OFFCURVE",
"492 149 CURVE",
"490 171 LINE",
"470 151 LINE",
"470 78 OFFCURVE",
"402 42 OFFCURVE",
"293 42 CURVE SMOOTH",
"255 42 LINE SMOOTH",
"157 42 OFFCURVE",
"122 77 OFFCURVE",
"122 174 CURVE SMOOTH",
"122 286 LINE SMOOTH",
"122 385 OFFCURVE",
"157 420 OFFCURVE",
"255 419 CURVE SMOOTH",
"337 419 LINE SMOOTH",
"428 419 OFFCURVE",
"470 389 OFFCURVE",
"470 307 CURVE",
"491 286 LINE",
"492 308 LINE",
"486 414 OFFCURVE",
"451 461 OFFCURVE",
"337 461 CURVE SMOOTH",
"255 461 LINE SMOOTH",
"133 462 OFFCURVE",
"80 409 OFFCURVE",
"80 286 CURVE SMOOTH",
"80 174 LINE SMOOTH",
"80 53 OFFCURVE",
"133 0 OFFCURVE",
"255 0 CURVE SMOOTH"
);
}
);
};
layerId = "C9A88445-F9B1-43BF-9834-532EB19954E9";
paths = (
{
closed = 1;
nodes = (
"389 -200 LINE SMOOTH",
"474 -200 OFFCURVE",
"512 -162 OFFCURVE",
"512 -77 CURVE SMOOTH",
"512 440 LINE SMOOTH",
"512 454 OFFCURVE",
"505 461 OFFCURVE",
"491 461 CURVE SMOOTH",
"477 461 OFFCURVE",
"470 454 OFFCURVE",
"470 440 CURVE SMOOTH",
"470 404 LINE",
"448 443 OFFCURVE",
"408 461 OFFCURVE",
"337 461 CURVE SMOOTH",
"255 461 LINE SMOOTH",
"133 461 OFFCURVE",
"80 409 OFFCURVE",
"80 286 CURVE SMOOTH",
"80 174 LINE SMOOTH",
"80 53 OFFCURVE",
"133 0 OFFCURVE",
"255 0 CURVE SMOOTH",
"293 0 LINE SMOOTH",
"386 0 OFFCURVE",
"442 26 OFFCURVE",
"470 75 CURVE",
"470 -77 LINE SMOOTH",
"470 -139 OFFCURVE",
"451 -158 OFFCURVE",
"389 -158 CURVE SMOOTH",
"203 -158 LINE SMOOTH",
"149 -158 OFFCURVE",
"127 -144 OFFCURVE",
"123 -98 CURVE SMOOTH",
"122 -84 OFFCURVE",
"115 -77 OFFCURVE",
"101 -77 CURVE SMOOTH",
"88 -77 OFFCURVE",
"80 -85 OFFCURVE",
"81 -99 CURVE SMOOTH",
"87 -169 OFFCURVE",
"125 -200 OFFCURVE",
"203 -200 CURVE SMOOTH"
);
},
{
closed = 1;
nodes = (
"157 42 OFFCURVE",
"122 77 OFFCURVE",
"122 174 CURVE SMOOTH",
"122 286 LINE SMOOTH",
"122 385 OFFCURVE",
"157 419 OFFCURVE",
"255 419 CURVE SMOOTH",
"337 419 LINE SMOOTH",
"428 419 OFFCURVE",
"470 389 OFFCURVE",
"470 307 CURVE SMOOTH",
"470 151 LINE SMOOTH",
"470 78 OFFCURVE",
"402 42 OFFCURVE",
"293 42 CURVE SMOOTH",
"255 42 LINE SMOOTH"
);
}
);
width = 593;
},
{
anchors = (
{
name = bottom;
position = "{320, -200}";
},
{
name = top;
position = "{312, 507}";
}
);
background = {
paths = (
{
closed = 0;
nodes = (
"506 494 LINE",
"506 -77 LINE",
"506 -151 OFFCURVE",
"477 -179 OFFCURVE",
"404 -179 CURVE",
"218 -179 LINE",
"145 -179 OFFCURVE",
"116 -151 OFFCURVE",
"116 -77 CURVE"
);
},
{
closed = 0;
nodes = (
"506 304 LINE",
"506 414 OFFCURVE",
"462 458 OFFCURVE",
"352 458 CURVE",
"270 458 LINE",
"160 459 OFFCURVE",
"116 415 OFFCURVE",
"116 304 CURVE",
"116 189 LINE",
"116 80 OFFCURVE",
"160 36 OFFCURVE",
"270 36 CURVE",
"308 36 LINE",
"423 36 OFFCURVE",
"506 76 OFFCURVE",
"506 186 CURVE"
);
}
);
};
layerId = "9D2B49D7-8C02-48EB-8D57-D561CCF616AE";
paths = (
{
closed = 1;
nodes = (
"410 -200 LINE SMOOTH",
"508 -200 OFFCURVE",
"554 -154 OFFCURVE",
"554 -56 CURVE SMOOTH",
"554 465 LINE SMOOTH",
"554 493 OFFCURVE",
"539 507 OFFCURVE",
"512 507 CURVE SMOOTH",
"486 507 OFFCURVE",
"470 494 OFFCURVE",
"470 465 CURVE SMOOTH",
"470 465 LINE",
"443 493 OFFCURVE",
"405 507 OFFCURVE",
"358 507 CURVE SMOOTH",
"276 507 LINE SMOOTH",
"142 507 OFFCURVE",
"80 445 OFFCURVE",
"80 311 CURVE SMOOTH",
"80 195 LINE SMOOTH",
"80 63 OFFCURVE",
"143 0 OFFCURVE",
"276 0 CURVE SMOOTH",
"314 0 LINE SMOOTH",
"380 0 OFFCURVE",
"434 21 OFFCURVE",
"470 61 CURVE",
"470 -56 LINE SMOOTH",
"470 -105 OFFCURVE",
"460 -116 OFFCURVE",
"410 -116 CURVE SMOOTH",
"224 -116 LINE SMOOTH",
"191 -116 OFFCURVE",
"176 -112 OFFCURVE",
"168 -97 CURVE SMOOTH",
"159 -70 OFFCURVE",
"150 -56 OFFCURVE",
"125 -56 CURVE SMOOTH",
"95 -56 OFFCURVE",
"79 -73 OFFCURVE",
"84 -101 CURVE SMOOTH",
"97 -168 OFFCURVE",
"143 -200 OFFCURVE",
"224 -200 CURVE SMOOTH"
);
},
{
closed = 1;
nodes = (
"189 84 OFFCURVE",
"164 110 OFFCURVE",
"164 195 CURVE SMOOTH",
"164 311 LINE SMOOTH",
"164 399 OFFCURVE",
"190 423 OFFCURVE",
"276 423 CURVE SMOOTH",
"358 423 LINE SMOOTH",
"429 423 OFFCURVE",
"470 407 OFFCURVE",
"470 353 CURVE SMOOTH",
"470 153 LINE SMOOTH",
"470 105 OFFCURVE",
"402 84 OFFCURVE",
"314 84 CURVE SMOOTH",
"276 84 LINE SMOOTH"
);
}
);
width = 648;
}
);
leftKerningGroup = o;
leftMetricsKey = o;
rightKerningGroup = u;
rightMetricsKey = n;
unicode = 0067;
},
{
color = 10;
glyphname = h;
lastChange = "2024-11-18 10:37:41 +0000";
layers = (
{
anchors = (
{
name = bottom;
position = "{316, 0}";
},
{
name = center;
position = "{151, 571}";
},
{
name = top;
position = "{114, 673}";
}
);
background = {
anchors = (
{
name = bottom;
position = "{316, 0}";
},
{
name = center;
position = "{151, 571}";
},
{
name = top;
position = "{114, 673}";
}
);
paths = (
{
closed = 1;
nodes = (
"505 0 OFFCURVE",
"512 7 OFFCURVE",
"512 21 CURVE SMOOTH",
"512 287 LINE SMOOTH",
"512 409 OFFCURVE",
"459 462 OFFCURVE",
"337 462 CURVE SMOOTH",
"309 462 LINE SMOOTH",
"189 462 OFFCURVE",
"120 410 OFFCURVE",
"111 313 CURVE SMOOTH",
"111 299 OFFCURVE",
"111 291 OFFCURVE",
"112 291 CURVE SMOOTH",
"125 291 OFFCURVE",
"132 298 OFFCURVE",
"133 311 CURVE SMOOTH",
"142 384 OFFCURVE",
"200 420 OFFCURVE",
"309 420 CURVE SMOOTH",
"337 420 LINE SMOOTH",
"435 420 OFFCURVE",
"470 385 OFFCURVE",
"470 287 CURVE SMOOTH",
"470 21 LINE SMOOTH",
"470 7 OFFCURVE",
"477 0 OFFCURVE",
"491 0 CURVE SMOOTH"
);
},
{
closed = 1;
nodes = (
"125 0 OFFCURVE",
"132 7 OFFCURVE",
"132 21 CURVE SMOOTH",
"132 669 LINE SMOOTH",
"132 683 OFFCURVE",
"125 690 OFFCURVE",
"111 690 CURVE SMOOTH",
"97 690 OFFCURVE",
"90 683 OFFCURVE",
"90 669 CURVE SMOOTH",
"90 21 LINE SMOOTH",
"90 7 OFFCURVE",
"97 0 OFFCURVE",
"111 0 CURVE SMOOTH"
);
}
);
};
layerId = "C9A88445-F9B1-43BF-9834-532EB19954E9";
paths = (
{
closed = 1;
nodes = (
"125 0 OFFCURVE",
"132 7 OFFCURVE",
"132 21 CURVE SMOOTH",
"132 303 LINE",
"139 382 OFFCURVE",
"199 419 OFFCURVE",
"309 419 CURVE SMOOTH",
"337 419 LINE SMOOTH",
"435 419 OFFCURVE",
"470 384 OFFCURVE",
"470 286 CURVE SMOOTH",
"470 21 LINE SMOOTH",
"470 7 OFFCURVE",
"477 0 OFFCURVE",
"491 0 CURVE SMOOTH",
"505 0 OFFCURVE",
"512 7 OFFCURVE",
"512 21 CURVE SMOOTH",
"512 286 LINE SMOOTH",
"512 408 OFFCURVE",
"459 461 OFFCURVE",
"337 461 CURVE SMOOTH",
"309 461 LINE SMOOTH",
"222 461 OFFCURVE",
"162 434 OFFCURVE",
"132 382 CURVE",
"132 669 LINE SMOOTH",
"132 683 OFFCURVE",
"125 690 OFFCURVE",
"111 690 CURVE SMOOTH",
"97 690 OFFCURVE",
"90 683 OFFCURVE",
"90 669 CURVE SMOOTH",
"90 21 LINE SMOOTH",
"90 7 OFFCURVE",
"97 0 OFFCURVE",
"111 0 CURVE SMOOTH"
);
}
);
width = 593;
},
{
anchors = (
{
name = bottom;
position = "{337, 0}";
},
{
name = center;
position = "{200, 583}";
},
{
name = top;
position = "{146, 710}";
}
);
background = {
paths = (
{
closed = 0;
nodes = (
"136 700 LINE",
"136 0 LINE"
);
},
{
closed = 0;
nodes = (
"516 0 LINE",
"516 304 LINE",
"516 414 OFFCURVE",
"472 458 OFFCURVE",
"362 458 CURVE",
"334 458 LINE",
"219 458 OFFCURVE",
"136 418 OFFCURVE",
"136 308 CURVE"
);
}
);
};
layerId = "9D2B49D7-8C02-48EB-8D57-D561CCF616AE";
paths = (
{
closed = 1;
nodes = (
"173 0 OFFCURVE",
"188 15 OFFCURVE",
"188 42 CURVE SMOOTH",
"188 366 LINE",
"197 405 OFFCURVE",
"264 423 OFFCURVE",
"344 423 CURVE SMOOTH",
"372 423 LINE SMOOTH",
"458 423 OFFCURVE",
"484 398 OFFCURVE",
"484 311 CURVE SMOOTH",
"484 42 LINE SMOOTH",
"484 15 OFFCURVE",
"499 0 OFFCURVE",
"526 0 CURVE SMOOTH",
"553 0 OFFCURVE",
"568 15 OFFCURVE",
"568 42 CURVE SMOOTH",
"568 311 LINE SMOOTH",
"568 444 OFFCURVE",
"505 507 OFFCURVE",
"372 507 CURVE SMOOTH",
"344 507 LINE SMOOTH",
"276 507 OFFCURVE",
"223 487 OFFCURVE",
"188 449 CURVE",
"188 662 LINE SMOOTH",
"188 690 OFFCURVE",
"173 704 OFFCURVE",
"146 704 CURVE SMOOTH",
"119 704 OFFCURVE",
"104 690 OFFCURVE",
"104 662 CURVE SMOOTH",
"104 42 LINE SMOOTH",
"104 15 OFFCURVE",
"119 0 OFFCURVE",
"146 0 CURVE SMOOTH"
);
}
);
width = 662;
}
);
leftKerningGroup = h;
leftMetricsKey = n;
rightKerningGroup = n;
rightMetricsKey = n;
unicode = 0068;
},
{
color = 10;
glyphname = i;
lastChange = "2024-11-18 10:37:41 +0000";
layers = (
{
anchors = (
{
name = bottom;
position = "{111, 0}";
}
);
components = (
{
name = idotless;
},
{
name = dotaccentcomb;
transform = "{1, 0, 0, 1, -3, 0}";
}
);
layerId = "C9A88445-F9B1-43BF-9834-532EB19954E9";
width = 222;
},
{
anchors = (
{
name = bottom;
position = "{146, 0}";
}
);
background = {
paths = (
{
closed = 1;
nodes = (
"155 -22 OFFCURVE",
"167 -8 OFFCURVE",
"167 20 CURVE SMOOTH",
"167 440 LINE SMOOTH",
"167 498 OFFCURVE",
"95 498 OFFCURVE",
"95 440 CURVE SMOOTH",
"95 20 LINE SMOOTH",
"95 -11 OFFCURVE",
"111 -22 OFFCURVE",
"130 -22 CURVE SMOOTH"
);
},
{
closed = 1;
nodes = (
"236 610 OFFCURVE",
"134 686 OFFCURVE",
"90 638 CURVE",
"28 592 OFFCURVE",
"126 516 OFFCURVE",
"172 565 CURVE"
);
}
);
};
components = (
{
name = idotless;
},
{
name = dotaccentcomb;
transform = "{1, 0, 0, 1, 45, 0}";
}
);
layerId = "9D2B49D7-8C02-48EB-8D57-D561CCF616AE";
width = 292;
}
);
rightKerningGroup = dotless;
unicode = 0069;
},
{
color = 9;
glyphname = idotless;
lastChange = "2024-11-18 08:40:00 +0000";
layers = (
{
anchors = (
{
name = bottom;
position = "{111, 0}";
},
{
name = ogonek;
position = "{111, 0}";
},
{
name = top;
position = "{111, 461}";
}
);
layerId = "C9A88445-F9B1-43BF-9834-532EB19954E9";
paths = (
{
closed = 1;
nodes = (
"125 0 OFFCURVE",
"132 7 OFFCURVE",
"132 21 CURVE SMOOTH",
"132 440 LINE SMOOTH",
"132 454 OFFCURVE",
"125 461 OFFCURVE",
"111 461 CURVE SMOOTH",
"97 461 OFFCURVE",
"90 454 OFFCURVE",
"90 440 CURVE SMOOTH",
"90 21 LINE SMOOTH",
"90 7 OFFCURVE",
"97 0 OFFCURVE",
"111 0 CURVE SMOOTH"
);
}
);
width = 222;
},
{
anchors = (
{
name = bottom;
position = "{145, 0}";
},
{
name = ogonek;
position = "{118, 7}";
},
{
name = top;
position = "{145, 507}";
}
);
layerId = "9D2B49D7-8C02-48EB-8D57-D561CCF616AE";
paths = (
{
closed = 1;
nodes = (
"173 0 OFFCURVE",
"188 15 OFFCURVE",
"188 42 CURVE SMOOTH",
"188 465 LINE SMOOTH",
"188 492 OFFCURVE",
"173 507 OFFCURVE",
"146 507 CURVE SMOOTH",
"119 507 OFFCURVE",
"104 492 OFFCURVE",
"104 465 CURVE SMOOTH",
"104 42 LINE SMOOTH",
"104 15 OFFCURVE",
"119 0 OFFCURVE",
"146 0 CURVE SMOOTH"
);
}
);
width = 292;
}
);
leftKerningGroup = n;
leftMetricsKey = n;
rightKerningGroup = u;
rightMetricsKey = u;
unicode = 0131;
},
{
color = 10;
glyphname = j;
lastChange = "2024-11-18 10:37:41 +0000";
layers = (
{
components = (
{
name = jdotless;
},
{
name = dotaccentcomb;
transform = "{1, 0, 0, 1, -3, 0}";
}
);
layerId = "C9A88445-F9B1-43BF-9834-532EB19954E9";
width = 222;
},
{
background = {
paths = (
{
closed = 1;
nodes = (
"126 -175 OFFCURVE",
"197 -140 OFFCURVE",
"197 0 CURVE SMOOTH",
"197 422 LINE SMOOTH",
"197 453 OFFCURVE",
"185 468 OFFCURVE",
"161 468 CURVE SMOOTH",
"137 468 OFFCURVE",
"125 453 OFFCURVE",
"125 422 CURVE SMOOTH",
"125 0 LINE SMOOTH",
"125 -89 OFFCURVE",
"94 -103 OFFCURVE",
"-26 -103 CURVE SMOOTH",
"-57 -103 OFFCURVE",
"-72 -115 OFFCURVE",
"-72 -139 CURVE SMOOTH",
"-72 -163 OFFCURVE",
"-57 -175 OFFCURVE",
"-26 -175 CURVE SMOOTH"
);
},
{
closed = 1;
nodes = (
"266 610 OFFCURVE",
"164 686 OFFCURVE",
"120 638 CURVE",
"58 592 OFFCURVE",
"156 516 OFFCURVE",
"202 565 CURVE"
);
}
);
};
components = (
{
name = jdotless;
},
{
name = dotaccentcomb;
transform = "{1, 0, 0, 1, 46, 0}";
}
);
layerId = "9D2B49D7-8C02-48EB-8D57-D561CCF616AE";
width = 292;
}
);
leftKerningGroup = jdotless;
rightKerningGroup = jdotless;
rightMetricsKey = i;
unicode = 006A;
},
{
color = 9;
glyphname = jdotless;
lastChange = "2024-11-18 08:40:00 +0000";
layers = (
{
anchors = (
{
name = bottom;
position = "{42, -200}";
},
{
name = top;
position = "{111, 461}";
}
);
layerId = "C9A88445-F9B1-43BF-9834-532EB19954E9";
paths = (
{
closed = 1;
nodes = (
"91 -200 OFFCURVE",
"132 -159 OFFCURVE",
"132 -69 CURVE SMOOTH",
"132 440 LINE SMOOTH",
"132 454 OFFCURVE",
"124 461 OFFCURVE",
"111 461 CURVE SMOOTH",
"97 461 OFFCURVE",
"90 454 OFFCURVE",
"90 440 CURVE SMOOTH",
"90 -69 LINE SMOOTH",
"90 -136 OFFCURVE",
"68 -158 OFFCURVE",
"1 -158 CURVE SMOOTH",
"-11 -158 OFFCURVE",
"-22 -165 OFFCURVE",
"-22 -179 CURVE SMOOTH",
"-22 -193 OFFCURVE",
"-11 -200 OFFCURVE",
"1 -200 CURVE SMOOTH"
);
}
);
width = 222;
},
{
anchors = (
{
name = bottom;
position = "{20, -200}";
},
{
name = top;
position = "{146, 507}";
}
);
layerId = "9D2B49D7-8C02-48EB-8D57-D561CCF616AE";
paths = (
{
closed = 1;
nodes = (
"139 -200 OFFCURVE",
"188 -151 OFFCURVE",
"188 -48 CURVE SMOOTH",
"188 465 LINE SMOOTH",
"188 492 OFFCURVE",
"173 507 OFFCURVE",
"146 507 CURVE SMOOTH",
"119 507 OFFCURVE",
"104 492 OFFCURVE",
"104 465 CURVE SMOOTH",
"104 -48 LINE SMOOTH",
"104 -102 OFFCURVE",
"90 -116 OFFCURVE",
"36 -116 CURVE SMOOTH",
"9 -116 OFFCURVE",
"-5 -131 OFFCURVE",
"-5 -158 CURVE SMOOTH",
"-5 -185 OFFCURVE",
"7 -200 OFFCURVE",
"36 -200 CURVE SMOOTH"
);
}
);
width = 292;
}
);
leftKerningGroup = jdotless;
rightKerningGroup = jdotless;
rightMetricsKey = idotless;
unicode = 0237;
},
{
color = 10;
glyphname = k;
lastChange = "2024-11-18 10:37:41 +0000";
layers = (
{
anchors = (
{
name = bottom;
position = "{233, 0}";
},
{
name = top;
position = "{111, 690}";
}
);
layerId = "C9A88445-F9B1-43BF-9834-532EB19954E9";
paths = (
{
closed = 1;
nodes = (
"125 0 OFFCURVE",
"132 7 OFFCURVE",
"132 21 CURVE SMOOTH",
"132 186 LINE",
"201 245 LINE",
"411 8 LINE SMOOTH",
"420 -2 OFFCURVE",
"430 -3 OFFCURVE",
"440 6 CURVE SMOOTH",
"451 16 OFFCURVE",
"451 26 OFFCURVE",
"442 36 CURVE SMOOTH",
"234 273 LINE",
"418 431 LINE SMOOTH",
"428 440 OFFCURVE",
"429 451 OFFCURVE",
"420 461 CURVE SMOOTH",
"411 471 OFFCURVE",
"401 472 OFFCURVE",
"391 463 CURVE SMOOTH",
"132 241 LINE",
"132 669 LINE SMOOTH",
"132 683 OFFCURVE",
"125 690 OFFCURVE",
"111 690 CURVE SMOOTH",
"97 690 OFFCURVE",
"90 683 OFFCURVE",
"90 669 CURVE SMOOTH",
"90 21 LINE SMOOTH",
"90 7 OFFCURVE",
"97 0 OFFCURVE",
"111 0 CURVE SMOOTH"
);
}
);
width = 469;
},
{
anchors = (
{
name = bottom;
position = "{255, 0}";
},
{
name = top;
position = "{146, 704}";
}
);
background = {
paths = (
{
closed = 0;
nodes = (
"136 700 LINE",
"136 0 LINE"
);
},
{
closed = 0;
nodes = (
"229 274 LINE",
"471 0 LINE"
);
},
{
closed = 0;
nodes = (
"137 196 LINE",
"484 494 LINE"
);
}
);
};
layerId = "9D2B49D7-8C02-48EB-8D57-D561CCF616AE";
paths = (
{
closed = 1;
nodes = (
"173 0 OFFCURVE",
"188 15 OFFCURVE",
"188 42 CURVE SMOOTH",
"188 175 LINE",
"235 215 LINE",
"410 17 LINE SMOOTH",
"428 -3 OFFCURVE",
"449 -5 OFFCURVE",
"470 13 CURVE SMOOTH",
"491 31 OFFCURVE",
"492 51 OFFCURVE",
"473 72 CURVE SMOOTH",
"299 271 LINE",
"481 428 LINE SMOOTH",
"501 445 OFFCURVE",
"503 466 OFFCURVE",
"485 487 CURVE SMOOTH",
"468 508 OFFCURVE",
"448 510 OFFCURVE",
"426 491 CURVE SMOOTH",
"188 287 LINE",
"188 662 LINE SMOOTH",
"188 689 OFFCURVE",
"173 704 OFFCURVE",
"146 704 CURVE SMOOTH",
"119 704 OFFCURVE",
"104 689 OFFCURVE",
"104 662 CURVE SMOOTH",
"104 42 LINE SMOOTH",
"104 15 OFFCURVE",
"119 0 OFFCURVE",
"146 0 CURVE SMOOTH"
);
}
);
width = 508;
}
);
leftKerningGroup = h;
leftMetricsKey = n;
rightKerningGroup = k;
unicode = 006B;
},
{
color = 9;
glyphname = kgreenlandic;
lastChange = "2024-11-18 08:40:00 +0000";
layers = (
{
anchors = (
{
name = bottom;
position = "{243, 0}";
},
{
name = top;
position = "{246, 461}";
}
);
layerId = "C9A88445-F9B1-43BF-9834-532EB19954E9";
paths = (
{
closed = 1;
nodes = (
"125 0 OFFCURVE",
"132 7 OFFCURVE",
"132 21 CURVE SMOOTH",
"132 186 LINE",
"201 245 LINE",
"411 8 LINE SMOOTH",
"420 -2 OFFCURVE",
"430 -3 OFFCURVE",
"440 6 CURVE SMOOTH",
"451 15 OFFCURVE",
"451 26 OFFCURVE",
"442 36 CURVE SMOOTH",
"234 273 LINE",
"418 431 LINE SMOOTH",
"428 440 OFFCURVE",
"429 451 OFFCURVE",
"420 461 CURVE SMOOTH",
"411 471 OFFCURVE",
"401 472 OFFCURVE",
"391 463 CURVE SMOOTH",
"132 241 LINE",
"132 440 LINE SMOOTH",
"132 454 OFFCURVE",
"125 461 OFFCURVE",
"111 461 CURVE SMOOTH",
"97 461 OFFCURVE",
"90 454 OFFCURVE",
"90 440 CURVE SMOOTH",
"90 21 LINE SMOOTH",
"90 7 OFFCURVE",
"97 0 OFFCURVE",
"111 0 CURVE SMOOTH"
);
}
);
width = 469;
},
{
anchors = (
{
name = bottom;
position = "{265, 0}";
},
{
name = top;
position = "{264, 507}";
}
);
layerId = "9D2B49D7-8C02-48EB-8D57-D561CCF616AE";
paths = (
{
closed = 1;
nodes = (
"173 0 OFFCURVE",
"188 15 OFFCURVE",
"188 42 CURVE SMOOTH",
"188 175 LINE",
"235 215 LINE",
"410 16 LINE SMOOTH",
"428 -3 OFFCURVE",
"450 -5 OFFCURVE",
"469 13 CURVE SMOOTH",
"490 32 OFFCURVE",
"492 51 OFFCURVE",
"473 72 CURVE SMOOTH",
"299 271 LINE",
"481 428 LINE SMOOTH",
"501 445 OFFCURVE",
"503 467 OFFCURVE",
"486 486 CURVE SMOOTH",
"467 507 OFFCURVE",
"447 510 OFFCURVE",
"426 491 CURVE SMOOTH",
"188 287 LINE",
"188 465 LINE SMOOTH",
"188 492 OFFCURVE",
"173 507 OFFCURVE",
"146 507 CURVE SMOOTH",
"119 507 OFFCURVE",
"104 492 OFFCURVE",
"104 465 CURVE SMOOTH",
"104 42 LINE SMOOTH",
"104 15 OFFCURVE",
"119 0 OFFCURVE",
"146 0 CURVE SMOOTH"
);
}
);
width = 508;
}
);
leftKerningGroup = n;
leftMetricsKey = n;
rightKerningGroup = k;
rightMetricsKey = k;
unicode = 0138;
},
{
color = 10;
glyphname = l;
lastChange = "2024-11-18 10:37:41 +0000";
layers = (
{
anchors = (
{
name = bottom;
position = "{178, 0}";
},
{
name = center;
position = "{127, 341}";
},
{
name = top;
position = "{111, 690}";
},
{
name = topright;
position = "{177, 461}";
}
);
layerId = "C9A88445-F9B1-43BF-9834-532EB19954E9";
paths = (
{
closed = 1;
nodes = (
"236 0 OFFCURVE",
"244 7 OFFCURVE",
"244 21 CURVE SMOOTH",
"244 35 OFFCURVE",
"236 42 OFFCURVE",
"222 42 CURVE SMOOTH",
"154 42 OFFCURVE",
"132 63 OFFCURVE",
"132 131 CURVE SMOOTH",
"132 669 LINE SMOOTH",
"132 683 OFFCURVE",
"125 690 OFFCURVE",
"111 690 CURVE SMOOTH",
"97 690 OFFCURVE",
"90 683 OFFCURVE",
"90 669 CURVE SMOOTH",
"90 131 LINE SMOOTH",
"90 40 OFFCURVE",
"131 0 OFFCURVE",
"223 0 CURVE SMOOTH"
);
}
);
width = 274;
},
{
anchors = (
{
name = bottom;
position = "{217, 0}";
},
{
name = center;
position = "{165, 363}";
},
{
name = top;
position = "{146, 704}";
},
{
name = topright;
position = "{232, 507}";
}
);
background = {
paths = (
{
closed = 0;
nodes = (
"136 700 LINE",
"136 146 LINE SMOOTH",
"136 67 OFFCURVE",
"167 36 OFFCURVE",
"246 36 CURVE",
"283 36 LINE"
);
}
);
};
layerId = "9D2B49D7-8C02-48EB-8D57-D561CCF616AE";
paths = (
{
closed = 1;
nodes = (
"284 0 OFFCURVE",
"299 15 OFFCURVE",
"298 42 CURVE SMOOTH",
"298 69 OFFCURVE",
"284 84 OFFCURVE",
"255 84 CURVE SMOOTH",
"201 84 OFFCURVE",
"188 98 OFFCURVE",
"188 152 CURVE SMOOTH",
"188 662 LINE SMOOTH",
"188 689 OFFCURVE",
"173 704 OFFCURVE",
"146 704 CURVE SMOOTH",
"119 704 OFFCURVE",
"104 689 OFFCURVE",
"104 662 CURVE SMOOTH",
"104 152 LINE SMOOTH",
"104 50 OFFCURVE",
"153 0 OFFCURVE",
"255 0 CURVE SMOOTH"
);
}
);
width = 343;
}
);
leftKerningGroup = h;
leftMetricsKey = n;
rightKerningGroup = l;
unicode = 006C;
},
{
color = 9;
glyphname = lslash;
lastChange = "2024-11-18 08:40:00 +0000";
layers = (
{
anchors = (
{
name = _center;
position = "{117, 341}";
}
);
components = (
{
name = l;
}
);
layerId = "C9A88445-F9B1-43BF-9834-532EB19954E9";
paths = (
{
closed = 1;
nodes = (
"19 241 OFFCURVE",
"23 242 OFFCURVE",
"27 245 CURVE SMOOTH",
"223 392 LINE SMOOTH",
"229 397 OFFCURVE",
"232 402 OFFCURVE",
"232 409 CURVE SMOOTH",
"232 421 OFFCURVE",
"223 430 OFFCURVE",
"211 430 CURVE SMOOTH",
"206 430 OFFCURVE",
"202 429 OFFCURVE",
"198 426 CURVE SMOOTH",
"2 279 LINE SMOOTH",
"-4 275 OFFCURVE",
"-7 269 OFFCURVE",
"-7 262 CURVE SMOOTH",
"-7 250 OFFCURVE",
"2 241 OFFCURVE",
"14 241 CURVE SMOOTH"
);
}
);
width = 272;
},
{
anchors = (
{
name = _center;
position = "{158, 363}";
}
);
components = (
{
name = l;
}
);
layerId = "9D2B49D7-8C02-48EB-8D57-D561CCF616AE";
paths = (
{
closed = 1;
nodes = (
"39 235 OFFCURVE",
"44 236 OFFCURVE",
"49 241 CURVE SMOOTH",
"304 431 LINE SMOOTH",
"312 436 OFFCURVE",
"316 444 OFFCURVE",
"316 454 CURVE SMOOTH",
"316 469 OFFCURVE",
"303 482 OFFCURVE",
"288 482 CURVE SMOOTH",
"282 482 OFFCURVE",
"276 481 OFFCURVE",
"271 476 CURVE SMOOTH",
"16 286 LINE SMOOTH",
"9 281 OFFCURVE",
"4 273 OFFCURVE",
"4 263 CURVE SMOOTH",
"4 249 OFFCURVE",
"17 235 OFFCURVE",
"32 235 CURVE SMOOTH"
);
}
);
width = 356;
}
);
leftKerningGroup = hbar;
rightKerningGroup = l;
unicode = 0142;
},
{
color = 10;
glyphname = m;
lastChange = "2024-11-18 10:37:41 +0000";
layers = (
{
anchors = (
{
name = bottom;
position = "{416, 0}";
},
{
name = top;
position = "{424, 461}";
}
);
layerId = "C9A88445-F9B1-43BF-9834-532EB19954E9";
paths = (
{
closed = 1;
nodes = (
"569 462 LINE SMOOTH",
"498 462 OFFCURVE",
"457 439 OFFCURVE",
"430 383 CURVE",
"405 439 OFFCURVE",
"367 462 OFFCURVE",
"301 462 CURVE SMOOTH",
"259 462 LINE SMOOTH",
"196 462 OFFCURVE",
"159 443 OFFCURVE",
"132 396 CURVE",
"132 440 LINE SMOOTH",
"132 454 OFFCURVE",
"125 461 OFFCURVE",
"111 461 CURVE SMOOTH",
"97 461 OFFCURVE",
"90 454 OFFCURVE",
"90 440 CURVE SMOOTH",
"90 20 LINE SMOOTH",
"90 6 OFFCURVE",
"97 -1 OFFCURVE",
"111 -1 CURVE SMOOTH",
"125 -1 OFFCURVE",
"132 6 OFFCURVE",
"132 20 CURVE SMOOTH",
"132 291 LINE SMOOTH",
"132 383 OFFCURVE",
"168 420 OFFCURVE",
"259 420 CURVE SMOOTH",
"301 420 LINE SMOOTH",
"372 420 OFFCURVE",
"400 383 OFFCURVE",
"400 291 CURVE SMOOTH",
"400 20 LINE SMOOTH",
"400 6 OFFCURVE",
"407 -1 OFFCURVE",
"421 -1 CURVE SMOOTH",
"435 -1 OFFCURVE",
"442 6 OFFCURVE",
"442 20 CURVE SMOOTH",
"442 291 LINE SMOOTH",
"442 383 OFFCURVE",
"478 420 OFFCURVE",
"569 420 CURVE SMOOTH",
"611 420 LINE SMOOTH",
"682 420 OFFCURVE",
"710 383 OFFCURVE",
"710 291 CURVE SMOOTH",
"710 20 LINE SMOOTH",
"710 6 OFFCURVE",
"717 -1 OFFCURVE",
"731 -1 CURVE SMOOTH",
"745 -1 OFFCURVE",
"752 6 OFFCURVE",
"752 20 CURVE SMOOTH",
"752 291 LINE SMOOTH",
"752 413 OFFCURVE",
"712 462 OFFCURVE",
"611 462 CURVE SMOOTH"
);
}
);
width = 833;
},
{
anchors = (
{
name = bottom;
position = "{472, 0}";
},
{
name = top;
position = "{469, 507}";
}
);
background = {
paths = (
{
closed = 1;
nodes = (
"160 0 OFFCURVE",
"172 12 OFFCURVE",
"172 36 CURVE SMOOTH",
"172 308 LINE SMOOTH",
"172 389 OFFCURVE",
"218 422 OFFCURVE",
"334 422 CURVE SMOOTH",
"375 422 LINE SMOOTH",
"457 422 OFFCURVE",
"490 389 OFFCURVE",
"490 308 CURVE SMOOTH",
"490 36 LINE SMOOTH",
"490 12 OFFCURVE",
"502 0 OFFCURVE",
"526 0 CURVE SMOOTH",
"550 0 OFFCURVE",
"562 12 OFFCURVE",
"562 36 CURVE SMOOTH",
"562 308 LINE SMOOTH",
"562 441 OFFCURVE",
"509 494 OFFCURVE",
"375 494 CURVE SMOOTH",
"334 494 LINE SMOOTH",
"253 494 OFFCURVE",
"207 474 OFFCURVE",
"172 424 CURVE",
"172 458 LINE SMOOTH",
"172 482 OFFCURVE",
"160 494 OFFCURVE",
"136 494 CURVE SMOOTH",
"112 494 OFFCURVE",
"100 482 OFFCURVE",
"100 458 CURVE SMOOTH",
"100 36 LINE SMOOTH",
"100 12 OFFCURVE",
"112 0 OFFCURVE",
"136 0 CURVE SMOOTH"
);
}
);
};
layerId = "9D2B49D7-8C02-48EB-8D57-D561CCF616AE";
paths = (
{
closed = 1;
nodes = (
"618 507 LINE SMOOTH",
"557 507 OFFCURVE",
"522 487 OFFCURVE",
"487 434 CURVE",
"462 486 OFFCURVE",
"418 507 OFFCURVE",
"335 507 CURVE SMOOTH",
"322 507 LINE SMOOTH",
"263 507 OFFCURVE",
"223 488 OFFCURVE",
"188 442 CURVE",
"188 465 LINE SMOOTH",
"188 493 OFFCURVE",
"173 507 OFFCURVE",
"146 507 CURVE SMOOTH",
"118 507 OFFCURVE",
"104 493 OFFCURVE",
"104 465 CURVE SMOOTH",
"104 42 LINE SMOOTH",
"104 14 OFFCURVE",
"118 0 OFFCURVE",
"146 0 CURVE SMOOTH",
"174 0 OFFCURVE",
"188 14 OFFCURVE",
"188 42 CURVE SMOOTH",
"188 315 LINE SMOOTH",
"188 391 OFFCURVE",
"218 423 OFFCURVE",
"294 423 CURVE SMOOTH",
"335 423 LINE SMOOTH",
"401 423 OFFCURVE",
"428 391 OFFCURVE",
"428 315 CURVE SMOOTH",
"428 42 LINE SMOOTH",
"428 14 OFFCURVE",
"442 0 OFFCURVE",
"470 0 CURVE SMOOTH",
"498 0 OFFCURVE",
"512 14 OFFCURVE",
"512 42 CURVE SMOOTH",
"512 315 LINE SMOOTH",
"512 391 OFFCURVE",
"542 423 OFFCURVE",
"618 423 CURVE SMOOTH",
"659 423 LINE SMOOTH",
"725 423 OFFCURVE",
"752 391 OFFCURVE",
"752 315 CURVE SMOOTH",
"752 42 LINE SMOOTH",
"752 14 OFFCURVE",
"766 0 OFFCURVE",
"794 0 CURVE SMOOTH",
"822 0 OFFCURVE",
"836 14 OFFCURVE",
"836 42 CURVE SMOOTH",
"836 315 LINE SMOOTH",
"836 452 OFFCURVE",
"785 507 OFFCURVE",
"659 507 CURVE SMOOTH"
);
}
);
width = 930;
}
);
leftKerningGroup = n;
leftMetricsKey = n;
rightKerningGroup = n;
rightMetricsKey = n;
unicode = 006D;
},
{
color = 10;
glyphname = n;
lastChange = "2024-12-09 16:00:50 +0000";
layers = (
{
anchors = (
{
name = bottom;
position = "{312, 0}";
},
{
name = top;
position = "{302, 461}";
}
);
background = {
paths = (
{
closed = 1;
nodes = (
"492 21 CURVE SMOOTH",
"492 286 LINE SMOOTH",
"492 408 OFFCURVE",
"439 461 OFFCURVE",
"317 461 CURVE SMOOTH",
"289 461 LINE SMOOTH",
"169 461 OFFCURVE",
"100 409 OFFCURVE",
"91 312 CURVE SMOOTH",
"91 298 OFFCURVE",
"91 290 OFFCURVE",
"92 290 CURVE SMOOTH",
"105 290 OFFCURVE",
"112 297 OFFCURVE",
"113 310 CURVE SMOOTH",
"122 383 OFFCURVE",
"180 419 OFFCURVE",
"289 419 CURVE SMOOTH",
"317 419 LINE SMOOTH",
"415 419 OFFCURVE",
"450 384 OFFCURVE",
"450 286 CURVE SMOOTH",
"450 21 LINE SMOOTH",
"450 7 OFFCURVE",
"457 0 OFFCURVE",
"471 0 CURVE SMOOTH",
"485 0 OFFCURVE",
"492 7 OFFCURVE"
);
},
{
closed = 1;
nodes = (
"112 21 CURVE SMOOTH",
"112 440 LINE SMOOTH",
"112 454 OFFCURVE",
"105 461 OFFCURVE",
"91 461 CURVE SMOOTH",
"77 461 OFFCURVE",
"70 454 OFFCURVE",
"70 440 CURVE SMOOTH",
"70 21 LINE SMOOTH",
"70 7 OFFCURVE",
"77 0 OFFCURVE",
"91 0 CURVE SMOOTH",
"105 0 OFFCURVE",
"112 7 OFFCURVE"
);
}
);
};
layerId = "C9A88445-F9B1-43BF-9834-532EB19954E9";
paths = (
{
closed = 1;
nodes = (
"125 0 OFFCURVE",
"132 7 OFFCURVE",
"132 21 CURVE SMOOTH",
"132 303 LINE",
"139 382 OFFCURVE",
"199 419 OFFCURVE",
"309 419 CURVE SMOOTH",
"337 419 LINE SMOOTH",
"435 419 OFFCURVE",
"470 384 OFFCURVE",
"470 286 CURVE SMOOTH",
"470 21 LINE SMOOTH",
"470 7 OFFCURVE",
"477 0 OFFCURVE",
"491 0 CURVE SMOOTH",
"505 0 OFFCURVE",
"512 7 OFFCURVE",
"512 21 CURVE SMOOTH",
"512 286 LINE SMOOTH",
"512 408 OFFCURVE",
"459 461 OFFCURVE",
"337 461 CURVE SMOOTH",
"309 461 LINE SMOOTH",
"222 461 OFFCURVE",
"162 434 OFFCURVE",
"132 382 CURVE",
"132 440 LINE SMOOTH",
"132 454 OFFCURVE",
"125 461 OFFCURVE",
"111 461 CURVE SMOOTH",
"97 461 OFFCURVE",
"90 454 OFFCURVE",
"90 440 CURVE SMOOTH",
"90 21 LINE SMOOTH",
"90 7 OFFCURVE",
"97 0 OFFCURVE",
"111 0 CURVE SMOOTH"
);
}
);
width = 593;
},
{
anchors = (
{
name = bottom;
position = "{353, 0}";
},
{
name = top;
position = "{357, 507}";
}
);
background = {
paths = (
{
closed = 0;
nodes = (
"136 494 LINE",
"136 0 LINE"
);
},
{
closed = 0;
nodes = (
"516 0 LINE",
"516 304 LINE SMOOTH",
"516 414 OFFCURVE",
"472 458 OFFCURVE",
"362 458 CURVE",
"334 458 LINE",
"219 458 OFFCURVE",
"136 418 OFFCURVE",
"136 308 CURVE"
);
}
);
};
layerId = "9D2B49D7-8C02-48EB-8D57-D561CCF616AE";
paths = (
{
closed = 1;
nodes = (
"173 0 OFFCURVE",
"188 15 OFFCURVE",
"188 42 CURVE SMOOTH",
"188 366 LINE",
"197 405 OFFCURVE",
"264 423 OFFCURVE",
"344 423 CURVE SMOOTH",
"372 423 LINE SMOOTH",
"458 423 OFFCURVE",
"484 398 OFFCURVE",
"484 311 CURVE SMOOTH",
"484 42 LINE SMOOTH",
"484 15 OFFCURVE",
"499 0 OFFCURVE",
"526 0 CURVE SMOOTH",
"553 0 OFFCURVE",
"568 15 OFFCURVE",
"568 42 CURVE SMOOTH",
"568 311 LINE SMOOTH",
"568 444 OFFCURVE",
"505 507 OFFCURVE",
"372 507 CURVE SMOOTH",
"344 507 LINE SMOOTH",
"276 507 OFFCURVE",
"223 487 OFFCURVE",
"188 449 CURVE",
"188 465 LINE SMOOTH",
"188 493 OFFCURVE",
"173 507 OFFCURVE",
"146 507 CURVE SMOOTH",
"119 507 OFFCURVE",
"104 493 OFFCURVE",
"104 465 CURVE SMOOTH",
"104 42 LINE SMOOTH",
"104 15 OFFCURVE",
"119 0 OFFCURVE",
"146 0 CURVE SMOOTH"
);
}
);
width = 662;
}
);
leftKerningGroup = n;
rightKerningGroup = n;
unicode = 006E;
},
{
color = 9;
glyphname = eng;
lastChange = "2024-11-18 08:40:00 +0000";
layers = (
{
anchors = (
{
name = bottom;
position = "{332, 0}";
},
{
name = top;
position = "{322, 461}";
}
);
layerId = "C9A88445-F9B1-43BF-9834-532EB19954E9";
paths = (
{
closed = 1;
nodes = (
"389 -203 LINE SMOOTH",
"474 -203 OFFCURVE",
"512 -165 OFFCURVE",
"512 -79 CURVE SMOOTH",
"512 286 LINE SMOOTH",
"512 408 OFFCURVE",
"459 461 OFFCURVE",
"337 461 CURVE SMOOTH",
"309 461 LINE SMOOTH",
"222 461 OFFCURVE",
"162 434 OFFCURVE",
"132 382 CURVE",
"132 440 LINE SMOOTH",
"132 454 OFFCURVE",
"125 461 OFFCURVE",
"111 461 CURVE SMOOTH",
"97 461 OFFCURVE",
"90 454 OFFCURVE",
"90 440 CURVE SMOOTH",
"90 21 LINE SMOOTH",
"90 7 OFFCURVE",
"97 0 OFFCURVE",
"111 0 CURVE SMOOTH",
"125 0 OFFCURVE",
"132 7 OFFCURVE",
"132 21 CURVE SMOOTH",
"132 303 LINE",
"139 382 OFFCURVE",
"199 419 OFFCURVE",
"309 419 CURVE SMOOTH",
"337 419 LINE SMOOTH",
"435 419 OFFCURVE",
"470 384 OFFCURVE",
"470 286 CURVE SMOOTH",
"470 -79 LINE SMOOTH",
"470 -142 OFFCURVE",
"450 -161 OFFCURVE",
"389 -161 CURVE SMOOTH",
"293 -161 LINE SMOOTH",
"232 -161 OFFCURVE",
"212 -142 OFFCURVE",
"212 -79 CURVE SMOOTH",
"212 -65 OFFCURVE",
"205 -58 OFFCURVE",
"191 -58 CURVE SMOOTH",
"177 -58 OFFCURVE",
"170 -65 OFFCURVE",
"170 -79 CURVE SMOOTH",
"170 -165 OFFCURVE",
"208 -203 OFFCURVE",
"293 -203 CURVE SMOOTH"
);
}
);
width = 592;
},
{
anchors = (
{
name = bottom;
position = "{353, 0}";
},
{
name = top;
position = "{357, 507}";
}
);
layerId = "9D2B49D7-8C02-48EB-8D57-D561CCF616AE";
paths = (
{
closed = 1;
nodes = (
"424 -199 LINE SMOOTH",
"522 -199 OFFCURVE",
"568 -152 OFFCURVE",
"568 -55 CURVE SMOOTH",
"568 311 LINE SMOOTH",
"568 444 OFFCURVE",
"505 507 OFFCURVE",
"372 507 CURVE SMOOTH",
"344 507 LINE SMOOTH",
"276 507 OFFCURVE",
"223 487 OFFCURVE",
"188 449 CURVE",
"188 465 LINE SMOOTH",
"188 493 OFFCURVE",
"173 507 OFFCURVE",
"146 507 CURVE SMOOTH",
"119 507 OFFCURVE",
"104 493 OFFCURVE",
"104 465 CURVE SMOOTH",
"104 42 LINE SMOOTH",
"104 15 OFFCURVE",
"119 0 OFFCURVE",
"146 0 CURVE SMOOTH",
"173 0 OFFCURVE",
"188 15 OFFCURVE",
"188 42 CURVE SMOOTH",
"188 366 LINE",
"197 405 OFFCURVE",
"264 423 OFFCURVE",
"344 423 CURVE SMOOTH",
"372 423 LINE SMOOTH",
"458 423 OFFCURVE",
"484 398 OFFCURVE",
"484 311 CURVE SMOOTH",
"484 -55 LINE SMOOTH",
"484 -104 OFFCURVE",
"474 -115 OFFCURVE",
"424 -115 CURVE SMOOTH",
"328 -115 LINE SMOOTH",
"284 -115 OFFCURVE",
"270 -109 OFFCURVE",
"265 -95 CURVE SMOOTH",
"258 -76 OFFCURVE",
"243 -64 OFFCURVE",
"219 -64 CURVE SMOOTH",
"193 -64 OFFCURVE",
"184 -79 OFFCURVE",
"188 -108 CURVE SMOOTH",
"197 -168 OFFCURVE",
"251 -199 OFFCURVE",
"328 -199 CURVE SMOOTH"
);
}
);
width = 662;
}
);
leftKerningGroup = n;
rightKerningGroup = j;
unicode = 014B;
},
{
color = 10;
glyphname = o;
lastChange = "2024-11-18 10:37:41 +0000";
layers = (
{
anchors = (
{
name = bottom;
position = "{296, 0}";
},
{
name = center;
position = "{296, 231}";
},
{
name = ogonek;
position = "{462, 44}";
},
{
name = top;
position = "{296, 461}";
},
{
name = topright;
position = "{452, 434}";
}
);
layerId = "C9A88445-F9B1-43BF-9834-532EB19954E9";
paths = (
{
closed = 1;
nodes = (
"337 0 LINE SMOOTH",
"459 0 OFFCURVE",
"512 53 OFFCURVE",
"512 175 CURVE SMOOTH",
"512 286 LINE SMOOTH",
"512 408 OFFCURVE",
"459 461 OFFCURVE",
"337 461 CURVE SMOOTH",
"255 461 LINE SMOOTH",
"133 462 OFFCURVE",
"80 409 OFFCURVE",
"80 286 CURVE SMOOTH",
"80 174 LINE SMOOTH",
"80 53 OFFCURVE",
"133 0 OFFCURVE",
"255 0 CURVE SMOOTH"
);
},
{
closed = 1;
nodes = (
"122 174 CURVE SMOOTH",
"122 286 LINE SMOOTH",
"122 385 OFFCURVE",
"157 420 OFFCURVE",
"255 419 CURVE SMOOTH",
"337 419 LINE SMOOTH",
"435 419 OFFCURVE",
"470 384 OFFCURVE",
"470 286 CURVE SMOOTH",
"470 175 LINE SMOOTH",
"470 77 OFFCURVE",
"435 42 OFFCURVE",
"337 42 CURVE SMOOTH",
"255 42 LINE SMOOTH",
"157 42 OFFCURVE",
"122 77 OFFCURVE"
);
}
);
width = 592;
},
{
anchors = (
{
name = bottom;
position = "{317, 0}";
},
{
name = center;
position = "{317, 253}";
},
{
name = ogonek;
position = "{472, 33}";
},
{
name = top;
position = "{317, 507}";
},
{
name = topright;
position = "{481, 451}";
}
);
background = {
paths = (
{
closed = 1;
nodes = (
"461 36 OFFCURVE",
"505 80 OFFCURVE",
"505 190 CURVE",
"505 304 LINE",
"505 414 OFFCURVE",
"461 458 OFFCURVE",
"351 458 CURVE",
"269 458 LINE",
"159 459 OFFCURVE",
"115 415 OFFCURVE",
"115 304 CURVE",
"115 189 LINE",
"115 80 OFFCURVE",
"159 36 OFFCURVE",
"269 36 CURVE",
"351 36 LINE"
);
}
);
};
layerId = "9D2B49D7-8C02-48EB-8D57-D561CCF616AE";
paths = (
{
closed = 1;
nodes = (
"358 0 LINE SMOOTH",
"491 0 OFFCURVE",
"554 63 OFFCURVE",
"554 196 CURVE SMOOTH",
"554 311 LINE SMOOTH",
"554 444 OFFCURVE",
"491 507 OFFCURVE",
"358 507 CURVE SMOOTH",
"276 507 LINE SMOOTH",
"143 507 OFFCURVE",
"80 445 OFFCURVE",
"80 311 CURVE SMOOTH",
"80 195 LINE SMOOTH",
"80 63 OFFCURVE",
"143 0 OFFCURVE",
"276 0 CURVE SMOOTH"
);
},
{
closed = 1;
nodes = (
"164 195 CURVE SMOOTH",
"164 311 LINE SMOOTH",
"164 399 OFFCURVE",
"189 423 OFFCURVE",
"276 423 CURVE SMOOTH",
"358 423 LINE SMOOTH",
"445 423 OFFCURVE",
"470 398 OFFCURVE",
"470 311 CURVE SMOOTH",
"470 196 LINE SMOOTH",
"470 109 OFFCURVE",
"445 84 OFFCURVE",
"358 84 CURVE SMOOTH",
"276 84 LINE SMOOTH",
"189 84 OFFCURVE",
"164 109 OFFCURVE"
);
}
);
width = 634;
}
);
leftKerningGroup = o;
rightKerningGroup = o;
unicode = 006F;
},
{
color = 9;
glyphname = oslash;
lastChange = "2024-11-18 08:40:00 +0000";
layers = (
{
anchors = (
{
name = top;
position = "{296, 461}";
}
);
components = (
{
name = o;
}
);
layerId = "C9A88445-F9B1-43BF-9834-532EB19954E9";
paths = (
{
closed = 1;
nodes = (
"132 -67 OFFCURVE",
"139 -65 OFFCURVE",
"145 -55 CURVE SMOOTH",
"191 19 LINE",
"197 28 LINE",
"432 413 LINE",
"437 421 LINE",
"475 483 LINE SMOOTH",
"484 498 OFFCURVE",
"480 510 OFFCURVE",
"462 515 CURVE SMOOTH",
"452 518 OFFCURVE",
"445 516 OFFCURVE",
"439 506 CURVE SMOOTH",
"399 439 LINE",
"394 432 LINE",
"156 42 LINE",
"152 36 LINE",
"110 -32 LINE SMOOTH",
"101 -46 OFFCURVE",
"105 -60 OFFCURVE",
"121 -64 CURVE SMOOTH"
);
}
);
width = 592;
},
{
anchors = (
{
name = top;
position = "{317, 507}";
}
);
components = (
{
name = o;
}
);
layerId = "9D2B49D7-8C02-48EB-8D57-D561CCF616AE";
paths = (
{
closed = 1;
nodes = (
"138 -75 OFFCURVE",
"156 -71 OFFCURVE",
"169 -49 CURVE SMOOTH",
"218 30 LINE",
"228 50 LINE",
"461 421 LINE",
"476 438 LINE",
"510 493 LINE SMOOTH",
"522 512 OFFCURVE",
"519 528 OFFCURVE",
"501 542 CURVE SMOOTH",
"480 556 OFFCURVE",
"462 551 OFFCURVE",
"449 531 CURVE SMOOTH",
"412 471 LINE",
"407 457 LINE",
"164 71 LINE",
"149 57 LINE",
"106 -12 LINE SMOOTH",
"94 -32 OFFCURVE",
"98 -47 OFFCURVE",
"117 -61 CURVE SMOOTH"
);
}
);
width = 634;
}
);
leftKerningGroup = o;
rightKerningGroup = o;
unicode = 00F8;
},
{
color = 9;
glyphname = oe;
lastChange = "2024-11-18 08:40:00 +0000";
layers = (
{
anchors = (
{
name = bottom;
position = "{456, 0}";
},
{
name = top;
position = "{456, 461}";
}
);
layerId = "C9A88445-F9B1-43BF-9834-532EB19954E9";
paths = (
{
closed = 1;
nodes = (
"307 1 LINE SMOOTH",
"385 1 OFFCURVE",
"435 23 OFFCURVE",
"461 71 CURVE",
"486 23 OFFCURVE",
"535 1 OFFCURVE",
"610 1 CURVE SMOOTH",
"671 1 LINE SMOOTH",
"789 1 OFFCURVE",
"842 42 OFFCURVE",
"842 137 CURVE SMOOTH",
"842 149 OFFCURVE",
"833 158 OFFCURVE",
"821 158 CURVE SMOOTH",
"809 158 OFFCURVE",
"800 149 OFFCURVE",
"800 137 CURVE SMOOTH",
"800 68 OFFCURVE",
"767 43 OFFCURVE",
"671 43 CURVE SMOOTH",
"610 43 LINE SMOOTH",
"516 43 OFFCURVE",
"482 79 OFFCURVE",
"482 178 CURVE SMOOTH",
"482 241 LINE",
"821 241 LINE SMOOTH",
"834 241 OFFCURVE",
"842 248 OFFCURVE",
"842 262 CURVE SMOOTH",
"842 401 OFFCURVE",
"790 462 OFFCURVE",
"671 462 CURVE SMOOTH",
"611 462 LINE SMOOTH",
"535 462 OFFCURVE",
"486 441 OFFCURVE",
"461 392 CURVE",
"435 440 OFFCURVE",
"385 462 OFFCURVE",
"307 462 CURVE SMOOTH",
"255 462 LINE SMOOTH",
"133 462 OFFCURVE",
"80 410 OFFCURVE",
"80 287 CURVE SMOOTH",
"80 175 LINE SMOOTH",
"80 54 OFFCURVE",
"133 1 OFFCURVE",
"255 1 CURVE SMOOTH"
);
},
{
closed = 1;
nodes = (
"157 43 OFFCURVE",
"122 78 OFFCURVE",
"122 175 CURVE SMOOTH",
"122 287 LINE SMOOTH",
"122 386 OFFCURVE",
"157 420 OFFCURVE",
"255 420 CURVE SMOOTH",
"307 420 LINE SMOOTH",
"405 420 OFFCURVE",
"440 385 OFFCURVE",
"440 287 CURVE SMOOTH",
"440 176 LINE SMOOTH",
"440 78 OFFCURVE",
"405 43 OFFCURVE",
"307 43 CURVE SMOOTH",
"255 43 LINE SMOOTH"
);
},
{
closed = 1;
nodes = (
"482 383 OFFCURVE",
"512 420 OFFCURVE",
"611 420 CURVE SMOOTH",
"671 420 LINE SMOOTH",
"760 420 OFFCURVE",
"795 384 OFFCURVE",
"800 283 CURVE",
"482 283 LINE"
);
}
);
width = 922;
},
{
anchors = (
{
name = bottom;
position = "{498, 0}";
},
{
name = top;
position = "{498, 507}";
}
);
layerId = "9D2B49D7-8C02-48EB-8D57-D561CCF616AE";
paths = (
{
closed = 1;
nodes = (
"328 -20 LINE SMOOTH",
"398 -20 OFFCURVE",
"449 -2 OFFCURVE",
"482 61 CURVE",
"514 -2 OFFCURVE",
"563 -20 OFFCURVE",
"631 -20 CURVE SMOOTH",
"692 -20 LINE SMOOTH",
"718 -20 OFFCURVE",
"884 -20 OFFCURVE",
"884 121 CURVE SMOOTH",
"884 169 OFFCURVE",
"865 179 OFFCURVE",
"842 179 CURVE SMOOTH",
"810 179 OFFCURVE",
"806 159 OFFCURVE",
"800 137 CURVE SMOOTH",
"782 64 OFFCURVE",
"783 64 OFFCURVE",
"692 64 CURVE SMOOTH",
"631 64 LINE SMOOTH",
"550 64 OFFCURVE",
"524 89 OFFCURVE",
"524 178 CURVE SMOOTH",
"524 220 LINE",
"841 220 LINE SMOOTH",
"866 220 OFFCURVE",
"884 220 OFFCURVE",
"884 285 CURVE SMOOTH",
"884 401 OFFCURVE",
"824 484 OFFCURVE",
"692 484 CURVE SMOOTH",
"632 484 LINE SMOOTH",
"563 484 OFFCURVE",
"513 466 OFFCURVE",
"481 403 CURVE",
"449 467 OFFCURVE",
"398 484 OFFCURVE",
"328 484 CURVE SMOOTH",
"276 484 LINE SMOOTH",
"143 484 OFFCURVE",
"80 421 OFFCURVE",
"80 287 CURVE SMOOTH",
"80 175 LINE SMOOTH",
"80 43 OFFCURVE",
"143 -20 OFFCURVE",
"276 -20 CURVE SMOOTH"
);
},
{
closed = 1;
nodes = (
"189 64 OFFCURVE",
"164 89 OFFCURVE",
"164 175 CURVE SMOOTH",
"164 287 LINE SMOOTH",
"164 375 OFFCURVE",
"189 400 OFFCURVE",
"276 400 CURVE SMOOTH",
"328 400 LINE SMOOTH",
"415 400 OFFCURVE",
"440 374 OFFCURVE",
"440 287 CURVE SMOOTH",
"440 176 LINE SMOOTH",
"440 89 OFFCURVE",
"415 64 OFFCURVE",
"328 64 CURVE SMOOTH",
"276 64 LINE SMOOTH"
);
},
{
closed = 1;
nodes = (
"527 380 OFFCURVE",
"555 400 OFFCURVE",
"632 400 CURVE SMOOTH",
"692 400 LINE SMOOTH",
"761 400 OFFCURVE",
"791 377 OFFCURVE",
"799 304 CURVE",
"524 304 LINE"
);
}
);
width = 964;
}
);
leftKerningGroup = o;
leftMetricsKey = o;
rightKerningGroup = e;
rightMetricsKey = e;
unicode = 0153;
},
{
color = 10;
glyphname = p;
lastChange = "2024-11-18 10:37:41 +0000";
layers = (
{
anchors = (
{
name = bottom;
position = "{303, 0}";
},
{
name = bottomleft;
position = "{111, -200}";
},
{
name = center;
position = "{328, 240}";
},
{
name = top;
position = "{323, 461}";
}
);
layerId = "C9A88445-F9B1-43BF-9834-532EB19954E9";
paths = (
{
closed = 1;
nodes = (
"125 -200 OFFCURVE",
"132 -193 OFFCURVE",
"132 -179 CURVE SMOOTH",
"132 0 LINE",
"347 0 LINE SMOOTH",
"469 0 OFFCURVE",
"522 53 OFFCURVE",
"522 175 CURVE SMOOTH",
"522 286 LINE SMOOTH",
"522 408 OFFCURVE",
"469 461 OFFCURVE",
"347 461 CURVE SMOOTH",
"309 461 LINE SMOOTH",
"215 461 OFFCURVE",
"160 435 OFFCURVE",
"132 385 CURVE",
"132 440 LINE SMOOTH",
"132 454 OFFCURVE",
"125 461 OFFCURVE",
"111 461 CURVE SMOOTH",
"97 461 OFFCURVE",
"90 454 OFFCURVE",
"90 440 CURVE SMOOTH",
"90 -179 LINE SMOOTH",
"90 -193 OFFCURVE",
"97 -200 OFFCURVE",
"111 -200 CURVE SMOOTH"
);
},
{
closed = 1;
nodes = (
"132 304 LINE",
"142 382 OFFCURVE",
"195 419 OFFCURVE",
"309 419 CURVE SMOOTH",
"347 419 LINE SMOOTH",
"445 419 OFFCURVE",
"480 384 OFFCURVE",
"480 286 CURVE SMOOTH",
"480 175 LINE SMOOTH",
"480 77 OFFCURVE",
"445 42 OFFCURVE",
"347 42 CURVE SMOOTH",
"132 42 LINE"
);
}
);
width = 602;
},
{
anchors = (
{
name = bottom;
position = "{346, 0}";
},
{
name = bottomleft;
position = "{146, -200}";
},
{
name = center;
position = "{352, 234}";
},
{
name = top;
position = "{365, 507}";
}
);
background = {
paths = (
{
closed = 0;
nodes = (
"136 -200 LINE",
"136 494 LINE"
);
},
{
closed = 0;
nodes = (
"136 36 LINE",
"372 36 LINE",
"482 36 OFFCURVE",
"526 80 OFFCURVE",
"526 190 CURVE",
"526 304 LINE",
"526 414 OFFCURVE",
"482 458 OFFCURVE",
"372 458 CURVE",
"334 458 LINE",
"219 458 OFFCURVE",
"136 418 OFFCURVE",
"136 308 CURVE"
);
}
);
};
layerId = "9D2B49D7-8C02-48EB-8D57-D561CCF616AE";
paths = (
{
closed = 1;
nodes = (
"173 -200 OFFCURVE",
"188 -185 OFFCURVE",
"188 -158 CURVE SMOOTH",
"188 0 LINE",
"382 0 LINE SMOOTH",
"515 0 OFFCURVE",
"578 63 OFFCURVE",
"578 196 CURVE SMOOTH",
"578 311 LINE SMOOTH",
"578 444 OFFCURVE",
"515 507 OFFCURVE",
"382 507 CURVE SMOOTH",
"344 507 LINE SMOOTH",
"278 507 OFFCURVE",
"224 489 OFFCURVE",
"188 453 CURVE",
"188 465 LINE SMOOTH",
"188 492 OFFCURVE",
"173 507 OFFCURVE",
"146 507 CURVE SMOOTH",
"119 507 OFFCURVE",
"104 492 OFFCURVE",
"104 465 CURVE SMOOTH",
"104 -158 LINE SMOOTH",
"104 -185 OFFCURVE",
"119 -200 OFFCURVE",
"146 -200 CURVE SMOOTH"
);
},
{
closed = 1;
nodes = (
"188 361 LINE",
"192 404 OFFCURVE",
"261 423 OFFCURVE",
"344 423 CURVE SMOOTH",
"382 423 LINE SMOOTH",
"469 423 OFFCURVE",
"494 398 OFFCURVE",
"494 311 CURVE SMOOTH",
"494 196 LINE SMOOTH",
"494 109 OFFCURVE",
"469 84 OFFCURVE",
"382 84 CURVE SMOOTH",
"188 84 LINE"
);
}
);
width = 658;
}
);
leftKerningGroup = n;
leftMetricsKey = n;
rightKerningGroup = o;
rightMetricsKey = o;
unicode = 0070;
},
{
color = 9;
glyphname = thorn;
lastChange = "2024-11-18 08:40:00 +0000";
layers = (
{
layerId = "C9A88445-F9B1-43BF-9834-532EB19954E9";
paths = (
{
closed = 1;
nodes = (
"125 -200 OFFCURVE",
"132 -193 OFFCURVE",
"132 -179 CURVE SMOOTH",
"132 1 LINE",
"347 1 LINE SMOOTH",
"469 1 OFFCURVE",
"522 54 OFFCURVE",
"522 176 CURVE SMOOTH",
"522 287 LINE SMOOTH",
"522 409 OFFCURVE",
"469 462 OFFCURVE",
"347 462 CURVE SMOOTH",
"309 462 LINE SMOOTH",
"228 462 OFFCURVE",
"169 436 OFFCURVE",
"132 386 CURVE",
"132 623 LINE SMOOTH",
"132 637 OFFCURVE",
"125 644 OFFCURVE",
"111 644 CURVE SMOOTH",
"97 644 OFFCURVE",
"90 637 OFFCURVE",
"90 623 CURVE SMOOTH",
"90 -179 LINE SMOOTH",
"90 -193 OFFCURVE",
"97 -200 OFFCURVE",
"111 -200 CURVE SMOOTH"
);
},
{
closed = 1;
nodes = (
"132 291 LINE SMOOTH",
"132 377 OFFCURVE",
"190 420 OFFCURVE",
"309 420 CURVE SMOOTH",
"347 420 LINE SMOOTH",
"445 420 OFFCURVE",
"480 385 OFFCURVE",
"480 287 CURVE SMOOTH",
"480 176 LINE SMOOTH",
"480 78 OFFCURVE",
"445 43 OFFCURVE",
"347 43 CURVE SMOOTH",
"132 43 LINE"
);
}
);
width = 602;
},
{
layerId = "9D2B49D7-8C02-48EB-8D57-D561CCF616AE";
paths = (
{
closed = 1;
nodes = (
"177 -200 OFFCURVE",
"188 -189 OFFCURVE",
"188 -158 CURVE SMOOTH",
"188 1 LINE",
"382 1 LINE SMOOTH",
"515 1 OFFCURVE",
"578 64 OFFCURVE",
"578 197 CURVE SMOOTH",
"578 308 LINE SMOOTH",
"578 441 OFFCURVE",
"515 504 OFFCURVE",
"382 504 CURVE SMOOTH",
"344 504 LINE SMOOTH",
"281 504 OFFCURVE",
"228 481 OFFCURVE",
"188 436 CURVE",
"188 644 LINE SMOOTH",
"188 675 OFFCURVE",
"177 686 OFFCURVE",
"146 686 CURVE SMOOTH",
"115 686 OFFCURVE",
"104 675 OFFCURVE",
"104 644 CURVE SMOOTH",
"104 -158 LINE SMOOTH",
"104 -189 OFFCURVE",
"115 -200 OFFCURVE",
"146 -200 CURVE SMOOTH"
);
},
{
closed = 1;
nodes = (
"188 312 LINE SMOOTH",
"188 385 OFFCURVE",
"235 420 OFFCURVE",
"344 420 CURVE SMOOTH",
"382 420 LINE SMOOTH",
"469 420 OFFCURVE",
"494 395 OFFCURVE",
"494 308 CURVE SMOOTH",
"494 197 LINE SMOOTH",
"494 110 OFFCURVE",
"469 85 OFFCURVE",
"382 85 CURVE SMOOTH",
"188 85 LINE"
);
}
);
width = 658;
}
);
leftKerningGroup = h;
leftMetricsKey = h;
rightKerningGroup = o;
rightMetricsKey = o;
unicode = 00FE;
},
{
color = 10;
glyphname = q;
lastChange = "2024-11-18 10:37:41 +0000";
layers = (
{
anchors = (
{
name = bottom;
position = "{286, 0}";
},
{
name = top;
position = "{286, 461}";
}
);
layerId = "C9A88445-F9B1-43BF-9834-532EB19954E9";
paths = (
{
closed = 1;
nodes = (
"505 -200 OFFCURVE",
"512 -193 OFFCURVE",
"512 -179 CURVE SMOOTH",
"512 440 LINE SMOOTH",
"512 454 OFFCURVE",
"505 461 OFFCURVE",
"491 461 CURVE SMOOTH",
"477 461 OFFCURVE",
"470 454 OFFCURVE",
"470 440 CURVE SMOOTH",
"470 385 LINE",
"442 435 OFFCURVE",
"387 461 OFFCURVE",
"293 461 CURVE SMOOTH",
"255 461 LINE SMOOTH",
"133 461 OFFCURVE",
"80 408 OFFCURVE",
"80 286 CURVE SMOOTH",
"80 175 LINE SMOOTH",
"80 53 OFFCURVE",
"133 0 OFFCURVE",
"255 0 CURVE SMOOTH",
"470 0 LINE",
"470 -179 LINE SMOOTH",
"470 -193 OFFCURVE",
"477 -200 OFFCURVE",
"491 -200 CURVE SMOOTH"
);
},
{
closed = 1;
nodes = (
"157 42 OFFCURVE",
"122 77 OFFCURVE",
"122 175 CURVE SMOOTH",
"122 286 LINE SMOOTH",
"122 384 OFFCURVE",
"157 419 OFFCURVE",
"255 419 CURVE SMOOTH",
"293 419 LINE SMOOTH",
"402 419 OFFCURVE",
"470 383 OFFCURVE",
"470 310 CURVE SMOOTH",
"470 42 LINE",
"255 42 LINE SMOOTH"
);
}
);
width = 593;
},
{
anchors = (
{
name = bottom;
position = "{335, 0}";
},
{
name = top;
position = "{335, 507}";
}
);
background = {
paths = (
{
closed = 1;
nodes = (
"584 -182 OFFCURVE",
"595 -167 OFFCURVE",
"595 -137 CURVE SMOOTH",
"595 426 LINE SMOOTH",
"595 454 OFFCURVE",
"583 468 OFFCURVE",
"559 468 CURVE SMOOTH",
"535 468 OFFCURVE",
"523 453 OFFCURVE",
"523 423 CURVE SMOOTH",
"523 411 LINE",
"483 444 OFFCURVE",
"423 461 OFFCURVE",
"343 461 CURVE SMOOTH",
"314 461 LINE SMOOTH",
"134 461 OFFCURVE",
"61 423 OFFCURVE",
"61 283 CURVE SMOOTH",
"61 178 LINE SMOOTH",
"61 38 OFFCURVE",
"135 0 OFFCURVE",
"311 0 CURVE SMOOTH",
"523 0 LINE",
"523 -137 LINE SMOOTH",
"523 -170 OFFCURVE",
"542 -182 OFFCURVE",
"561 -182 CURVE SMOOTH"
);
},
{
closed = 1;
nodes = (
"166 72 OFFCURVE",
"133 85 OFFCURVE",
"133 181 CURVE SMOOTH",
"133 280 LINE SMOOTH",
"133 328 OFFCURVE",
"145 358 OFFCURVE",
"168 371 CURVE SMOOTH",
"191 383 OFFCURVE",
"239 389 OFFCURVE",
"314 389 CURVE SMOOTH",
"343 389 LINE SMOOTH",
"463 389 OFFCURVE",
"523 337 OFFCURVE",
"523 232 CURVE SMOOTH",
"523 72 LINE",
"311 72 LINE SMOOTH"
);
}
);
};
layerId = "9D2B49D7-8C02-48EB-8D57-D561CCF616AE";
paths = (
{
closed = 1;
nodes = (
"539 -200 OFFCURVE",
"554 -185 OFFCURVE",
"554 -158 CURVE SMOOTH",
"554 465 LINE SMOOTH",
"554 492 OFFCURVE",
"539 507 OFFCURVE",
"512 507 CURVE SMOOTH",
"485 507 OFFCURVE",
"470 492 OFFCURVE",
"470 465 CURVE SMOOTH",
"470 451 LINE",
"440 486 OFFCURVE",
"389 507 OFFCURVE",
"314 507 CURVE SMOOTH",
"276 507 LINE SMOOTH",
"143 507 OFFCURVE",
"80 444 OFFCURVE",
"80 311 CURVE SMOOTH",
"80 196 LINE SMOOTH",
"80 63 OFFCURVE",
"143 0 OFFCURVE",
"276 0 CURVE SMOOTH",
"470 0 LINE",
"470 -158 LINE SMOOTH",
"470 -185 OFFCURVE",
"485 -200 OFFCURVE",
"512 -200 CURVE SMOOTH"
);
},
{
closed = 1;
nodes = (
"189 84 OFFCURVE",
"164 109 OFFCURVE",
"164 196 CURVE SMOOTH",
"164 311 LINE SMOOTH",
"164 398 OFFCURVE",
"189 423 OFFCURVE",
"276 423 CURVE SMOOTH",
"314 423 LINE SMOOTH",
"402 423 OFFCURVE",
"470 401 OFFCURVE",
"470 353 CURVE SMOOTH",
"470 84 LINE",
"276 84 LINE SMOOTH"
);
}
);
width = 648;
}
);
leftKerningGroup = o;
leftMetricsKey = o;
rightKerningGroup = q;
rightMetricsKey = n;
unicode = 0071;
},
{
color = 10;
glyphname = r;
lastChange = "2024-11-18 10:37:41 +0000";
layers = (
{
anchors = (
{
name = bottom;
position = "{112, -1}";
},
{
name = top;
position = "{218, 461}";
}
);
layerId = "C9A88445-F9B1-43BF-9834-532EB19954E9";
paths = (
{
closed = 1;
nodes = (
"125 0 OFFCURVE",
"132 7 OFFCURVE",
"132 21 CURVE SMOOTH",
"132 251 LINE",
"140 360 OFFCURVE",
"208 419 OFFCURVE",
"328 419 CURVE SMOOTH",
"342 419 OFFCURVE",
"349 426 OFFCURVE",
"349 440 CURVE SMOOTH",
"349 454 OFFCURVE",
"343 461 OFFCURVE",
"328 461 CURVE SMOOTH",
"234 461 OFFCURVE",
"165 422 OFFCURVE",
"132 351 CURVE",
"132 440 LINE SMOOTH",
"132 454 OFFCURVE",
"125 461 OFFCURVE",
"111 461 CURVE SMOOTH",
"97 461 OFFCURVE",
"90 454 OFFCURVE",
"90 440 CURVE SMOOTH",
"90 21 LINE SMOOTH",
"90 7 OFFCURVE",
"97 0 OFFCURVE",
"111 0 CURVE SMOOTH"
);
}
);
width = 360;
},
{
anchors = (
{
name = bottom;
position = "{146, 0}";
},
{
name = top;
position = "{250, 507}";
}
);
background = {
paths = (
{
closed = 0;
nodes = (
"136 494 LINE",
"136 0 LINE"
);
},
{
closed = 0;
nodes = (
"136 248 LINE",
"136 393 OFFCURVE",
"227 458 OFFCURVE",
"354 458 CURVE",
"395 458 LINE"
);
}
);
};
layerId = "9D2B49D7-8C02-48EB-8D57-D561CCF616AE";
paths = (
{
closed = 1;
nodes = (
"173 0 OFFCURVE",
"188 15 OFFCURVE",
"188 42 CURVE SMOOTH",
"188 307 LINE",
"191 377 OFFCURVE",
"253 423 OFFCURVE",
"368 423 CURVE SMOOTH",
"395 423 OFFCURVE",
"410 438 OFFCURVE",
"410 465 CURVE SMOOTH",
"410 492 OFFCURVE",
"395 507 OFFCURVE",
"368 507 CURVE SMOOTH",
"289 507 OFFCURVE",
"228 479 OFFCURVE",
"188 426 CURVE",
"188 465 LINE SMOOTH",
"188 493 OFFCURVE",
"173 507 OFFCURVE",
"146 507 CURVE SMOOTH",
"119 507 OFFCURVE",
"104 493 OFFCURVE",
"104 465 CURVE SMOOTH",
"104 42 LINE SMOOTH",
"104 15 OFFCURVE",
"119 0 OFFCURVE",
"146 0 CURVE SMOOTH"
);
}
);
width = 427;
}
);
leftKerningGroup = n;
leftMetricsKey = n;
rightKerningGroup = r;
unicode = 0072;
},
{
color = 10;
glyphname = s;
lastChange = "2024-11-18 10:37:41 +0000";
layers = (
{
anchors = (
{
name = bottom;
position = "{266, 0}";
},
{
name = top;
position = "{266, 461}";
}
);
layerId = "C9A88445-F9B1-43BF-9834-532EB19954E9";
paths = (
{
closed = 1;
nodes = (
"352 1 LINE SMOOTH",
"441 1 OFFCURVE",
"481 41 OFFCURVE",
"481 130 CURVE SMOOTH",
"481 219 OFFCURVE",
"441 259 OFFCURVE",
"352 259 CURVE SMOOTH",
"190 259 LINE SMOOTH",
"129 259 OFFCURVE",
"109 279 OFFCURVE",
"109 339 CURVE SMOOTH",
"109 400 OFFCURVE",
"129 420 OFFCURVE",
"190 420 CURVE SMOOTH",
"347 420 LINE SMOOTH",
"400 420 OFFCURVE",
"422 405 OFFCURVE",
"426 361 CURVE SMOOTH",
"428 347 OFFCURVE",
"434 340 OFFCURVE",
"448 340 CURVE SMOOTH",
"462 340 OFFCURVE",
"470 348 OFFCURVE",
"468 362 CURVE SMOOTH",
"462 430 OFFCURVE",
"423 462 OFFCURVE",
"347 462 CURVE SMOOTH",
"190 462 LINE SMOOTH",
"106 462 OFFCURVE",
"67 424 OFFCURVE",
"67 339 CURVE SMOOTH",
"67 255 OFFCURVE",
"106 217 OFFCURVE",
"190 217 CURVE SMOOTH",
"352 217 LINE SMOOTH",
"418 217 OFFCURVE",
"439 195 OFFCURVE",
"439 130 CURVE SMOOTH",
"439 65 OFFCURVE",
"418 43 OFFCURVE",
"352 43 CURVE SMOOTH",
"188 43 LINE SMOOTH",
"131 43 OFFCURVE",
"107 60 OFFCURVE",
"102 109 CURVE SMOOTH",
"101 123 OFFCURVE",
"94 130 OFFCURVE",
"81 130 CURVE SMOOTH",
"67 130 OFFCURVE",
"59 122 OFFCURVE",
"60 108 CURVE SMOOTH",
"67 35 OFFCURVE",
"107 1 OFFCURVE",
"188 1 CURVE SMOOTH"
);
}
);
width = 541;
},
{
anchors = (
{
name = bottom;
position = "{316, 0}";
},
{
name = top;
position = "{316, 507}";
}
);
background = {
paths = (
{
closed = 0;
nodes = (
"473 357 LINE",
"473 429 OFFCURVE",
"444 458 OFFCURVE",
"372 458 CURVE",
"216 458 LINE",
"142 458 OFFCURVE",
"113 429 OFFCURVE",
"113 355 CURVE",
"113 284 OFFCURVE",
"142 252 OFFCURVE",
"216 252 CURVE SMOOTH",
"377 252 LINE SMOOTH",
"454 252 OFFCURVE",
"485 221 OFFCURVE",
"485 144 CURVE SMOOTH",
"485 67 OFFCURVE",
"454 36 OFFCURVE",
"377 36 CURVE SMOOTH",
"213 36 LINE",
"136 36 OFFCURVE",
"105 67 OFFCURVE",
"105 144 CURVE"
);
}
);
};
layerId = "9D2B49D7-8C02-48EB-8D57-D561CCF616AE";
paths = (
{
closed = 1;
nodes = (
"387 0 LINE SMOOTH",
"487 0 OFFCURVE",
"537 49 OFFCURVE",
"537 150 CURVE SMOOTH",
"537 250 OFFCURVE",
"487 300 OFFCURVE",
"387 300 CURVE SMOOTH",
"226 300 LINE SMOOTH",
"177 300 OFFCURVE",
"165 313 OFFCURVE",
"165 361 CURVE SMOOTH",
"165 413 OFFCURVE",
"175 423 OFFCURVE",
"226 423 CURVE SMOOTH",
"382 423 LINE SMOOTH",
"413 423 OFFCURVE",
"428 419 OFFCURVE",
"436 403 CURVE SMOOTH",
"443 378 OFFCURVE",
"454 364 OFFCURVE",
"480 364 CURVE SMOOTH",
"508 364 OFFCURVE",
"526 380 OFFCURVE",
"521 408 CURVE SMOOTH",
"507 473 OFFCURVE",
"461 507 OFFCURVE",
"382 507 CURVE SMOOTH",
"226 507 LINE SMOOTH",
"128 507 OFFCURVE",
"81 459 OFFCURVE",
"81 361 CURVE SMOOTH",
"81 265 OFFCURVE",
"130 216 OFFCURVE",
"226 216 CURVE SMOOTH",
"387 216 LINE SMOOTH",
"439 216 OFFCURVE",
"453 203 OFFCURVE",
"453 150 CURVE SMOOTH",
"453 96 OFFCURVE",
"439 84 OFFCURVE",
"387 84 CURVE SMOOTH",
"223 84 LINE SMOOTH",
"186 84 OFFCURVE",
"169 89 OFFCURVE",
"161 109 CURVE SMOOTH",
"153 136 OFFCURVE",
"143 150 OFFCURVE",
"116 150 CURVE SMOOTH",
"88 150 OFFCURVE",
"70 133 OFFCURVE",
"75 105 CURVE SMOOTH",
"89 35 OFFCURVE",
"138 0 OFFCURVE",
"223 0 CURVE SMOOTH"
);
}
);
width = 611;
}
);
leftKerningGroup = s;
rightKerningGroup = s;
unicode = 0073;
},
{
color = 9;
glyphname = germandbls;
lastChange = "2024-11-18 08:40:00 +0000";
layers = (
{
layerId = "C9A88445-F9B1-43BF-9834-532EB19954E9";
paths = (
{
closed = 1;
nodes = (
"125 1 OFFCURVE",
"132 8 OFFCURVE",
"132 22 CURVE SMOOTH",
"132 526 LINE SMOOTH",
"132 616 OFFCURVE",
"164 648 OFFCURVE",
"254 648 CURVE SMOOTH",
"343 648 OFFCURVE",
"375 616 OFFCURVE",
"375 527 CURVE SMOOTH",
"375 445 OFFCURVE",
"349 412 OFFCURVE",
"275 407 CURVE SMOOTH",
"261 406 OFFCURVE",
"254 399 OFFCURVE",
"254 385 CURVE SMOOTH",
"254 371 OFFCURVE",
"261 364 OFFCURVE",
"275 364 CURVE SMOOTH",
"304 364 LINE SMOOTH",
"401 364 OFFCURVE",
"435 330 OFFCURVE",
"435 233 CURVE SMOOTH",
"435 174 LINE SMOOTH",
"435 77 OFFCURVE",
"401 43 OFFCURVE",
"304 43 CURVE SMOOTH",
"243 43 LINE SMOOTH",
"229 43 OFFCURVE",
"222 36 OFFCURVE",
"222 22 CURVE SMOOTH",
"222 8 OFFCURVE",
"229 1 OFFCURVE",
"243 1 CURVE SMOOTH",
"304 1 LINE SMOOTH",
"425 1 OFFCURVE",
"477 53 OFFCURVE",
"477 174 CURVE SMOOTH",
"477 233 LINE SMOOTH",
"477 328 OFFCURVE",
"439 376 OFFCURVE",
"353 394 CURVE",
"397 421 OFFCURVE",
"417 467 OFFCURVE",
"417 527 CURVE SMOOTH",
"417 640 OFFCURVE",
"367 690 OFFCURVE",
"254 690 CURVE SMOOTH",
"140 690 OFFCURVE",
"90 640 OFFCURVE",
"90 526 CURVE SMOOTH",
"90 22 LINE SMOOTH",
"90 8 OFFCURVE",
"97 1 OFFCURVE",
"111 1 CURVE SMOOTH"
);
}
);
width = 517;
},
{
layerId = "9D2B49D7-8C02-48EB-8D57-D561CCF616AE";
paths = (
{
closed = 1;
nodes = (
"174 0 OFFCURVE",
"188 14 OFFCURVE",
"188 42 CURVE SMOOTH",
"188 519 LINE SMOOTH",
"188 598 OFFCURVE",
"210 620 OFFCURVE",
"289 620 CURVE SMOOTH",
"367 620 OFFCURVE",
"389 598 OFFCURVE",
"389 520 CURVE SMOOTH",
"389 458 OFFCURVE",
"376 430 OFFCURVE",
"330 422 CURVE SMOOTH",
"302 419 OFFCURVE",
"289 405 OFFCURVE",
"289 379 CURVE SMOOTH",
"289 350 OFFCURVE",
"303 336 OFFCURVE",
"331 336 CURVE SMOOTH",
"339 336 LINE SMOOTH",
"425 336 OFFCURVE",
"449 312 OFFCURVE",
"449 226 CURVE SMOOTH",
"449 194 LINE SMOOTH",
"449 108 OFFCURVE",
"425 84 OFFCURVE",
"339 84 CURVE SMOOTH",
"278 84 LINE SMOOTH",
"250 84 OFFCURVE",
"236 70 OFFCURVE",
"236 42 CURVE SMOOTH",
"236 14 OFFCURVE",
"250 0 OFFCURVE",
"278 0 CURVE SMOOTH",
"339 0 LINE SMOOTH",
"471 0 OFFCURVE",
"533 61 OFFCURVE",
"533 194 CURVE SMOOTH",
"533 226 LINE SMOOTH",
"533 315 OFFCURVE",
"498 372 OFFCURVE",
"398 395 CURVE",
"457 425 OFFCURVE",
"473 471 OFFCURVE",
"473 520 CURVE SMOOTH",
"473 644 OFFCURVE",
"413 704 OFFCURVE",
"289 704 CURVE SMOOTH",
"164 704 OFFCURVE",
"104 644 OFFCURVE",
"104 519 CURVE SMOOTH",
"104 42 LINE SMOOTH",
"104 14 OFFCURVE",
"118 0 OFFCURVE",
"146 0 CURVE SMOOTH"
);
}
);
width = 587;
}
);
leftKerningGroup = h;
leftMetricsKey = n;
rightKerningGroup = germandbls;
unicode = 00DF;
},
{
color = 10;
glyphname = t;
lastChange = "2024-11-18 10:37:41 +0000";
layers = (
{
anchors = (
{
name = bottom;
position = "{194, 0}";
},
{
name = center;
position = "{164, 311}";
},
{
name = top;
position = "{125, 601}";
},
{
name = topright;
position = "{203, 461}";
}
);
layerId = "C9A88445-F9B1-43BF-9834-532EB19954E9";
paths = (
{
closed = 1;
nodes = (
"291 0 OFFCURVE",
"298 7 OFFCURVE",
"298 21 CURVE SMOOTH",
"298 34 OFFCURVE",
"293 42 OFFCURVE",
"276 42 CURVE SMOOTH",
"179 42 OFFCURVE",
"146 75 OFFCURVE",
"146 171 CURVE SMOOTH",
"146 419 LINE",
"275 419 LINE SMOOTH",
"289 419 OFFCURVE",
"296 426 OFFCURVE",
"296 440 CURVE SMOOTH",
"296 454 OFFCURVE",
"289 461 OFFCURVE",
"275 461 CURVE SMOOTH",
"146 461 LINE",
"146 580 LINE SMOOTH",
"146 594 OFFCURVE",
"139 601 OFFCURVE",
"125 601 CURVE SMOOTH",
"111 601 OFFCURVE",
"104 594 OFFCURVE",
"104 580 CURVE SMOOTH",
"104 461 LINE",
"41 461 LINE SMOOTH",
"27 461 OFFCURVE",
"20 454 OFFCURVE",
"20 440 CURVE SMOOTH",
"20 426 OFFCURVE",
"27 419 OFFCURVE",
"41 419 CURVE SMOOTH",
"104 419 LINE",
"104 171 LINE SMOOTH",
"104 52 OFFCURVE",
"156 0 OFFCURVE",
"276 0 CURVE SMOOTH"
);
}
);
width = 338;
},
{
anchors = (
{
name = bottom;
position = "{187, 0}";
},
{
name = center;
position = "{196, 311}";
},
{
name = top;
position = "{167, 622}";
},
{
name = topright;
position = "{242, 507}";
}
);
background = {
paths = (
{
closed = 0;
nodes = (
"326 458 LINE",
"50 458 LINE"
);
},
{
closed = 0;
nodes = (
"155 616 LINE",
"155 186 LINE SMOOTH",
"155 76 OFFCURVE",
"200 36 OFFCURVE",
"306 36 CURVE",
"342 36 LINE"
);
}
);
};
layerId = "9D2B49D7-8C02-48EB-8D57-D561CCF616AE";
paths = (
{
closed = 1;
nodes = (
"344 0 OFFCURVE",
"360 15 OFFCURVE",
"360 42 CURVE SMOOTH",
"360 71 OFFCURVE",
"344 84 OFFCURVE",
"318 84 CURVE SMOOTH",
"234 84 OFFCURVE",
"209 107 OFFCURVE",
"209 192 CURVE SMOOTH",
"209 423 LINE",
"324 423 LINE SMOOTH",
"351 423 OFFCURVE",
"366 438 OFFCURVE",
"366 465 CURVE SMOOTH",
"366 493 OFFCURVE",
"351 507 OFFCURVE",
"324 507 CURVE SMOOTH",
"209 507 LINE",
"209 580 LINE SMOOTH",
"209 607 OFFCURVE",
"194 622 OFFCURVE",
"167 622 CURVE SMOOTH",
"140 622 OFFCURVE",
"125 607 OFFCURVE",
"125 580 CURVE SMOOTH",
"125 507 LINE",
"76 507 LINE SMOOTH",
"49 507 OFFCURVE",
"34 493 OFFCURVE",
"34 465 CURVE SMOOTH",
"34 438 OFFCURVE",
"49 423 OFFCURVE",
"76 423 CURVE SMOOTH",
"125 423 LINE",
"125 192 LINE SMOOTH",
"125 61 OFFCURVE",
"186 0 OFFCURVE",
"318 0 CURVE SMOOTH"
);
}
);
width = 419;
}
);
leftKerningGroup = t;
rightKerningGroup = t;
unicode = 0074;
},
{
color = 9;
glyphname = tbar;
lastChange = "2024-11-18 08:40:00 +0000";
layers = (
{
components = (
{
name = t;
}
);
layerId = "C9A88445-F9B1-43BF-9834-532EB19954E9";
paths = (
{
closed = 1;
nodes = (
"275 290 LINE SMOOTH",
"289 290 OFFCURVE",
"296 297 OFFCURVE",
"296 311 CURVE SMOOTH",
"296 325 OFFCURVE",
"289 332 OFFCURVE",
"275 332 CURVE SMOOTH",
"41 332 LINE SMOOTH",
"27 332 OFFCURVE",
"20 325 OFFCURVE",
"20 311 CURVE SMOOTH",
"20 297 OFFCURVE",
"27 290 OFFCURVE",
"41 290 CURVE SMOOTH"
);
}
);
width = 328;
},
{
components = (
{
name = t;
}
);
layerId = "9D2B49D7-8C02-48EB-8D57-D561CCF616AE";
paths = (
{
closed = 1;
nodes = (
"331 276 LINE SMOOTH",
"353 276 OFFCURVE",
"366 289 OFFCURVE",
"366 311 CURVE SMOOTH",
"366 333 OFFCURVE",
"353 346 OFFCURVE",
"331 346 CURVE SMOOTH",
"69 346 LINE SMOOTH",
"47 346 OFFCURVE",
"34 333 OFFCURVE",
"34 311 CURVE SMOOTH",
"34 289 OFFCURVE",
"47 276 OFFCURVE",
"69 276 CURVE SMOOTH"
);
}
);
width = 409;
}
);
leftKerningGroup = t;
rightKerningGroup = t;
unicode = 0167;
},
{
color = 10;
glyphname = v;
lastChange = "2024-11-18 10:37:41 +0000";
layers = (
{
anchors = (
{
name = bottom;
position = "{240, 0}";
},
{
name = top;
position = "{246, 461}";
}
);
layerId = "C9A88445-F9B1-43BF-9834-532EB19954E9";
paths = (
{
closed = 1;
nodes = (
"266 16 CURVE SMOOTH",
"469 431 LINE SMOOTH",
"475 444 OFFCURVE",
"470 454 OFFCURVE",
"458 459 CURVE SMOOTH",
"445 464 OFFCURVE",
"436 461 OFFCURVE",
"430 448 CURVE",
"225 25 LINE",
"255 25 LINE",
"61 448 LINE SMOOTH",
"56 460 OFFCURVE",
"46 464 OFFCURVE",
"34 459 CURVE SMOOTH",
"21 454 OFFCURVE",
"17 444 OFFCURVE",
"22 432 CURVE SMOOTH",
"213 16 LINE SMOOTH",
"218 5 OFFCURVE",
"225 0 OFFCURVE",
"239 0 CURVE SMOOTH",
"250 0 OFFCURVE",
"259 2 OFFCURVE"
);
}
);
width = 492;
},
{
anchors = (
{
name = bottom;
position = "{265, 0}";
},
{
name = top;
position = "{263, 507}";
}
);
background = {
paths = (
{
closed = 0;
nodes = (
"464 490 LINE",
"256 36 LINE",
"245 36 LINE",
"53 490 LINE"
);
}
);
};
layerId = "9D2B49D7-8C02-48EB-8D57-D561CCF616AE";
paths = (
{
closed = 1;
nodes = (
"302 31 CURVE SMOOTH",
"486 446 LINE SMOOTH",
"497 471 OFFCURVE",
"491 490 OFFCURVE",
"466 502 CURVE SMOOTH",
"442 513 OFFCURVE",
"421 504 OFFCURVE",
"410 482 CURVE SMOOTH",
"236 92 LINE",
"275 92 LINE",
"116 480 LINE SMOOTH",
"105 505 OFFCURVE",
"85 513 OFFCURVE",
"61 502 CURVE SMOOTH",
"35 492 OFFCURVE",
"28 472 OFFCURVE",
"39 447 CURVE SMOOTH",
"209 33 LINE SMOOTH",
"218 11 OFFCURVE",
"232 0 OFFCURVE",
"254 0 CURVE SMOOTH",
"278 0 OFFCURVE",
"293 10 OFFCURVE"
);
}
);
width = 526;
}
);
leftKerningGroup = v;
rightKerningGroup = v;
unicode = 0076;
},
{
color = 10;
glyphname = w;
lastChange = "2024-11-18 10:37:41 +0000";
layers = (
{
anchors = (
{
name = bottom;
position = "{344, 0}";
},
{
name = top;
position = "{345, 461}";
}
);
layerId = "C9A88445-F9B1-43BF-9834-532EB19954E9";
paths = (
{
closed = 1;
nodes = (
"201 0 OFFCURVE",
"212 2 OFFCURVE",
"217 17 CURVE SMOOTH",
"346 387 LINE",
"337 387 LINE",
"454 17 LINE SMOOTH",
"458 4 OFFCURVE",
"466 0 OFFCURVE",
"481 0 CURVE SMOOTH",
"495 0 OFFCURVE",
"502 5 OFFCURVE",
"507 17 CURVE SMOOTH",
"662 432 LINE SMOOTH",
"666 445 OFFCURVE",
"662 454 OFFCURVE",
"649 459 CURVE SMOOTH",
"636 464 OFFCURVE",
"627 459 OFFCURVE",
"622 446 CURVE SMOOTH",
"468 23 LINE",
"496 23 LINE",
"366 436 LINE SMOOTH",
"362 447 OFFCURVE",
"355 453 OFFCURVE",
"343 453 CURVE SMOOTH",
"331 453 OFFCURVE",
"322 447 OFFCURVE",
"319 436 CURVE SMOOTH",
"180 23 LINE",
"206 23 LINE",
"61 446 LINE SMOOTH",
"56 459 OFFCURVE",
"48 463 OFFCURVE",
"35 459 CURVE SMOOTH",
"22 455 OFFCURVE",
"17 445 OFFCURVE",
"22 432 CURVE SMOOTH",
"164 17 LINE SMOOTH",
"168 5 OFFCURVE",
"175 0 OFFCURVE",
"190 0 CURVE SMOOTH"
);
}
);
width = 684;
},
{
anchors = (
{
name = bottom;
position = "{370, 0}";
},
{
name = top;
position = "{370, 507}";
}
);
background = {
paths = (
{
closed = 0;
nodes = (
"673 483 LINE",
"510 36 LINE",
"499 36 LINE",
"371 458 LINE",
"362 458 LINE",
"219 36 LINE",
"208 36 LINE",
"58 483 LINE"
);
}
);
};
layerId = "9D2B49D7-8C02-48EB-8D57-D561CCF616AE";
paths = (
{
closed = 1;
nodes = (
"241 0 OFFCURVE",
"257 12 OFFCURVE",
"264 34 CURVE SMOOTH",
"376 379 LINE",
"365 379 LINE",
"468 35 LINE SMOOTH",
"475 12 OFFCURVE",
"489 0 OFFCURVE",
"514 0 CURVE SMOOTH",
"538 0 OFFCURVE",
"553 11 OFFCURVE",
"561 34 CURVE SMOOTH",
"713 450 LINE SMOOTH",
"723 476 OFFCURVE",
"713 495 OFFCURVE",
"688 504 CURVE SMOOTH",
"662 514 OFFCURVE",
"644 505 OFFCURVE",
"634 478 CURVE SMOOTH",
"519 144 LINE",
"523 144 LINE",
"423 475 LINE SMOOTH",
"416 499 OFFCURVE",
"401 510 OFFCURVE",
"378 510 CURVE SMOOTH",
"353 510 OFFCURVE",
"338 500 OFFCURVE",
"330 477 CURVE SMOOTH",
"224 141 LINE",
"230 141 LINE",
"117 477 LINE SMOOTH",
"108 504 OFFCURVE",
"90 513 OFFCURVE",
"64 504 CURVE SMOOTH",
"39 495 OFFCURVE",
"29 477 OFFCURVE",
"37 452 CURVE SMOOTH",
"176 34 LINE SMOOTH",
"184 11 OFFCURVE",
"198 0 OFFCURVE",
"220 0 CURVE SMOOTH"
);
}
);
width = 751;
}
);
leftKerningGroup = v;
leftMetricsKey = v;
rightKerningGroup = v;
rightMetricsKey = v;
unicode = 0077;
},
{
color = 10;
glyphname = x;
lastChange = "2024-11-18 10:37:41 +0000";
layers = (
{
anchors = (
{
name = bottom;
position = "{239, 0}";
},
{
name = top;
position = "{239, 461}";
}
);
layerId = "C9A88445-F9B1-43BF-9834-532EB19954E9";
paths = (
{
closed = 1;
nodes = (
"64 -3 OFFCURVE",
"75 -1 OFFCURVE",
"83 9 CURVE SMOOTH",
"238 198 LINE",
"386 9 LINE SMOOTH",
"395 -2 OFFCURVE",
"405 -3 OFFCURVE",
"416 6 CURVE SMOOTH",
"427 14 OFFCURVE",
"428 24 OFFCURVE",
"419 35 CURVE SMOOTH",
"268 229 LINE",
"431 426 LINE SMOOTH",
"440 436 OFFCURVE",
"439 446 OFFCURVE",
"428 455 CURVE SMOOTH",
"418 464 OFFCURVE",
"407 463 OFFCURVE",
"398 452 CURVE SMOOTH",
"242 262 LINE",
"93 452 LINE SMOOTH",
"84 463 OFFCURVE",
"74 464 OFFCURVE",
"63 456 CURVE",
"53 447 OFFCURVE",
"51 437 OFFCURVE",
"60 426 CURVE SMOOTH",
"212 232 LINE",
"51 36 LINE SMOOTH",
"42 25 OFFCURVE",
"43 15 OFFCURVE",
"54 6 CURVE SMOOTH"
);
}
);
width = 482;
},
{
anchors = (
{
name = bottom;
position = "{269, 0}";
},
{
name = top;
position = "{274, 507}";
}
);
background = {
paths = (
{
closed = 0;
nodes = (
"61 0 LINE",
"257 264 LINE"
);
},
{
closed = 0;
nodes = (
"461 0 LINE",
"80 494 LINE"
);
},
{
closed = 0;
nodes = (
"263 258 LINE",
"445 494 LINE"
);
}
);
};
layerId = "9D2B49D7-8C02-48EB-8D57-D561CCF616AE";
paths = (
{
closed = 1;
nodes = (
"95 -6 OFFCURVE",
"116 -2 OFFCURVE",
"132 20 CURVE SMOOTH",
"266 208 LINE",
"410 19 LINE SMOOTH",
"426 -3 OFFCURVE",
"447 -6 OFFCURVE",
"469 11 CURVE SMOOTH",
"490 28 OFFCURVE",
"492 48 OFFCURVE",
"476 70 CURVE SMOOTH",
"324 269 LINE",
"452 438 LINE SMOOTH",
"468 460 OFFCURVE",
"465 481 OFFCURVE",
"444 497 CURVE SMOOTH",
"422 514 OFFCURVE",
"401 511 OFFCURVE",
"385 489 CURVE SMOOTH",
"271 338 LINE",
"155 489 LINE SMOOTH",
"139 510 OFFCURVE",
"118 513 OFFCURVE",
"97 496 CURVE SMOOTH",
"75 480 OFFCURVE",
"72 459 OFFCURVE",
"89 438 CURVE SMOOTH",
"212 278 LINE",
"64 69 LINE SMOOTH",
"48 47 OFFCURVE",
"51 27 OFFCURVE",
"73 10 CURVE SMOOTH"
);
}
);
width = 533;
}
);
leftKerningGroup = x;
rightKerningGroup = x;
unicode = 0078;
},
{
color = 10;
glyphname = y;
lastChange = "2024-11-18 10:37:41 +0000";
layers = (
{
anchors = (
{
name = bottom;
position = "{586, 0}";
},
{
name = top;
position = "{287, 461}";
}
);
layerId = "C9A88445-F9B1-43BF-9834-532EB19954E9";
paths = (
{
closed = 1;
nodes = (
"370 -200 LINE SMOOTH",
"455 -200 OFFCURVE",
"493 -162 OFFCURVE",
"493 -76 CURVE SMOOTH",
"493 441 LINE SMOOTH",
"493 455 OFFCURVE",
"486 462 OFFCURVE",
"472 462 CURVE SMOOTH",
"458 462 OFFCURVE",
"451 455 OFFCURVE",
"451 441 CURVE SMOOTH",
"451 170 LINE SMOOTH",
"451 84 OFFCURVE",
"393 41 OFFCURVE",
"274 41 CURVE SMOOTH",
"253 41 LINE SMOOTH",
"156 41 OFFCURVE",
"123 74 OFFCURVE",
"123 170 CURVE SMOOTH",
"123 441 LINE SMOOTH",
"123 455 OFFCURVE",
"116 462 OFFCURVE",
"102 462 CURVE SMOOTH",
"88 462 OFFCURVE",
"81 455 OFFCURVE",
"81 441 CURVE SMOOTH",
"81 170 LINE SMOOTH",
"81 51 OFFCURVE",
"133 -1 OFFCURVE",
"253 -1 CURVE SMOOTH",
"274 -1 LINE SMOOTH",
"355 -1 OFFCURVE",
"414 18 OFFCURVE",
"451 65 CURVE",
"451 -76 LINE SMOOTH",
"451 -139 OFFCURVE",
"431 -158 OFFCURVE",
"370 -158 CURVE SMOOTH",
"204 -158 LINE SMOOTH",
"143 -158 OFFCURVE",
"123 -139 OFFCURVE",
"123 -76 CURVE SMOOTH",
"123 -62 OFFCURVE",
"116 -55 OFFCURVE",
"102 -55 CURVE SMOOTH",
"88 -55 OFFCURVE",
"81 -62 OFFCURVE",
"81 -76 CURVE SMOOTH",
"81 -162 OFFCURVE",
"119 -200 OFFCURVE",
"204 -200 CURVE SMOOTH"
);
}
);
width = 583;
},
{
anchors = (
{
name = bottom;
position = "{655, 0}";
},
{
name = top;
position = "{335, 507}";
}
);
background = {
components = (
{
name = n;
transform = "{-1, 0, 0, -1, 642, 494}";
}
);
};
layerId = "9D2B49D7-8C02-48EB-8D57-D561CCF616AE";
paths = (
{
closed = 1;
nodes = (
"432 -200 LINE SMOOTH",
"528 -200 OFFCURVE",
"576 -152 OFFCURVE",
"576 -55 CURVE SMOOTH",
"576 465 LINE SMOOTH",
"576 493 OFFCURVE",
"562 507 OFFCURVE",
"534 507 CURVE SMOOTH",
"506 507 OFFCURVE",
"492 493 OFFCURVE",
"492 465 CURVE SMOOTH",
"492 192 LINE SMOOTH",
"492 119 OFFCURVE",
"445 84 OFFCURVE",
"336 84 CURVE SMOOTH",
"287 84 LINE SMOOTH",
"202 84 OFFCURVE",
"178 108 OFFCURVE",
"178 192 CURVE SMOOTH",
"178 465 LINE SMOOTH",
"178 493 OFFCURVE",
"164 507 OFFCURVE",
"136 507 CURVE SMOOTH",
"108 507 OFFCURVE",
"94 493 OFFCURVE",
"94 465 CURVE SMOOTH",
"94 192 LINE SMOOTH",
"94 61 OFFCURVE",
"155 0 OFFCURVE",
"287 0 CURVE SMOOTH",
"336 0 LINE SMOOTH",
"398 0 OFFCURVE",
"452 12 OFFCURVE",
"492 72 CURVE",
"492 -55 LINE SMOOTH",
"492 -105 OFFCURVE",
"481 -116 OFFCURVE",
"432 -116 CURVE SMOOTH",
"238 -116 LINE SMOOTH",
"188 -116 OFFCURVE",
"178 -105 OFFCURVE",
"178 -55 CURVE SMOOTH",
"178 -27 OFFCURVE",
"164 -13 OFFCURVE",
"136 -13 CURVE SMOOTH",
"108 -13 OFFCURVE",
"94 -27 OFFCURVE",
"94 -55 CURVE SMOOTH",
"94 -152 OFFCURVE",
"141 -200 OFFCURVE",
"238 -200 CURVE SMOOTH"
);
}
);
width = 680;
}
);
leftKerningGroup = u;
leftMetricsKey = u;
rightKerningGroup = u;
rightMetricsKey = u;
unicode = 0079;
},
{
color = 10;
glyphname = z;
lastChange = "2024-11-18 10:37:41 +0000";
layers = (
{
anchors = (
{
name = bottom;
position = "{259, 0}";
},
{
name = top;
position = "{259, 461}";
}
);
layerId = "C9A88445-F9B1-43BF-9834-532EB19954E9";
paths = (
{
closed = 1;
nodes = (
"349 0 LINE SMOOTH",
"423 0 OFFCURVE",
"464 34 OFFCURVE",
"471 101 CURVE SMOOTH",
"473 115 OFFCURVE",
"465 123 OFFCURVE",
"451 123 CURVE SMOOTH",
"437 123 OFFCURVE",
"431 116 OFFCURVE",
"429 102 CURVE SMOOTH",
"424 59 OFFCURVE",
"400 42 OFFCURVE",
"349 42 CURVE SMOOTH",
"96 42 LINE",
"117 37 LINE",
"424 416 LINE SMOOTH",
"431 425 OFFCURVE",
"433 431 OFFCURVE",
"433 440 CURVE SMOOTH",
"433 454 OFFCURVE",
"426 461 OFFCURVE",
"412 461 CURVE SMOOTH",
"167 461 LINE SMOOTH",
"90 461 OFFCURVE",
"51 430 OFFCURVE",
"45 360 CURVE SMOOTH",
"44 346 OFFCURVE",
"52 338 OFFCURVE",
"66 338 CURVE SMOOTH",
"79 338 OFFCURVE",
"86 345 OFFCURVE",
"87 359 CURVE SMOOTH",
"92 405 OFFCURVE",
"113 419 OFFCURVE",
"167 419 CURVE SMOOTH",
"406 419 LINE",
"380 428 LINE",
"68 44 LINE SMOOTH",
"62 36 OFFCURVE",
"59 29 OFFCURVE",
"59 21 CURVE SMOOTH",
"59 7 OFFCURVE",
"67 0 OFFCURVE",
"80 0 CURVE SMOOTH"
);
}
);
width = 506;
},
{
anchors = (
{
name = bottom;
position = "{272, 0}";
},
{
name = top;
position = "{284, 507}";
}
);
background = {
paths = (
{
closed = 0;
nodes = (
"79 356 LINE",
"79 430 OFFCURVE",
"108 458 OFFCURVE",
"181 458 CURVE",
"426 458 LINE",
"426 453 LINE",
"94 40 LINE",
"94 36 LINE",
"363 36 LINE",
"436 36 OFFCURVE",
"465 71 OFFCURVE",
"465 138 CURVE"
);
}
);
};
layerId = "9D2B49D7-8C02-48EB-8D57-D561CCF616AE";
paths = (
{
closed = 1;
nodes = (
"368 0 LINE SMOOTH",
"446 0 OFFCURVE",
"494 35 OFFCURVE",
"508 100 CURVE SMOOTH",
"514 128 OFFCURVE",
"496 144 OFFCURVE",
"467 144 CURVE SMOOTH",
"441 144 OFFCURVE",
"432 130 OFFCURVE",
"423 105 CURVE SMOOTH",
"415 89 OFFCURVE",
"399 84 OFFCURVE",
"368 84 CURVE SMOOTH",
"161 85 LINE",
"172 68 LINE",
"455 423 LINE SMOOTH",
"468 439 OFFCURVE",
"473 451 OFFCURVE",
"473 465 CURVE SMOOTH",
"473 493 OFFCURVE",
"458 507 OFFCURVE",
"431 507 CURVE SMOOTH",
"186 507 LINE SMOOTH",
"105 507 OFFCURVE",
"59 474 OFFCURVE",
"46 407 CURVE SMOOTH",
"41 379 OFFCURVE",
"58 363 OFFCURVE",
"87 363 CURVE SMOOTH",
"113 363 OFFCURVE",
"123 377 OFFCURVE",
"130 403 CURVE SMOOTH",
"138 419 OFFCURVE",
"153 423 OFFCURVE",
"186 423 CURVE SMOOTH",
"375 423 LINE",
"373 443 LINE",
"85 83 LINE SMOOTH",
"72 67 OFFCURVE",
"67 55 OFFCURVE",
"67 42 CURVE SMOOTH",
"67 15 OFFCURVE",
"83 0 OFFCURVE",
"109 0 CURVE SMOOTH"
);
}
);
width = 545;
}
);
leftKerningGroup = z;
rightKerningGroup = z;
unicode = 007A;
},
{
color = 9;
glyphname = a.ss01;
lastChange = "2024-11-18 08:40:00 +0000";
layers = (
{
layerId = "C9A88445-F9B1-43BF-9834-532EB19954E9";
paths = (
{
closed = 1;
nodes = (
"293 0 LINE SMOOTH",
"380 0 OFFCURVE",
"441 26 OFFCURVE",
"474 75 CURVE",
"483 30 OFFCURVE",
"511 6 OFFCURVE",
"560 1 CURVE SMOOTH",
"574 0 OFFCURVE",
"582 8 OFFCURVE",
"582 22 CURVE SMOOTH",
"582 35 OFFCURVE",
"575 41 OFFCURVE",
"561 43 CURVE SMOOTH",
"524 49 OFFCURVE",
"512 66 OFFCURVE",
"512 112 CURVE SMOOTH",
"512 439 LINE SMOOTH",
"512 453 OFFCURVE",
"505 460 OFFCURVE",
"491 460 CURVE SMOOTH",
"477 460 OFFCURVE",
"470 453 OFFCURVE",
"470 439 CURVE SMOOTH",
"470 401 LINE",
"448 443 OFFCURVE",
"406 461 OFFCURVE",
"341 461 CURVE SMOOTH",
"251 461 LINE SMOOTH",
"129 461 OFFCURVE",
"80 412 OFFCURVE",
"80 286 CURVE SMOOTH",
"80 171 LINE SMOOTH",
"80 52 OFFCURVE",
"132 0 OFFCURVE",
"252 0 CURVE SMOOTH"
);
},
{
closed = 1;
nodes = (
"155 42 OFFCURVE",
"122 75 OFFCURVE",
"122 171 CURVE SMOOTH",
"122 286 LINE SMOOTH",
"122 389 OFFCURVE",
"153 419 OFFCURVE",
"251 419 CURVE SMOOTH",
"341 419 LINE SMOOTH",
"432 419 OFFCURVE",
"470 392 OFFCURVE",
"470 306 CURVE SMOOTH",
"470 151 LINE SMOOTH",
"470 78 OFFCURVE",
"402 42 OFFCURVE",
"293 42 CURVE SMOOTH",
"252 42 LINE SMOOTH"
);
}
);
width = 612;
},
{
layerId = "9D2B49D7-8C02-48EB-8D57-D561CCF616AE";
paths = (
{
closed = 1;
nodes = (
"314 0 LINE SMOOTH",
"390 0 OFFCURVE",
"447 23 OFFCURVE",
"480 70 CURVE",
"494 36 OFFCURVE",
"520 13 OFFCURVE",
"559 4 CURVE SMOOTH",
"587 -2 OFFCURVE",
"603 15 OFFCURVE",
"603 44 CURVE SMOOTH",
"603 71 OFFCURVE",
"589 79 OFFCURVE",
"573 86 CURVE SMOOTH",
"558 92 OFFCURVE",
"554 97 OFFCURVE",
"554 133 CURVE SMOOTH",
"554 466 LINE SMOOTH",
"554 492 OFFCURVE",
"539 508 OFFCURVE",
"512 508 CURVE SMOOTH",
"488 508 OFFCURVE",
"473 495 OFFCURVE",
"471 474 CURVE",
"471 473 LINE",
"445 497 OFFCURVE",
"410 507 OFFCURVE",
"362 507 CURVE SMOOTH",
"272 507 LINE SMOOTH",
"139 507 OFFCURVE",
"80 448 OFFCURVE",
"80 311 CURVE SMOOTH",
"80 192 LINE SMOOTH",
"80 60 OFFCURVE",
"142 0 OFFCURVE",
"273 0 CURVE SMOOTH"
);
},
{
closed = 1;
nodes = (
"189 84 OFFCURVE",
"164 107 OFFCURVE",
"164 192 CURVE SMOOTH",
"164 311 LINE SMOOTH",
"164 402 OFFCURVE",
"185 423 OFFCURVE",
"272 423 CURVE SMOOTH",
"362 423 LINE SMOOTH",
"430 423 OFFCURVE",
"470 411 OFFCURVE",
"470 360 CURVE SMOOTH",
"470 154 LINE SMOOTH",
"470 105 OFFCURVE",
"402 84 OFFCURVE",
"314 84 CURVE SMOOTH",
"273 84 LINE SMOOTH"
);
}
);
width = 648;
}
);
leftKerningGroup = o;
leftMetricsKey = o;
rightKerningGroup = l;
rightMetricsKey = l;
},
{
color = 9;
glyphname = f_f;
lastChange = "2024-11-18 08:40:00 +0000";
layers = (
{
components = (
{
name = f;
transform = "{1, 0, 0, 1, 292, 0}";
}
);
layerId = "C9A88445-F9B1-43BF-9834-532EB19954E9";
paths = (
{
closed = 1;
nodes = (
"130 0 OFFCURVE",
"137 7 OFFCURVE",
"137 21 CURVE SMOOTH",
"137 518 LINE SMOOTH",
"137 614 OFFCURVE",
"171 648 OFFCURVE",
"267 648 CURVE SMOOTH",
"281 648 OFFCURVE",
"289 655 OFFCURVE",
"289 669 CURVE SMOOTH",
"289 683 OFFCURVE",
"281 690 OFFCURVE",
"267 690 CURVE SMOOTH",
"147 690 OFFCURVE",
"95 638 OFFCURVE",
"95 518 CURVE SMOOTH",
"95 21 LINE SMOOTH",
"95 7 OFFCURVE",
"102 0 OFFCURVE",
"116 0 CURVE SMOOTH"
);
},
{
closed = 1;
nodes = (
"379 419 LINE SMOOTH",
"393 419 OFFCURVE",
"400 426 OFFCURVE",
"400 440 CURVE SMOOTH",
"400 454 OFFCURVE",
"393 461 OFFCURVE",
"379 461 CURVE SMOOTH",
"51 461 LINE SMOOTH",
"37 461 OFFCURVE",
"30 454 OFFCURVE",
"30 440 CURVE SMOOTH",
"30 426 OFFCURVE",
"37 419 OFFCURVE",
"51 419 CURVE SMOOTH"
);
}
);
width = 601;
},
{
components = (
{
name = f;
transform = "{1, 0, 0, 1, 320, 0}";
}
);
layerId = "9D2B49D7-8C02-48EB-8D57-D561CCF616AE";
paths = (
{
closed = 1;
nodes = (
"192 0 OFFCURVE",
"207 15 OFFCURVE",
"207 42 CURVE SMOOTH",
"207 511 LINE SMOOTH",
"207 596 OFFCURVE",
"233 620 OFFCURVE",
"316 620 CURVE SMOOTH",
"338 620 OFFCURVE",
"352 635 OFFCURVE",
"352 662 CURVE SMOOTH",
"352 690 OFFCURVE",
"338 704 OFFCURVE",
"316 704 CURVE SMOOTH",
"185 704 OFFCURVE",
"123 642 OFFCURVE",
"123 511 CURVE SMOOTH",
"123 42 LINE SMOOTH",
"123 15 OFFCURVE",
"138 0 OFFCURVE",
"165 0 CURVE SMOOTH"
);
},
{
closed = 1;
nodes = (
"473 423 LINE SMOOTH",
"499 423 OFFCURVE",
"515 439 OFFCURVE",
"515 465 CURVE SMOOTH",
"515 492 OFFCURVE",
"499 507 OFFCURVE",
"473 507 CURVE SMOOTH",
"86 507 LINE SMOOTH",
"59 507 OFFCURVE",
"44 492 OFFCURVE",
"44 465 CURVE SMOOTH",
"44 439 OFFCURVE",
"59 423 OFFCURVE",
"86 423 CURVE SMOOTH"
);
}
);
width = 706;
}
);
leftKerningGroup = f;
leftMetricsKey = f;
rightKerningGroup = f;
rightMetricsKey = f;
},
{
color = 9;
glyphname = f_f_i;
lastChange = "2024-11-18 08:40:00 +0000";
layers = (
{
components = (
{
name = fi;
transform = "{1, 0, 0, 1, 292, 0}";
}
);
layerId = "C9A88445-F9B1-43BF-9834-532EB19954E9";
paths = (
{
closed = 1;
nodes = (
"130 0 OFFCURVE",
"137 7 OFFCURVE",
"137 21 CURVE SMOOTH",
"137 518 LINE SMOOTH",
"137 614 OFFCURVE",
"171 648 OFFCURVE",
"267 648 CURVE SMOOTH",
"281 648 OFFCURVE",
"289 655 OFFCURVE",
"289 669 CURVE SMOOTH",
"289 683 OFFCURVE",
"281 690 OFFCURVE",
"267 690 CURVE SMOOTH",
"147 690 OFFCURVE",
"95 638 OFFCURVE",
"95 518 CURVE SMOOTH",
"95 21 LINE SMOOTH",
"95 7 OFFCURVE",
"102 0 OFFCURVE",
"116 0 CURVE SMOOTH"
);
},
{
closed = 1;
nodes = (
"379 419 LINE SMOOTH",
"393 419 OFFCURVE",
"400 426 OFFCURVE",
"400 440 CURVE SMOOTH",
"400 454 OFFCURVE",
"393 461 OFFCURVE",
"379 461 CURVE SMOOTH",
"51 461 LINE SMOOTH",
"37 461 OFFCURVE",
"30 454 OFFCURVE",
"30 440 CURVE SMOOTH",
"30 426 OFFCURVE",
"37 419 OFFCURVE",
"51 419 CURVE SMOOTH"
);
}
);
width = 808;
},
{
components = (
{
name = fi;
transform = "{1, 0, 0, 1, 319, 0}";
}
);
layerId = "9D2B49D7-8C02-48EB-8D57-D561CCF616AE";
paths = (
{
closed = 1;
nodes = (
"192 0 OFFCURVE",
"207 15 OFFCURVE",
"207 42 CURVE SMOOTH",
"207 511 LINE SMOOTH",
"207 596 OFFCURVE",
"233 620 OFFCURVE",
"316 620 CURVE SMOOTH",
"338 620 OFFCURVE",
"352 635 OFFCURVE",
"352 662 CURVE SMOOTH",
"352 690 OFFCURVE",
"338 704 OFFCURVE",
"316 704 CURVE SMOOTH",
"185 704 OFFCURVE",
"123 642 OFFCURVE",
"123 511 CURVE SMOOTH",
"123 42 LINE SMOOTH",
"123 15 OFFCURVE",
"138 0 OFFCURVE",
"165 0 CURVE SMOOTH"
);
},
{
closed = 1;
nodes = (
"471 423 LINE SMOOTH",
"498 423 OFFCURVE",
"513 439 OFFCURVE",
"513 465 CURVE SMOOTH",
"513 492 OFFCURVE",
"498 507 OFFCURVE",
"471 507 CURVE SMOOTH",
"86 507 LINE SMOOTH",
"59 507 OFFCURVE",
"44 492 OFFCURVE",
"44 465 CURVE SMOOTH",
"44 439 OFFCURVE",
"59 423 OFFCURVE",
"86 423 CURVE SMOOTH"
);
}
);
width = 950;
}
);
leftKerningGroup = f;
leftMetricsKey = f;
rightKerningGroup = dotless;
rightMetricsKey = i;
},
{
color = 9;
glyphname = f_f_l;
lastChange = "2024-11-18 08:40:00 +0000";
layers = (
{
components = (
{
name = fl;
transform = "{1, 0, 0, 1, 292, 0}";
}
);
layerId = "C9A88445-F9B1-43BF-9834-532EB19954E9";
paths = (
{
closed = 1;
nodes = (
"130 0 OFFCURVE",
"137 7 OFFCURVE",
"137 21 CURVE SMOOTH",
"137 518 LINE SMOOTH",
"137 614 OFFCURVE",
"171 648 OFFCURVE",
"267 648 CURVE SMOOTH",
"281 648 OFFCURVE",
"289 655 OFFCURVE",
"289 669 CURVE SMOOTH",
"289 683 OFFCURVE",
"281 690 OFFCURVE",
"267 690 CURVE SMOOTH",
"147 690 OFFCURVE",
"95 638 OFFCURVE",
"95 518 CURVE SMOOTH",
"95 21 LINE SMOOTH",
"95 7 OFFCURVE",
"102 0 OFFCURVE",
"116 0 CURVE SMOOTH"
);
},
{
closed = 1;
nodes = (
"379 419 LINE SMOOTH",
"393 419 OFFCURVE",
"400 426 OFFCURVE",
"400 440 CURVE SMOOTH",
"400 454 OFFCURVE",
"393 461 OFFCURVE",
"379 461 CURVE SMOOTH",
"51 461 LINE SMOOTH",
"37 461 OFFCURVE",
"30 454 OFFCURVE",
"30 440 CURVE SMOOTH",
"30 426 OFFCURVE",
"37 419 OFFCURVE",
"51 419 CURVE SMOOTH"
);
}
);
width = 840;
},
{
components = (
{
name = fl;
transform = "{1, 0, 0, 1, 306, 0}";
}
);
layerId = "9D2B49D7-8C02-48EB-8D57-D561CCF616AE";
paths = (
{
closed = 1;
nodes = (
"192 0 OFFCURVE",
"207 15 OFFCURVE",
"207 42 CURVE SMOOTH",
"207 511 LINE SMOOTH",
"207 596 OFFCURVE",
"233 620 OFFCURVE",
"316 620 CURVE SMOOTH",
"338 620 OFFCURVE",
"352 635 OFFCURVE",
"352 662 CURVE SMOOTH",
"352 690 OFFCURVE",
"338 704 OFFCURVE",
"316 704 CURVE SMOOTH",
"185 704 OFFCURVE",
"123 642 OFFCURVE",
"123 511 CURVE SMOOTH",
"123 42 LINE SMOOTH",
"123 15 OFFCURVE",
"138 0 OFFCURVE",
"165 0 CURVE SMOOTH"
);
},
{
closed = 1;
nodes = (
"429 423 LINE SMOOTH",
"456 423 OFFCURVE",
"471 439 OFFCURVE",
"471 465 CURVE SMOOTH",
"471 492 OFFCURVE",
"456 507 OFFCURVE",
"429 507 CURVE SMOOTH",
"86 507 LINE SMOOTH",
"59 507 OFFCURVE",
"44 492 OFFCURVE",
"44 465 CURVE SMOOTH",
"44 439 OFFCURVE",
"59 423 OFFCURVE",
"86 423 CURVE SMOOTH"
);
}
);
width = 996;
}
);
leftKerningGroup = f;
leftMetricsKey = f;
rightKerningGroup = l;
rightMetricsKey = l;
},
{
color = 9;
glyphname = fi;
lastChange = "2024-11-18 08:40:00 +0000";
layers = (
{
components = (
{
alignment = -1;
name = idotless;
transform = "{1, 0, 0, 1, 297, 0}";
},
{
alignment = -1;
name = dotaccentcomb;
transform = "{0.9259, 0, 0, 0.9259, 302, 101}";
}
);
layerId = "C9A88445-F9B1-43BF-9834-532EB19954E9";
paths = (
{
closed = 1;
nodes = (
"130 0 OFFCURVE",
"137 7 OFFCURVE",
"137 21 CURVE SMOOTH",
"137 419 LINE",
"408 419 LINE SMOOTH",
"422 419 OFFCURVE",
"429 426 OFFCURVE",
"429 440 CURVE SMOOTH",
"429 454 OFFCURVE",
"422 461 OFFCURVE",
"408 461 CURVE SMOOTH",
"137 461 LINE",
"137 519 LINE SMOOTH",
"137 615 OFFCURVE",
"170 648 OFFCURVE",
"267 648 CURVE",
"389 616 LINE",
"397 690 LINE",
"267 690 LINE SMOOTH",
"147 690 OFFCURVE",
"95 638 OFFCURVE",
"95 519 CURVE SMOOTH",
"95 461 LINE",
"51 461 LINE SMOOTH",
"37 461 OFFCURVE",
"30 454 OFFCURVE",
"30 440 CURVE SMOOTH",
"30 426 OFFCURVE",
"37 419 OFFCURVE",
"51 419 CURVE SMOOTH",
"95 419 LINE",
"95 21 LINE SMOOTH",
"95 7 OFFCURVE",
"102 0 OFFCURVE",
"116 0 CURVE SMOOTH"
);
}
);
width = 516;
},
{
components = (
{
alignment = -1;
name = idotless;
transform = "{1, 0, 0, 1, 339, 0}";
},
{
alignment = -1;
name = dotaccentcomb;
transform = "{1.0296, 0, 0, 1.0296, 379, -28}";
}
);
layerId = "9D2B49D7-8C02-48EB-8D57-D561CCF616AE";
paths = (
{
closed = 1;
nodes = (
"192 0 OFFCURVE",
"207 15 OFFCURVE",
"207 42 CURVE SMOOTH",
"207 423 LINE",
"486 423 LINE SMOOTH",
"513 423 OFFCURVE",
"528 439 OFFCURVE",
"528 465 CURVE SMOOTH",
"528 492 OFFCURVE",
"513 507 OFFCURVE",
"486 507 CURVE SMOOTH",
"207 507 LINE",
"207 511 LINE SMOOTH",
"207 595 OFFCURVE",
"233 620 OFFCURVE",
"316 620 CURVE",
"452 581 LINE",
"478 704 LINE",
"316 704 LINE SMOOTH",
"185 704 OFFCURVE",
"123 642 OFFCURVE",
"123 511 CURVE SMOOTH",
"123 507 LINE",
"86 507 LINE SMOOTH",
"59 507 OFFCURVE",
"44 492 OFFCURVE",
"44 465 CURVE SMOOTH",
"44 439 OFFCURVE",
"59 423 OFFCURVE",
"86 423 CURVE SMOOTH",
"123 423 LINE",
"123 42 LINE SMOOTH",
"123 15 OFFCURVE",
"138 0 OFFCURVE",
"165 0 CURVE SMOOTH"
);
}
);
width = 631;
}
);
leftKerningGroup = f;
leftMetricsKey = f;
rightMetricsKey = i;
unicode = FB01;
},
{
color = 9;
glyphname = fl;
lastChange = "2024-11-18 08:40:00 +0000";
layers = (
{
layerId = "C9A88445-F9B1-43BF-9834-532EB19954E9";
paths = (
{
closed = 1;
nodes = (
"510 -1 OFFCURVE",
"518 7 OFFCURVE",
"518 20 CURVE SMOOTH",
"518 34 OFFCURVE",
"511 41 OFFCURVE",
"497 42 CURVE SMOOTH",
"445 45 OFFCURVE",
"429 65 OFFCURVE",
"429 111 CURVE SMOOTH",
"429 669 LINE SMOOTH",
"429 683 OFFCURVE",
"422 690 OFFCURVE",
"408 690 CURVE SMOOTH",
"267 690 LINE SMOOTH",
"147 690 OFFCURVE",
"95 638 OFFCURVE",
"95 518 CURVE SMOOTH",
"95 21 LINE SMOOTH",
"95 7 OFFCURVE",
"102 0 OFFCURVE",
"116 0 CURVE SMOOTH",
"130 0 OFFCURVE",
"137 7 OFFCURVE",
"137 21 CURVE SMOOTH",
"137 518 LINE SMOOTH",
"137 614 OFFCURVE",
"171 648 OFFCURVE",
"267 648 CURVE SMOOTH",
"387 648 LINE",
"387 111 LINE SMOOTH",
"387 40 OFFCURVE",
"421 5 OFFCURVE",
"496 0 CURVE SMOOTH"
);
},
{
closed = 1;
nodes = (
"267 419 LINE SMOOTH",
"281 419 OFFCURVE",
"288 426 OFFCURVE",
"288 440 CURVE SMOOTH",
"288 454 OFFCURVE",
"281 461 OFFCURVE",
"267 461 CURVE SMOOTH",
"51 461 LINE SMOOTH",
"37 461 OFFCURVE",
"30 454 OFFCURVE",
"30 440 CURVE SMOOTH",
"30 426 OFFCURVE",
"37 419 OFFCURVE",
"51 419 CURVE SMOOTH"
);
}
);
width = 548;
},
{
layerId = "9D2B49D7-8C02-48EB-8D57-D561CCF616AE";
paths = (
{
closed = 1;
nodes = (
"630 0 OFFCURVE",
"645 15 OFFCURVE",
"645 42 CURVE SMOOTH",
"645 73 OFFCURVE",
"633 84 OFFCURVE",
"603 84 CURVE SMOOTH",
"542 83 OFFCURVE",
"527 96 OFFCURVE",
"527 160 CURVE SMOOTH",
"527 662 LINE SMOOTH",
"527 689 OFFCURVE",
"512 704 OFFCURVE",
"485 704 CURVE SMOOTH",
"316 704 LINE SMOOTH",
"185 704 OFFCURVE",
"123 642 OFFCURVE",
"123 511 CURVE SMOOTH",
"123 42 LINE SMOOTH",
"123 15 OFFCURVE",
"138 0 OFFCURVE",
"165 0 CURVE SMOOTH",
"192 0 OFFCURVE",
"207 15 OFFCURVE",
"207 42 CURVE SMOOTH",
"207 511 LINE SMOOTH",
"207 596 OFFCURVE",
"231 620 OFFCURVE",
"316 620 CURVE SMOOTH",
"443 620 LINE",
"443 160 LINE SMOOTH",
"443 50 OFFCURVE",
"495 -2 OFFCURVE",
"604 0 CURVE SMOOTH"
);
},
{
closed = 1;
nodes = (
"309 423 LINE SMOOTH",
"336 423 OFFCURVE",
"351 439 OFFCURVE",
"351 465 CURVE SMOOTH",
"351 492 OFFCURVE",
"336 507 OFFCURVE",
"309 507 CURVE SMOOTH",
"86 507 LINE SMOOTH",
"59 507 OFFCURVE",
"44 492 OFFCURVE",
"44 465 CURVE SMOOTH",
"44 439 OFFCURVE",
"59 423 OFFCURVE",
"86 423 CURVE SMOOTH"
);
}
);
width = 690;
}
);
leftKerningGroup = f;
leftMetricsKey = f;
rightKerningGroup = l;
rightMetricsKey = l;
unicode = FB02;
},
{
color = 9;
glyphname = a.sc;
lastChange = "2024-11-18 08:40:00 +0000";
layers = (
{
anchors = (
{
name = bottom;
position = "{245, 0}";
},
{
name = ogonek;
position = "{445, 0}";
},
{
name = top;
position = "{246, 515}";
}
);
layerId = "C9A88445-F9B1-43BF-9834-532EB19954E9";
paths = (
{
closed = 1;
nodes = (
"46 -3 OFFCURVE",
"57 1 OFFCURVE",
"62 13 CURVE SMOOTH",
"115 139 LINE",
"377 139 LINE",
"430 13 LINE SMOOTH",
"435 1 OFFCURVE",
"445 -3 OFFCURVE",
"457 2 CURVE SMOOTH",
"470 7 OFFCURVE",
"474 17 OFFCURVE",
"469 30 CURVE SMOOTH",
"270 500 LINE SMOOTH",
"266 511 OFFCURVE",
"258 515 OFFCURVE",
"246 515 CURVE SMOOTH",
"233 515 OFFCURVE",
"226 510 OFFCURVE",
"221 499 CURVE SMOOTH",
"23 29 LINE SMOOTH",
"18 17 OFFCURVE",
"22 7 OFFCURVE",
"34 2 CURVE SMOOTH"
);
},
{
closed = 1;
nodes = (
"246 449 LINE",
"359 181 LINE",
"133 181 LINE"
);
}
);
width = 491;
},
{
anchors = (
{
name = bottom;
position = "{280, 0}";
},
{
name = ogonek;
position = "{453, 0}";
},
{
name = top;
position = "{282, 560}";
}
);
layerId = "9D2B49D7-8C02-48EB-8D57-D561CCF616AE";
paths = (
{
closed = 1;
nodes = (
"97 -5 OFFCURVE",
"118 2 OFFCURVE",
"127 27 CURVE SMOOTH",
"161 118 LINE",
"401 118 LINE",
"437 27 LINE SMOOTH",
"447 2 OFFCURVE",
"466 -6 OFFCURVE",
"492 4 CURVE SMOOTH",
"517 14 OFFCURVE",
"525 34 OFFCURVE",
"515 59 CURVE SMOOTH",
"326 527 LINE SMOOTH",
"317 549 OFFCURVE",
"302 560 OFFCURVE",
"282 560 CURVE SMOOTH",
"259 560 OFFCURVE",
"244 549 OFFCURVE",
"235 527 CURVE SMOOTH",
"49 58 LINE SMOOTH",
"39 34 OFFCURVE",
"47 14 OFFCURVE",
"73 4 CURVE SMOOTH"
);
},
{
closed = 1;
nodes = (
"276 427 LINE",
"367 202 LINE",
"192 202 LINE"
);
}
);
width = 560;
}
);
leftKerningGroup = a.sc;
rightKerningGroup = a.sc;
userData = {
RMXScaler = {
source = A;
};
};
},
